%TF.GenerationSoftware,KiCad,Pcbnew,10.0.5*%
%TF.CreationDate,2026-08-28T14:55:01-07:00*%
%TF.ProjectId,pcb-v3-handoff,7063622d-7633-42d6-9861-6e646f66662e,rev?*%
%TF.SameCoordinates,PXff6cc0b0PY933f50*%
%TF.FileFunction,Copper,L2,Inr*%
%TF.FilePolarity,Positive*%
%FSLAX46Y46*%
G04 Gerber Fmt 4.6, Leading zero omitted, Abs format (unit mm)*
G04 Created by KiCad (PCBNEW 10.0.5) date 2026-08-28 14:55:01*
%MOMM*%
%LPD*%
G01*
G04 APERTURE LIST*
%TA.AperFunction,ViaPad*%
%ADD10C,0.600000*%
%TD*%
%TA.AperFunction,Conductor*%
%ADD11C,0.400000*%
%TD*%
%TA.AperFunction,Conductor*%
%ADD12C,0.127000*%
%TD*%
%TA.AperFunction,Conductor*%
%ADD13C,0.200000*%
%TD*%
G04 APERTURE END LIST*
D10*
%TO.N,BL_RETURN*%
X10050000Y16600000D03*
%TO.N,VIN_DC*%
X16650000Y1450000D03*
X15700000Y4300000D03*
X13450000Y8500000D03*
%TO.N,SENSOR_MCU_3V3*%
X2550000Y6050000D03*
X2150000Y4000000D03*
%TO.N,GND*%
X3850000Y17950000D03*
X15250000Y18350000D03*
X14750000Y11550000D03*
X12450000Y18250000D03*
X13200000Y5150000D03*
X16700000Y11900000D03*
X5600000Y9200000D03*
X2750000Y18550000D03*
X17300000Y2400000D03*
X3400000Y15650000D03*
X4050000Y5650000D03*
X10750000Y18250000D03*
X9050000Y5950000D03*
X15500000Y2650000D03*
%TO.N,VSTOR*%
X7800000Y16950000D03*
X3900000Y10100000D03*
X5350000Y5600000D03*
X15700000Y1700000D03*
X9800000Y12150000D03*
X4700000Y8550000D03*
X11250000Y16050000D03*
X14300000Y10450000D03*
%TO.N,VBAT_OK*%
X9150000Y16600000D03*
X1000000Y10650000D03*
X18600000Y12625000D03*
%TO.N,RESET*%
X6100000Y5950000D03*
X12800000Y9150000D03*
X7800000Y18650000D03*
%TO.N,SENSOR_3V3*%
X8050000Y13750000D03*
X9975000Y15075000D03*
X6850000Y16400000D03*
X14350000Y17750000D03*
X3250000Y5600000D03*
X6450000Y11100000D03*
%TO.N,BL_FLAG*%
X9750000Y18500000D03*
X6300000Y15800000D03*
%TO.N,HARV_2*%
X15650000Y5200000D03*
%TO.N,HARV_3*%
X12600000Y13700000D03*
X11850000Y8050000D03*
X15750000Y3500000D03*
%TO.N,VBAT*%
X11550000Y13100000D03*
X900000Y11550000D03*
X7750000Y11900000D03*
X17600000Y10200000D03*
%TO.N,SENSOR_WAKEUP*%
X6050000Y13000000D03*
X1450000Y5250000D03*
%TO.N,SENSOR_TX*%
X17250000Y6600000D03*
X8150000Y15700000D03*
%TO.N,SENSOR_RX*%
X17300000Y5000000D03*
X7750000Y14950000D03*
%TO.N,VBAT_SENSE*%
X1150000Y12800000D03*
X3600000Y13000000D03*
%TO.N,SWDIO*%
X13500000Y6800000D03*
%TO.N,SWCLK*%
X3650000Y6650000D03*
%TO.N,HARV_1*%
X13000000Y7450000D03*
X14650000Y6150000D03*
X12050000Y16650000D03*
%TO.N,OK_PROG*%
X18650000Y14200000D03*
X18050000Y11050000D03*
%TD*%
%TO.N,SENSOR_MCU_3V3*%
D11*
X2200000Y4050000D02*
X2200000Y5700000D01*
X2200000Y5700000D02*
X2550000Y6050000D01*
%TO.N,VSTOR*%
X18050000Y4050000D02*
X15700000Y1700000D01*
X7800000Y16950000D02*
X8100000Y17250000D01*
X10400000Y17250000D02*
X11250000Y16400000D01*
X14300000Y10450000D02*
X18050000Y6700000D01*
X5350000Y7900000D02*
X5350000Y5600000D01*
X8100000Y17250000D02*
X10400000Y17250000D01*
X18050000Y6700000D02*
X18050000Y4050000D01*
X4700000Y8550000D02*
X5350000Y7900000D01*
X11250000Y16400000D02*
X11250000Y16050000D01*
%TO.N,VBAT_OK*%
D12*
X9475000Y15000000D02*
X9500000Y14975000D01*
X9500000Y14975000D02*
X9500000Y14925000D01*
X9475000Y16275000D02*
X9475000Y15000000D01*
X9525000Y14900000D02*
X9525000Y14850000D01*
X12775000Y14150000D02*
X12825000Y14150000D01*
X12825000Y14150000D02*
X12875000Y14100000D01*
X12900000Y14100000D02*
X13625000Y13375000D01*
X9525000Y14850000D02*
X10200000Y14175000D01*
X14800000Y13350000D02*
X14825000Y13350000D01*
X10200000Y14175000D02*
X12750000Y14175000D01*
X12750000Y14175000D02*
X12775000Y14150000D01*
X15550000Y12625000D02*
X18600000Y12625000D01*
X14775000Y13375000D02*
X14800000Y13350000D01*
X9150000Y16600000D02*
X9475000Y16275000D01*
X13625000Y13375000D02*
X14775000Y13375000D01*
X9500000Y14925000D02*
X9525000Y14900000D01*
X12875000Y14100000D02*
X12900000Y14100000D01*
X14825000Y13350000D02*
X15550000Y12625000D01*
%TO.N,RESET*%
D13*
X5700000Y16000000D02*
X5950000Y16250000D01*
X5950000Y16800000D02*
X7800000Y18650000D01*
X7700000Y12950000D02*
X7700000Y13000000D01*
X7700000Y13000000D02*
X5700000Y15000000D01*
X5950000Y16250000D02*
X5950000Y16800000D01*
X8000000Y10150000D02*
X8400000Y10550000D01*
X8050000Y12550000D02*
X7850000Y12750000D01*
X6100000Y5950000D02*
X8000000Y7850000D01*
X5700000Y15000000D02*
X5700000Y16000000D01*
X8000000Y10150000D02*
X9000000Y9150000D01*
X7850000Y12750000D02*
X7850000Y12800000D01*
X9000000Y9150000D02*
X12800000Y9150000D01*
X8050000Y12500000D02*
X8050000Y12550000D01*
X8400000Y10550000D02*
X8400000Y12100000D01*
X8250000Y12250000D02*
X8250000Y12300000D01*
X8250000Y12300000D02*
X8050000Y12500000D01*
X7850000Y12800000D02*
X7700000Y12950000D01*
X8400000Y12100000D02*
X8250000Y12250000D01*
X8000000Y7850000D02*
X8000000Y10150000D01*
%TO.N,SENSOR_3V3*%
X3150000Y6250000D02*
X3150000Y5700000D01*
D11*
X11675000Y15075000D02*
X14350000Y17750000D01*
D13*
X3050000Y7700000D02*
X3050000Y6350000D01*
X6900000Y14900000D02*
X6900000Y16350000D01*
X3050000Y6350000D02*
X3150000Y6250000D01*
X8050000Y13750000D02*
X6900000Y14900000D01*
X6450000Y11100000D02*
X3050000Y7700000D01*
D11*
X9975000Y15075000D02*
X11675000Y15075000D01*
%TO.N,BL_FLAG*%
D13*
X7850000Y17950000D02*
X7900000Y18000000D01*
X6350000Y16600000D02*
X6350000Y16700000D01*
X7900000Y18000000D02*
X9250000Y18000000D01*
X9250000Y18000000D02*
X9750000Y18500000D01*
X6300000Y15800000D02*
X6300000Y16550000D01*
X6300000Y16550000D02*
X6350000Y16600000D01*
X7600000Y17950000D02*
X7850000Y17950000D01*
X6350000Y16700000D02*
X7600000Y17950000D01*
%TO.N,HARV_3*%
X16250000Y4000000D02*
X15750000Y3500000D01*
X13100000Y8050000D02*
X13150000Y8000000D01*
X13900000Y7750000D02*
X16200000Y5450000D01*
X13150000Y8000000D02*
X13250000Y8000000D01*
X16200000Y5350000D02*
X16250000Y5300000D01*
X16200000Y5450000D02*
X16200000Y5350000D01*
X11850000Y8050000D02*
X13100000Y8050000D01*
X13500000Y7750000D02*
X13900000Y7750000D01*
X13250000Y8000000D02*
X13500000Y7750000D01*
X16250000Y5300000D02*
X16250000Y4000000D01*
%TO.N,VBAT*%
X5800000Y13550000D02*
X3800000Y11550000D01*
X3800000Y11550000D02*
X900000Y11550000D01*
X6300000Y13550000D02*
X5800000Y13550000D01*
X7750000Y11900000D02*
X6650000Y13000000D01*
X6650000Y13200000D02*
X6300000Y13550000D01*
X6650000Y13000000D02*
X6650000Y13200000D01*
X11550000Y13100000D02*
X14700000Y13100000D01*
X14700000Y13100000D02*
X17600000Y10200000D01*
%TO.N,SENSOR_WAKEUP*%
X1450000Y8400000D02*
X1450000Y5250000D01*
X6050000Y13000000D02*
X1450000Y8400000D01*
%TO.N,SENSOR_TX*%
X8150000Y15700000D02*
X17250000Y6600000D01*
%TO.N,SENSOR_RX*%
X7750000Y14950000D02*
X17300000Y5400000D01*
X17300000Y5400000D02*
X17300000Y5000000D01*
%TO.N,VBAT_SENSE*%
X1350000Y13000000D02*
X3600000Y13000000D01*
X1150000Y12800000D02*
X1350000Y13000000D01*
%TO.N,HARV_1*%
X13000000Y7450000D02*
X13100000Y7350000D01*
X13100000Y7350000D02*
X13750000Y7350000D01*
X13750000Y7350000D02*
X14650000Y6450000D01*
X14650000Y6450000D02*
X14650000Y6150000D01*
%TD*%
M02*
