%TF.GenerationSoftware,KiCad,Pcbnew,10.0.5*%
%TF.CreationDate,2026-08-28T14:10:42-07:00*%
%TF.ProjectId,pcb-v3-handoff,7063622d-7633-42d6-9861-6e646f66662e,rev?*%
%TF.SameCoordinates,Original*%
%TF.FileFunction,Copper,L1,Top*%
%TF.FilePolarity,Positive*%
%FSLAX46Y46*%
G04 Gerber Fmt 4.6, Leading zero omitted, Abs format (unit mm)*
G04 Created by KiCad (PCBNEW 10.0.5) date 2026-08-28 14:10:42*
%MOMM*%
%LPD*%
G01*
G04 APERTURE LIST*
G04 Aperture macros list*
%AMRoundRect*
0 Rectangle with rounded corners*
0 $1 Rounding radius*
0 $2 $3 $4 $5 $6 $7 $8 $9 X,Y pos of 4 corners*
0 Add a 4 corners polygon primitive as box body*
4,1,4,$2,$3,$4,$5,$6,$7,$8,$9,$2,$3,0*
0 Add four circle primitives for the rounded corners*
1,1,$1+$1,$2,$3*
1,1,$1+$1,$4,$5*
1,1,$1+$1,$6,$7*
1,1,$1+$1,$8,$9*
0 Add four rect primitives between the rounded corners*
20,1,$1+$1,$2,$3,$4,$5,0*
20,1,$1+$1,$4,$5,$6,$7,0*
20,1,$1+$1,$6,$7,$8,$9,0*
20,1,$1+$1,$8,$9,$2,$3,0*%
%AMFreePoly0*
4,1,6,0.230000,0.054289,0.020711,-0.155000,-0.230000,-0.155000,-0.230000,0.155000,0.230000,0.155000,0.230000,0.054289,0.230000,0.054289,$1*%
%AMFreePoly1*
4,1,6,0.230000,-0.054289,0.230000,-0.155000,-0.230000,-0.155000,-0.230000,0.155000,0.020711,0.155000,0.230000,-0.054289,0.230000,-0.054289,$1*%
%AMFreePoly2*
4,1,6,0.230000,-0.155000,-0.230000,-0.155000,-0.230000,-0.054289,-0.020711,0.155000,0.230000,0.155000,0.230000,-0.155000,0.230000,-0.155000,$1*%
%AMFreePoly3*
4,1,6,0.230000,-0.155000,-0.020711,-0.155000,-0.230000,0.054289,-0.230000,0.155000,0.230000,0.155000,0.230000,-0.155000,0.230000,-0.155000,$1*%
G04 Aperture macros list end*
%TA.AperFunction,SMDPad,CuDef*%
%ADD10R,1.200000X2.200000*%
%TD*%
%TA.AperFunction,SMDPad,CuDef*%
%ADD11FreePoly0,0.000000*%
%TD*%
%TA.AperFunction,SMDPad,CuDef*%
%ADD12FreePoly1,0.000000*%
%TD*%
%TA.AperFunction,SMDPad,CuDef*%
%ADD13FreePoly2,0.000000*%
%TD*%
%TA.AperFunction,SMDPad,CuDef*%
%ADD14FreePoly3,0.000000*%
%TD*%
%TA.AperFunction,SMDPad,CuDef*%
%ADD15RoundRect,0.072500X0.000000X-0.307591X0.307591X0.000000X0.000000X0.307591X-0.307591X0.000000X0*%
%TD*%
%TA.AperFunction,SMDPad,CuDef*%
%ADD16RoundRect,0.125000X-0.125000X-0.145000X0.125000X-0.145000X0.125000X0.145000X-0.125000X0.145000X0*%
%TD*%
%TA.AperFunction,SMDPad,CuDef*%
%ADD17C,1.400000*%
%TD*%
%TA.AperFunction,SMDPad,CuDef*%
%ADD18C,1.200000*%
%TD*%
%TA.AperFunction,SMDPad,CuDef*%
%ADD19R,0.600000X0.400000*%
%TD*%
%TA.AperFunction,SMDPad,CuDef*%
%ADD20R,0.400000X0.600000*%
%TD*%
%TA.AperFunction,SMDPad,CuDef*%
%ADD21RoundRect,0.200000X-0.200000X-0.250000X0.200000X-0.250000X0.200000X0.250000X-0.200000X0.250000X0*%
%TD*%
%TA.AperFunction,SMDPad,CuDef*%
%ADD22R,0.600000X0.240000*%
%TD*%
%TA.AperFunction,SMDPad,CuDef*%
%ADD23R,0.240000X0.600000*%
%TD*%
%TA.AperFunction,SMDPad,CuDef*%
%ADD24R,2.050000X2.050000*%
%TD*%
%TA.AperFunction,ViaPad*%
%ADD25C,0.600000*%
%TD*%
%TA.AperFunction,Conductor*%
%ADD26C,0.200000*%
%TD*%
%TA.AperFunction,Conductor*%
%ADD27C,0.127000*%
%TD*%
%TA.AperFunction,Conductor*%
%ADD28C,0.400000*%
%TD*%
G04 APERTURE END LIST*
D10*
%TO.P,L1,1*%
%TO.N,LX*%
X5781800Y-1030000D03*
%TO.P,L1,2*%
%TO.N,VIN_DC*%
X7838200Y-1030000D03*
%TD*%
D11*
%TO.P,U4,1*%
%TO.N,SENSOR_MCU_3V3*%
X-8040000Y575000D03*
D12*
%TO.P,U4,2*%
%TO.N,GND*%
X-8040000Y-75000D03*
D13*
%TO.P,U4,3*%
%TO.N,SENSOR_SW_EN*%
X-7180000Y-75000D03*
D14*
%TO.P,U4,4*%
%TO.N,VSTOR*%
X-7180000Y575000D03*
D15*
%TO.P,U4,5*%
%TO.N,GND*%
X-7610000Y250000D03*
%TD*%
D16*
%TO.P,ROV2,1*%
%TO.N,VRDIV*%
X5900000Y5763000D03*
%TO.P,ROV2,2*%
%TO.N,VBAT_OV_SET*%
X5900000Y6603000D03*
%TD*%
%TO.P,R7,1*%
%TO.N,VBAT_OK*%
X-500000Y7480000D03*
%TO.P,R7,2*%
%TO.N,RESET*%
X-500000Y8320000D03*
%TD*%
%TO.P,ROK3,1*%
%TO.N,VRDIV*%
X6800000Y5763000D03*
%TO.P,ROK3,2*%
%TO.N,OK_HYST*%
X6800000Y6603000D03*
%TD*%
%TO.P,C13,1*%
%TO.N,BL_FLAG*%
X-5000000Y7480000D03*
%TO.P,C13,2*%
%TO.N,GND*%
X-5000000Y8320000D03*
%TD*%
%TO.P,R2,1*%
%TO.N,HARV_2*%
X6000000Y-4539000D03*
%TO.P,R2,2*%
%TO.N,VIN_DC*%
X6000000Y-3699000D03*
%TD*%
%TO.P,R3,1*%
%TO.N,HARV_3*%
X6000000Y-6256000D03*
%TO.P,R3,2*%
%TO.N,VIN_DC*%
X6000000Y-5416000D03*
%TD*%
D17*
%TO.P,BT1,1*%
%TO.N,VBAT*%
X-7610000Y4300000D03*
%TO.P,BT1,2*%
%TO.N,GND*%
X-7610000Y5900000D03*
%TD*%
D18*
%TO.P,J2,1*%
%TO.N,SENSOR_3V3*%
X-8200000Y-3300000D03*
%TO.P,J2,2*%
%TO.N,SENSOR_WAKEUP*%
X-8200000Y-4800000D03*
%TO.P,J2,3*%
%TO.N,SENSOR_MCU_3V3*%
X-8200000Y-6300000D03*
%TO.P,J2,4*%
%TO.N,SENSOR_TX*%
X7800000Y-3300000D03*
%TO.P,J2,5*%
%TO.N,SENSOR_RX*%
X7800000Y-4800000D03*
%TO.P,J2,6*%
%TO.N,GND*%
X7800000Y-6300000D03*
%TD*%
D16*
%TO.P,ROV1,1*%
%TO.N,VBAT_OV_SET*%
X5000000Y5763000D03*
%TO.P,ROV1,2*%
%TO.N,GND*%
X5000000Y6603000D03*
%TD*%
%TO.P,R6,1*%
%TO.N,BL_RETURN*%
X400000Y7480000D03*
%TO.P,R6,2*%
%TO.N,BL_FLAG*%
X400000Y8320000D03*
%TD*%
D19*
%TO.P,U1,1*%
%TO.N,GND*%
X-5450000Y-4750000D03*
%TO.P,U1,2*%
X-5450000Y-3650000D03*
%TO.P,U1,9*%
%TO.N,VBAT_SENSE*%
X-4550000Y750000D03*
%TO.P,U1,11*%
%TO.N,BL_FLAG*%
X-4550000Y1550000D03*
D20*
%TO.P,U1,15*%
%TO.N,GND*%
X-5600000Y6150000D03*
%TO.P,U1,16*%
%TO.N,VBAT_OK*%
X-4800000Y6150000D03*
%TO.P,U1,19*%
%TO.N,SENSOR_SW_EN*%
X-2800000Y5250000D03*
%TO.P,U1,22*%
%TO.N,SENSOR_TX*%
X-1600000Y6150000D03*
%TO.P,U1,23*%
%TO.N,SENSOR_WAKEUP*%
X-1200000Y5250000D03*
%TO.P,U1,24*%
%TO.N,SENSOR_RX*%
X-800000Y6150000D03*
%TO.P,U1,28*%
%TO.N,NRF_VDD*%
X800000Y6150000D03*
%TO.P,U1,30*%
%TO.N,VSTOR*%
X1600000Y6150000D03*
%TO.P,U1,32*%
%TO.N,GND*%
X3200000Y6150000D03*
%TO.P,U1,33*%
X4000000Y6150000D03*
D19*
%TO.P,U1,40*%
%TO.N,RESET*%
X2950000Y2350000D03*
%TO.P,U1,51*%
%TO.N,SWDIO*%
X3850000Y-2850000D03*
%TO.P,U1,53*%
%TO.N,SWCLK*%
X3850000Y-3650000D03*
%TO.P,U1,55*%
%TO.N,GND*%
X3850000Y-4750000D03*
%TD*%
D16*
%TO.P,R4,1*%
%TO.N,VSTOR*%
X-3200000Y7480000D03*
%TO.P,R4,2*%
%TO.N,VBAT_SENSE*%
X-3200000Y8320000D03*
%TD*%
%TO.P,C12,1*%
%TO.N,VBAT_SENSE*%
X-8620000Y3050000D03*
%TO.P,C12,2*%
%TO.N,GND*%
X-7780000Y3050000D03*
%TD*%
%TO.P,R5,1*%
%TO.N,VBAT_SENSE*%
X-5900000Y7480000D03*
%TO.P,R5,2*%
%TO.N,GND*%
X-5900000Y8320000D03*
%TD*%
%TO.P,R1,1*%
%TO.N,HARV_1*%
X5000000Y-3570000D03*
%TO.P,R1,2*%
%TO.N,VIN_DC*%
X5000000Y-2730000D03*
%TD*%
%TO.P,C1,1*%
%TO.N,VIN_DC*%
X6900000Y-8270000D03*
%TO.P,C1,2*%
%TO.N,GND*%
X6900000Y-7430000D03*
%TD*%
%TO.P,C6,1*%
%TO.N,SENSOR_3V3*%
X-4100000Y7480000D03*
%TO.P,C6,2*%
%TO.N,GND*%
X-4100000Y8320000D03*
%TD*%
%TO.P,C10,1*%
%TO.N,VSTOR*%
X6000000Y-8020000D03*
%TO.P,C10,2*%
%TO.N,GND*%
X6000000Y-7180000D03*
%TD*%
%TO.P,C2,1*%
%TO.N,VSTOR*%
X-2300000Y7480000D03*
%TO.P,C2,2*%
%TO.N,GND*%
X-2300000Y8320000D03*
%TD*%
%TO.P,C4,1*%
%TO.N,VREF_SAMP*%
X3100000Y7480000D03*
%TO.P,C4,2*%
%TO.N,GND*%
X3100000Y8320000D03*
%TD*%
D21*
%TO.P,C5,1*%
%TO.N,VBAT*%
X-8310000Y1920000D03*
%TO.P,C5,2*%
%TO.N,GND*%
X-6910000Y1920000D03*
%TD*%
D22*
%TO.P,U2,1*%
%TO.N,GND*%
X5160000Y1980000D03*
%TO.P,U2,2*%
%TO.N,VIN_DC*%
X5160000Y2480000D03*
%TO.P,U2,3*%
%TO.N,GND*%
X5160000Y2980000D03*
%TO.P,U2,4*%
%TO.N,VREF_SAMP*%
X5160000Y3480000D03*
%TO.P,U2,5*%
%TO.N,GND*%
X5160000Y3980000D03*
D23*
%TO.P,U2,6*%
X5810000Y4630000D03*
%TO.P,U2,7*%
%TO.N,VBAT_OV_SET*%
X6310000Y4630000D03*
%TO.P,U2,8*%
%TO.N,VRDIV*%
X6810000Y4630000D03*
%TO.P,U2,9*%
%TO.N,N/C*%
X7310000Y4630000D03*
%TO.P,U2,10*%
X7810000Y4630000D03*
D22*
%TO.P,U2,11*%
%TO.N,OK_HYST*%
X8460000Y3980000D03*
%TO.P,U2,12*%
%TO.N,OK_PROG*%
X8460000Y3480000D03*
%TO.P,U2,13*%
%TO.N,VBAT_OK*%
X8460000Y2980000D03*
%TO.P,U2,14*%
%TO.N,N/C*%
X8460000Y2480000D03*
%TO.P,U2,15*%
%TO.N,GND*%
X8460000Y1980000D03*
D23*
%TO.P,U2,16*%
X7810000Y1330000D03*
%TO.P,U2,17*%
X7310000Y1330000D03*
%TO.P,U2,18*%
%TO.N,VBAT*%
X6810000Y1330000D03*
%TO.P,U2,19*%
%TO.N,VSTOR*%
X6310000Y1330000D03*
%TO.P,U2,20*%
%TO.N,LX*%
X5810000Y1330000D03*
D24*
%TO.P,U2,21*%
%TO.N,GND*%
X6810000Y2980000D03*
%TD*%
D11*
%TO.P,U3,1*%
%TO.N,SENSOR_3V3*%
X-8040000Y-1225000D03*
D12*
%TO.P,U3,2*%
%TO.N,GND*%
X-8040000Y-1875000D03*
D13*
%TO.P,U3,3*%
%TO.N,VSTOR*%
X-7180000Y-1875000D03*
D14*
%TO.P,U3,4*%
X-7180000Y-1225000D03*
D15*
%TO.P,U3,5*%
%TO.N,GND*%
X-7610000Y-1550000D03*
%TD*%
D21*
%TO.P,C7,1*%
%TO.N,SENSOR_3V3*%
X4600000Y7900000D03*
%TO.P,C7,2*%
%TO.N,GND*%
X6000000Y7900000D03*
%TD*%
D16*
%TO.P,ROK1,1*%
%TO.N,OK_PROG*%
X7800000Y-8270000D03*
%TO.P,ROK1,2*%
%TO.N,GND*%
X7800000Y-7430000D03*
%TD*%
%TO.P,C3,1*%
%TO.N,VSTOR*%
X-1400000Y7480000D03*
%TO.P,C3,2*%
%TO.N,GND*%
X-1400000Y8320000D03*
%TD*%
%TO.P,C9,1*%
%TO.N,NRF_VDD*%
X1300000Y7480000D03*
%TO.P,C9,2*%
%TO.N,GND*%
X1300000Y8320000D03*
%TD*%
%TO.P,ROK2,1*%
%TO.N,OK_HYST*%
X7730000Y6350000D03*
%TO.P,ROK2,2*%
%TO.N,OK_PROG*%
X8570000Y6350000D03*
%TD*%
%TO.P,C8,1*%
%TO.N,SENSOR_MCU_3V3*%
X-7050000Y-3570000D03*
%TO.P,C8,2*%
%TO.N,GND*%
X-7050000Y-2730000D03*
%TD*%
D25*
%TO.N,BL_FLAG*%
X100000Y8850000D03*
X-3350000Y6150000D03*
%TO.N,BL_RETURN*%
X400000Y6950000D03*
%TO.N,GND*%
X-5800000Y8300000D03*
X5600000Y8700000D03*
X5100000Y1900000D03*
X2800000Y8600000D03*
X3550000Y-4500000D03*
X7050000Y2250000D03*
X-4050000Y-450000D03*
X-6900000Y8900000D03*
X7650000Y-7250000D03*
X-6250000Y6000000D03*
X-5600000Y-4000000D03*
X1100000Y8600000D03*
X-600000Y-3700000D03*
X5850000Y-7000000D03*
%TO.N,HARV_1*%
X3350000Y-2200000D03*
X5000000Y-3500000D03*
X2400000Y7000000D03*
%TO.N,HARV_2*%
X6000000Y-4450000D03*
%TO.N,HARV_3*%
X2950000Y4050000D03*
X2200000Y-1600000D03*
X6100000Y-6150000D03*
%TO.N,OK_PROG*%
X9000000Y4550000D03*
X8400000Y1400000D03*
%TO.N,RESET*%
X-3550000Y-3700000D03*
X3150000Y-500000D03*
X-1850000Y9000000D03*
%TO.N,SENSOR_3V3*%
X-1600000Y4100000D03*
X325000Y5425000D03*
X-2800000Y6750000D03*
X4700000Y8100000D03*
X-6400000Y-4050000D03*
X-3200000Y1450000D03*
%TO.N,SENSOR_MCU_3V3*%
X-7100000Y-3600000D03*
X-7500000Y-5650000D03*
%TO.N,SENSOR_RX*%
X7650000Y-4650000D03*
X-1900000Y5300000D03*
%TO.N,SENSOR_TX*%
X7600000Y-3050000D03*
X-1500000Y6050000D03*
%TO.N,SENSOR_WAKEUP*%
X-3600000Y3350000D03*
X-8200000Y-4400000D03*
%TO.N,SWCLK*%
X-6000000Y-3000000D03*
%TO.N,SWDIO*%
X3850000Y-2850000D03*
%TO.N,VBAT*%
X1900000Y3450000D03*
X-8750000Y1900000D03*
X-1900000Y2250000D03*
X7950000Y550000D03*
%TO.N,VBAT_OK*%
X-500000Y6950000D03*
X-8650000Y1000000D03*
X8950000Y2975000D03*
%TO.N,VBAT_SENSE*%
X-8500000Y3150000D03*
X-6050000Y3350000D03*
%TO.N,VIN_DC*%
X7000000Y-8200000D03*
X6050000Y-5350000D03*
X3800000Y-1150000D03*
%TO.N,VSTOR*%
X-1850000Y7300000D03*
X-5750000Y450000D03*
X-4300000Y-4050000D03*
X6050000Y-7950000D03*
X150000Y2500000D03*
X-4950000Y-1100000D03*
X1600000Y6400000D03*
X4650000Y800000D03*
%TD*%
%TO.N,BL_FLAG*%
D26*
X400000Y8550000D02*
X400000Y8300000D01*
X-5000000Y7500000D02*
X-4300000Y6800000D01*
X-3700000Y6400000D02*
X-3600000Y6400000D01*
X-4300000Y5750000D02*
X-4550000Y5500000D01*
X-4550000Y5500000D02*
X-4550000Y1550000D01*
X-3750000Y6450000D02*
X-3700000Y6400000D01*
X-4300000Y6800000D02*
X-4300000Y5750000D01*
X-4200000Y6800000D02*
X-3900000Y6500000D01*
X-3800000Y6450000D02*
X-3750000Y6450000D01*
X-3900000Y6500000D02*
X-3850000Y6500000D01*
X100000Y8850000D02*
X400000Y8550000D01*
X-3600000Y6400000D02*
X-3350000Y6150000D01*
X-4300000Y6800000D02*
X-4200000Y6800000D01*
X-3850000Y6500000D02*
X-3800000Y6450000D01*
X100000Y8850000D02*
X150000Y8590000D01*
%TO.N,BL_RETURN*%
X400000Y6950000D02*
X400000Y7210000D01*
X400000Y7500000D02*
X400000Y6950000D01*
%TO.N,GND*%
D27*
X-5250000Y8550000D02*
X-5550000Y8550000D01*
X5700000Y2750000D02*
X5700000Y2200000D01*
X-7250000Y-550000D02*
X-4300000Y-600000D01*
X-2550000Y8600000D02*
X-2800000Y8800000D01*
X7550000Y-7150000D02*
X7650000Y-7250000D01*
X-3600000Y9150000D02*
X-6650000Y9150000D01*
X-7950000Y0D02*
X-7450000Y-500000D01*
X5200000Y7300000D02*
X5200000Y8000000D01*
X7700000Y1650000D02*
X7700000Y2100000D01*
X5200000Y8000000D02*
X5600000Y8350000D01*
X5700000Y4350000D02*
X5700000Y3750000D01*
X-7450000Y-500000D02*
X-7250000Y-550000D01*
X8150000Y2100000D02*
X7200000Y2100000D01*
X-1650000Y8500000D02*
X-2500000Y8500000D01*
X-6350000Y-3400000D02*
X-6200000Y-3500000D01*
X-6100000Y-3500000D02*
X-5600000Y-4000000D01*
X3400000Y6450000D02*
X4350000Y6450000D01*
X5600000Y8350000D02*
X5600000Y8700000D01*
X-6650000Y9150000D02*
X-6900000Y8900000D01*
X5700000Y3750000D02*
X5700000Y2750000D01*
X-6800000Y-2950000D02*
X-6350000Y-3400000D01*
X5450000Y4000000D02*
X5700000Y3750000D01*
X4350000Y6450000D02*
X5200000Y7300000D01*
X-5550000Y8550000D02*
X-5800000Y8300000D01*
X-5800000Y6350000D02*
X-6050000Y6100000D01*
X-7950000Y-1800000D02*
X-6350000Y-3400000D01*
X-7950000Y-1800000D02*
X-6350000Y-3400000D01*
X-6350000Y-3400000D02*
X-6200000Y-3500000D01*
X5700000Y2200000D02*
X5450000Y2150000D01*
X-6200000Y-3500000D02*
X-6100000Y-3500000D01*
X-4350000Y8550000D02*
X-5250000Y8550000D01*
X7450000Y1650000D02*
X7700000Y1650000D01*
X-7950000Y0D02*
X-7450000Y-500000D01*
X-6350000Y-3400000D02*
X-6200000Y-3500000D01*
X7150000Y-7150000D02*
X7550000Y-7150000D01*
X-3250000Y8800000D02*
X-3600000Y9150000D01*
X-6900000Y6600000D02*
X-6250000Y6000000D01*
X4750000Y6850000D02*
X5200000Y7300000D01*
X5450000Y3000000D02*
X5700000Y2750000D01*
X-2500000Y8500000D02*
X-2800000Y8800000D01*
X7200000Y2100000D02*
X7050000Y2250000D01*
X5450000Y2150000D02*
X5300000Y2000000D01*
X-5750000Y-4550000D02*
X-5750000Y-4250000D01*
X-2800000Y8800000D02*
X-3250000Y8800000D01*
%TO.N,HARV_1*%
D26*
X3250000Y3600000D02*
X3250000Y3550000D01*
X2400000Y2000000D02*
X2600000Y1800000D01*
X3250000Y3550000D02*
X2400000Y2700000D01*
X2350000Y6650000D02*
X2350000Y5450000D01*
X2600000Y1800000D02*
X2600000Y-1150000D01*
X2600000Y-1150000D02*
X2650000Y-1200000D01*
X3650000Y4000000D02*
X3250000Y3600000D01*
X3350000Y-1950000D02*
X3350000Y-2200000D01*
X2400000Y7000000D02*
X2400000Y6700000D01*
X3650000Y4150000D02*
X3650000Y4000000D01*
X2400000Y6700000D02*
X2350000Y6650000D01*
X2650000Y-1200000D02*
X2650000Y-1250000D01*
X2650000Y-1250000D02*
X3350000Y-1950000D01*
X2350000Y5450000D02*
X3650000Y4150000D01*
X2400000Y2700000D02*
X2400000Y2000000D01*
%TO.N,HARV_3*%
X2050000Y1900000D02*
X2100000Y1850000D01*
X2100000Y1800000D02*
X2250000Y1650000D01*
X2050000Y2850000D02*
X2050000Y1900000D01*
X2950000Y3800000D02*
X2950000Y3750000D01*
X3050000Y3900000D02*
X2950000Y3800000D01*
X2250000Y-1250000D02*
X2300000Y-1300000D01*
X2950000Y3750000D02*
X2050000Y2850000D01*
X3050000Y3950000D02*
X3050000Y3900000D01*
X2100000Y1850000D02*
X2100000Y1800000D01*
X2250000Y1650000D02*
X2250000Y-1250000D01*
X2300000Y-1300000D02*
X2300000Y-1500000D01*
%TO.N,LX*%
X4100000Y550000D02*
X5150000Y-500000D01*
X5800000Y1350000D02*
X4400000Y1350000D01*
X5150000Y-500000D02*
X5250000Y-500000D01*
X4100000Y1050000D02*
X4100000Y550000D01*
X5800000Y-1050000D02*
X5781800Y-1030000D01*
X4400000Y1350000D02*
X4100000Y1050000D01*
X5250000Y-500000D02*
X5800000Y-1050000D01*
X5810000Y1330000D02*
X5800000Y1350000D01*
%TO.N,NRF_VDD*%
X1300000Y6850000D02*
X1300000Y7500000D01*
X950000Y6500000D02*
X1300000Y6850000D01*
X950000Y6300000D02*
X950000Y6500000D01*
X800000Y6150000D02*
X950000Y6300000D01*
%TO.N,OK_HYST*%
X7500000Y6600000D02*
X6800000Y6600000D01*
X7750000Y6350000D02*
X8450000Y5650000D01*
X8450000Y5650000D02*
X8450000Y4000000D01*
X7750000Y6350000D02*
X7500000Y6600000D01*
X8450000Y4000000D02*
X8460000Y3980000D01*
%TO.N,OK_PROG*%
D27*
X8460000Y3480000D02*
X8450000Y3500000D01*
D26*
X8600000Y-6700000D02*
X8500000Y-6800000D01*
X8500000Y-6800000D02*
X8500000Y-6850000D01*
X8800000Y4450000D02*
X8850000Y4450000D01*
X8300000Y-7750000D02*
X7800000Y-8250000D01*
X8800000Y5800000D02*
X8550000Y6050000D01*
X8650000Y1150000D02*
X8650000Y-6550000D01*
X8300000Y-7050000D02*
X8300000Y-7750000D01*
X9000000Y3700000D02*
X9000000Y4250000D01*
X8650000Y-6550000D02*
X8600000Y-6600000D01*
X8600000Y-6600000D02*
X8600000Y-6700000D01*
X8550000Y6050000D02*
X8550000Y6350000D01*
X8800000Y4450000D02*
X8800000Y5800000D01*
X8500000Y-6850000D02*
X8300000Y-7050000D01*
X8800000Y3500000D02*
X9000000Y3700000D01*
D27*
X8450000Y3500000D02*
X8800000Y3500000D01*
D26*
X8400000Y1400000D02*
X8650000Y1150000D01*
X8550000Y6350000D02*
X8570000Y6350000D01*
X9000000Y4250000D02*
X8800000Y4450000D01*
%TO.N,RESET*%
X2950000Y-300000D02*
X2950000Y2350000D01*
X-1850000Y9000000D02*
X-1700000Y8850000D01*
X3150000Y-500000D02*
X2950000Y-300000D01*
X-1700000Y8850000D02*
X-1050000Y8850000D01*
X-1050000Y8850000D02*
X-500000Y8300000D01*
%TO.N,SENSOR_3V3*%
X-3000000Y6950000D02*
X-3550000Y6950000D01*
X-3300000Y2400000D02*
X-1600000Y4100000D01*
X-8100000Y-1200000D02*
X-8050000Y-1200000D01*
X-8500000Y-2150000D02*
X-8500000Y-1600000D01*
D28*
X-550000Y4550000D02*
X325000Y5425000D01*
D26*
X-7350000Y-4150000D02*
X-8050000Y-3450000D01*
X-8500000Y-1600000D02*
X-8100000Y-1200000D01*
D28*
X4600000Y8000000D02*
X4600000Y7900000D01*
D26*
X-8050000Y-2600000D02*
X-8500000Y-2150000D01*
X-8050000Y-3450000D02*
X-8050000Y-2600000D01*
D28*
X-1150000Y4550000D02*
X-550000Y4550000D01*
D26*
X-8050000Y-1200000D02*
X-8040000Y-1225000D01*
D28*
X-8050000Y-3300000D02*
X-8200000Y-3300000D01*
D26*
X-3550000Y6950000D02*
X-4100000Y7500000D01*
X-6500000Y-4150000D02*
X-7350000Y-4150000D01*
X-3300000Y1550000D02*
X-3300000Y2400000D01*
X-2800000Y6750000D02*
X-3000000Y6950000D01*
X-6400000Y-4050000D02*
X-6500000Y-4150000D01*
D28*
X-1600000Y4100000D02*
X-1150000Y4550000D01*
%TO.N,SENSOR_MCU_3V3*%
D26*
X-9050000Y-3200000D02*
X-9050000Y-350000D01*
X-9050000Y-5150000D02*
X-9050000Y-3200000D01*
X-9050000Y-350000D02*
X-8200000Y500000D01*
X-8200000Y500000D02*
X-8150000Y500000D01*
D28*
X-8200000Y-6300000D02*
X-7550000Y-5650000D01*
D26*
X-8150000Y500000D02*
X-8050000Y600000D01*
X-8050000Y-6150000D02*
X-9050000Y-5150000D01*
X-8050000Y600000D02*
X-8040000Y575000D01*
%TO.N,SENSOR_RX*%
X-1900000Y6750000D02*
X-2050000Y6600000D01*
X-2050000Y5700000D02*
X-1800000Y5450000D01*
X-1800000Y5450000D02*
X-1800000Y5400000D01*
X-1300000Y6750000D02*
X-1900000Y6750000D01*
X-800000Y6150000D02*
X-800000Y6250000D01*
X-800000Y6250000D02*
X-1300000Y6750000D01*
X-2050000Y6600000D02*
X-2050000Y5700000D01*
X7650000Y-4650000D02*
X7800000Y-4800000D01*
%TO.N,SENSOR_SW_EN*%
X-4200000Y3850000D02*
X-4200000Y2100000D01*
X-4200000Y2100000D02*
X-4000000Y1900000D01*
X-7200000Y-100000D02*
X-7180000Y-75000D01*
X-2800000Y5250000D02*
X-4200000Y3850000D01*
X-4500000Y-100000D02*
X-7200000Y-100000D01*
X-4000000Y1900000D02*
X-4000000Y400000D01*
X-4000000Y400000D02*
X-4500000Y-100000D01*
%TO.N,SENSOR_TX*%
X7800000Y-3250000D02*
X7800000Y-3300000D01*
X7600000Y-3050000D02*
X7800000Y-3250000D01*
%TO.N,SENSOR_WAKEUP*%
X-8200000Y-4400000D02*
X-8200000Y-4800000D01*
X-3100000Y3350000D02*
X-3600000Y3350000D01*
X-1200000Y5250000D02*
X-3100000Y3350000D01*
%TO.N,SWCLK*%
X-6000000Y-3000000D02*
X-5850000Y-3150000D01*
X3150000Y-3150000D02*
X3650000Y-3650000D01*
X-5850000Y-3150000D02*
X3150000Y-3150000D01*
X3650000Y-3650000D02*
X3850000Y-3650000D01*
%TO.N,VBAT*%
X-7600000Y3700000D02*
X-7600000Y4300000D01*
X-7250000Y3350000D02*
X-7600000Y3700000D01*
X-8150000Y1900000D02*
X-7250000Y2800000D01*
X7350000Y550000D02*
X7200000Y700000D01*
X7200000Y700000D02*
X7150000Y700000D01*
X6800000Y1050000D02*
X6800000Y1350000D01*
X-200000Y1350000D02*
X1900000Y3450000D01*
X-1900000Y2250000D02*
X-1000000Y1350000D01*
X-1000000Y1350000D02*
X-200000Y1350000D01*
X7950000Y550000D02*
X7350000Y550000D01*
X-8750000Y1900000D02*
X-8300000Y1900000D01*
X-7250000Y2800000D02*
X-7250000Y3350000D01*
X6800000Y1350000D02*
X6810000Y1330000D01*
X-8300000Y1900000D02*
X-8150000Y1900000D01*
X7150000Y700000D02*
X6800000Y1050000D01*
%TO.N,VBAT_OK*%
D27*
X8950000Y2975000D02*
X8450000Y2975000D01*
D26*
X-4800000Y5750000D02*
X-4900000Y5650000D01*
X-500000Y7500000D02*
X-500000Y7480000D01*
D27*
X8950000Y2975000D02*
X8760000Y2975000D01*
D26*
X-6700000Y1000000D02*
X-8650000Y1000000D01*
X-6650000Y2750000D02*
X-6250000Y2350000D01*
X-4800000Y6150000D02*
X-4800000Y5750000D01*
X-4900000Y5650000D02*
X-4900000Y5150000D01*
X-6100000Y3950000D02*
X-6250000Y3950000D01*
X-4900000Y5150000D02*
X-6100000Y3950000D01*
X-6250000Y3950000D02*
X-6650000Y3550000D01*
X-6650000Y3550000D02*
X-6650000Y2750000D01*
X-6250000Y1450000D02*
X-6700000Y1000000D01*
X-500000Y6950000D02*
X-500000Y7500000D01*
X-500000Y6950000D02*
X-500000Y7210000D01*
X-6250000Y2350000D02*
X-6250000Y1450000D01*
%TO.N,VBAT_OV_SET*%
X5400000Y6100000D02*
X5400000Y5650000D01*
X5400000Y5750000D02*
X5000000Y5750000D01*
X5900000Y6600000D02*
X5400000Y6100000D01*
X5350000Y5600000D02*
X5350000Y5500000D01*
X5350000Y5500000D02*
X5650000Y5200000D01*
X5400000Y5650000D02*
X5350000Y5600000D01*
X6300000Y4950000D02*
X6300000Y4650000D01*
X6300000Y4650000D02*
X6310000Y4630000D01*
X5650000Y5200000D02*
X6050000Y5200000D01*
X6050000Y5200000D02*
X6300000Y4950000D01*
%TO.N,VBAT_SENSE*%
X-3750000Y8850000D02*
X-3200000Y8300000D01*
X-8600000Y3050000D02*
X-8600000Y6300000D01*
X-4650000Y750000D02*
X-4550000Y750000D01*
X-7400000Y7500000D02*
X-5900000Y7500000D01*
X-8600000Y6300000D02*
X-7400000Y7500000D01*
X-6450000Y8550000D02*
X-6150000Y8850000D01*
X-6150000Y8850000D02*
X-3750000Y8850000D01*
X-5100000Y2400000D02*
X-5100000Y1200000D01*
X-6450000Y7500000D02*
X-6450000Y8550000D01*
X-5100000Y1200000D02*
X-4650000Y750000D01*
X-6050000Y3350000D02*
X-5100000Y2400000D01*
%TO.N,VIN_DC*%
X3750000Y-1100000D02*
X3750000Y1150000D01*
X3800000Y1200000D02*
X3800000Y1250000D01*
X3800000Y1250000D02*
X4000000Y1450000D01*
X3750000Y1150000D02*
X3800000Y1200000D01*
X3800000Y-1150000D02*
X3750000Y-1100000D01*
D28*
X6650000Y-4900000D02*
X6150000Y-5400000D01*
X5100000Y-2600000D02*
X5000000Y-2700000D01*
D26*
X5150000Y2500000D02*
X5160000Y2480000D01*
D28*
X6000000Y-3700000D02*
X6950000Y-2750000D01*
X6150000Y-3550000D02*
X6650000Y-4050000D01*
X5000000Y-2750000D02*
X5000000Y-2730000D01*
X7850000Y-1800000D02*
X7850000Y-1050000D01*
X7850000Y-1050000D02*
X7838200Y-1030000D01*
X4900000Y-2450000D02*
X4350000Y-1900000D01*
D26*
X4000000Y1450000D02*
X4000000Y1600000D01*
D28*
X4350000Y-1900000D02*
X4350000Y-1850000D01*
X4350000Y-1850000D02*
X3800000Y-1300000D01*
X6650000Y-4050000D02*
X6650000Y-4900000D01*
X6100000Y-3600000D02*
X4950000Y-2450000D01*
D26*
X4000000Y1600000D02*
X4900000Y2500000D01*
D28*
X6950000Y-2700000D02*
X7850000Y-1800000D01*
D26*
X4900000Y2500000D02*
X5150000Y2500000D01*
D28*
X5000000Y-2700000D02*
X5000000Y-2750000D01*
X6950000Y-2750000D02*
X6950000Y-2700000D01*
%TO.N,VRDIV*%
D26*
X6800000Y4650000D02*
X6810000Y4630000D01*
X6800000Y5750000D02*
X6800000Y4650000D01*
X6800000Y5750000D02*
X5900000Y5750000D01*
%TO.N,VREF_SAMP*%
X2700000Y5650000D02*
X2700000Y6550000D01*
X3100000Y6950000D02*
X3100000Y7500000D01*
X4850000Y3500000D02*
X2700000Y5650000D01*
X5160000Y3480000D02*
X5150000Y3500000D01*
X2700000Y6550000D02*
X3100000Y6950000D01*
%TO.N,VSTOR*%
X-7200000Y600000D02*
X-7180000Y575000D01*
X-6950000Y-1450000D02*
X-6950000Y-1700000D01*
D28*
X-2100000Y7300000D02*
X-1850000Y7300000D01*
D26*
X-7150000Y-1900000D02*
X-7200000Y-1900000D01*
D28*
X-1850000Y7300000D02*
X-2050000Y7300000D01*
X-2650000Y7550000D02*
X-3150000Y7550000D01*
X-2600000Y7500000D02*
X-2650000Y7550000D01*
X1600000Y6400000D02*
X1600000Y6150000D01*
D26*
X-5750000Y450000D02*
X-5900000Y600000D01*
X-7200000Y-1900000D02*
X-7180000Y-1875000D01*
X-7000000Y-1200000D02*
X-7000000Y-1400000D01*
D28*
X-2300000Y7500000D02*
X-2100000Y7300000D01*
D26*
X6300000Y1350000D02*
X6310000Y1330000D01*
D28*
X-2300000Y7500000D02*
X-2600000Y7500000D01*
D26*
X1600000Y6150000D02*
X1600000Y4150000D01*
X6000000Y700000D02*
X6300000Y1000000D01*
X150000Y2700000D02*
X150000Y2500000D01*
X1600000Y4150000D02*
X150000Y2700000D01*
X-5050000Y-1200000D02*
X-7200000Y-1200000D01*
X-7200000Y-1200000D02*
X-7180000Y-1225000D01*
X6300000Y1000000D02*
X6300000Y1350000D01*
X4750000Y700000D02*
X6000000Y700000D01*
X-7000000Y-1400000D02*
X-6950000Y-1450000D01*
X-5900000Y600000D02*
X-7200000Y600000D01*
D28*
X-3150000Y7550000D02*
X-3200000Y7500000D01*
%TD*%
%TA.AperFunction,Conductor*%
%TO.N,GND*%
G36*
X-2150541Y9335148D02*
G01*
X-2136189Y9300500D01*
X-2150541Y9265852D01*
X-2170480Y9245913D01*
X-2223207Y9154587D01*
X-2250499Y9052730D01*
X-2250500Y9052730D01*
X-2250500Y8947270D01*
X-2250499Y8947269D01*
X-2223207Y8845414D01*
X-2223206Y8845410D01*
X-2170479Y8754086D01*
X-2095913Y8679520D01*
X-2004589Y8626793D01*
X-2004585Y8626792D01*
X-1902730Y8599500D01*
X-1902727Y8599500D01*
X-1797269Y8599500D01*
X-1695417Y8626791D01*
X-1695411Y8626794D01*
X-1667454Y8642935D01*
X-1642954Y8649500D01*
X-1153346Y8649500D01*
X-1118698Y8635148D01*
X-864851Y8381301D01*
X-850499Y8346653D01*
X-850499Y8152790D01*
X-837417Y8087014D01*
X-837416Y8087013D01*
X-787577Y8012422D01*
X-712986Y7962583D01*
X-647211Y7949500D01*
X-647207Y7949500D01*
X-352791Y7949500D01*
X-287013Y7962583D01*
X-212422Y8012422D01*
X-162583Y8087013D01*
X-153619Y8132080D01*
X-149500Y8152789D01*
X-149500Y8219993D01*
X-149500Y8446721D01*
X-135148Y8481369D01*
X-100500Y8495721D01*
X-76001Y8489156D01*
X-54587Y8476793D01*
X-54585Y8476792D01*
X-54583Y8476791D01*
X-25125Y8468898D01*
X3107Y8448531D01*
X4530Y8446371D01*
X4532Y8446369D01*
X27983Y8430482D01*
X48619Y8399167D01*
X49500Y8389915D01*
X49500Y8152791D01*
X62583Y8087013D01*
X112422Y8012422D01*
X187013Y7962583D01*
X203457Y7959312D01*
X252789Y7949500D01*
X252791Y7949500D01*
X252792Y7949500D01*
X547208Y7949500D01*
X612986Y7962583D01*
X687577Y8012422D01*
X737416Y8087013D01*
X737417Y8087014D01*
X750500Y8152789D01*
X750500Y8194865D01*
X4099500Y8194865D01*
X4099500Y7605141D01*
X4099501Y7605131D01*
X4102415Y7580007D01*
X4147794Y7477233D01*
X4227234Y7397794D01*
X4227232Y7397794D01*
X4330006Y7352415D01*
X4348853Y7350228D01*
X4355135Y7349500D01*
X4355136Y7349500D01*
X4844858Y7349500D01*
X4844868Y7349501D01*
X4869992Y7352415D01*
X4972766Y7397794D01*
X5052205Y7477233D01*
X5097584Y7580006D01*
X5097584Y7580007D01*
X5097585Y7580009D01*
X5100500Y7605135D01*
X5100499Y8043316D01*
X5100500Y8043330D01*
X5100500Y8156670D01*
X5100499Y8156683D01*
X5100499Y8194858D01*
X5100499Y8194864D01*
X5097585Y8219991D01*
X5052206Y8322765D01*
X4972765Y8402206D01*
X4965782Y8405288D01*
X4950929Y8415462D01*
X4945913Y8420480D01*
X4870397Y8464079D01*
X4854589Y8473206D01*
X4854588Y8473206D01*
X4854587Y8473207D01*
X4813843Y8484124D01*
X4752730Y8500500D01*
X4752727Y8500500D01*
X4647273Y8500500D01*
X4647270Y8500500D01*
X4575874Y8481369D01*
X4545413Y8473207D01*
X4517451Y8457063D01*
X4492953Y8450499D01*
X4355136Y8450499D01*
X4330009Y8447585D01*
X4234209Y8405285D01*
X4227233Y8402205D01*
X4147794Y8322766D01*
X4102415Y8219993D01*
X4099500Y8194865D01*
X750500Y8194865D01*
X750499Y8322765D01*
X750499Y8487208D01*
X748806Y8495721D01*
X737417Y8552986D01*
X687577Y8627577D01*
X612986Y8677417D01*
X556592Y8688634D01*
X531504Y8702045D01*
X528698Y8704851D01*
X513574Y8719976D01*
X506932Y8726616D01*
X492580Y8761261D01*
X494250Y8773948D01*
X500500Y8797271D01*
X500500Y8902730D01*
X484124Y8963843D01*
X473207Y9004587D01*
X420480Y9095913D01*
X345913Y9170480D01*
X254587Y9223207D01*
X213843Y9234124D01*
X152730Y9250500D01*
X152727Y9250500D01*
X47273Y9250500D01*
X47270Y9250500D01*
X-13843Y9234124D01*
X-54587Y9223207D01*
X-145913Y9170480D01*
X-220480Y9095913D01*
X-273207Y9004587D01*
X-300499Y8902730D01*
X-300500Y8902730D01*
X-300500Y8797271D01*
X-294250Y8773948D01*
X-290851Y8761261D01*
X-287730Y8749616D01*
X-292624Y8712434D01*
X-322377Y8689603D01*
X-344619Y8688875D01*
X-352789Y8690500D01*
X-586653Y8690499D01*
X-621301Y8704851D01*
X-936423Y9019974D01*
X-936424Y9019974D01*
X-936426Y9019976D01*
X-1010118Y9050500D01*
X-1010120Y9050500D01*
X-1411304Y9050500D01*
X-1445952Y9064852D01*
X-1458634Y9086818D01*
X-1476792Y9154585D01*
X-1476793Y9154589D01*
X-1529520Y9245913D01*
X-1549459Y9265852D01*
X-1563811Y9300500D01*
X-1549459Y9335148D01*
X-1514811Y9349500D01*
X7304016Y9349500D01*
X7338664Y9335148D01*
X7353016Y9300500D01*
X7338664Y9265852D01*
X7333854Y9261632D01*
X7110100Y9089900D01*
X6920068Y8842303D01*
X6887598Y8799997D01*
X6747702Y8462306D01*
X6747700Y8462300D01*
X6700000Y8100000D01*
X6747700Y7737699D01*
X6747702Y7737693D01*
X6887598Y7400002D01*
X7042422Y7198279D01*
X7110100Y7110100D01*
X7398996Y6888370D01*
X7417744Y6855890D01*
X7408033Y6819666D01*
X7375552Y6800918D01*
X7369162Y6800500D01*
X7184689Y6800500D01*
X7150041Y6814852D01*
X7140787Y6832157D01*
X7139264Y6831526D01*
X7137417Y6835981D01*
X7137417Y6835986D01*
X7087577Y6910577D01*
X7012986Y6960417D01*
X6947211Y6973500D01*
X6652790Y6973499D01*
X6587014Y6960417D01*
X6572172Y6950500D01*
X6512422Y6910577D01*
X6468882Y6845413D01*
X6462583Y6835986D01*
X6449500Y6770211D01*
X6449500Y6770208D01*
X6449500Y6770207D01*
X6449500Y6435791D01*
X6462583Y6370013D01*
X6512422Y6295422D01*
X6587013Y6245583D01*
X6602775Y6242448D01*
X6652789Y6232500D01*
X6652791Y6232500D01*
X6652792Y6232500D01*
X6947208Y6232500D01*
X7012986Y6245583D01*
X7087577Y6295422D01*
X7140098Y6374027D01*
X7141163Y6373314D01*
X7163620Y6395770D01*
X7182371Y6399500D01*
X7330500Y6399500D01*
X7365148Y6385148D01*
X7379500Y6350500D01*
X7379500Y6182791D01*
X7392583Y6117013D01*
X7442422Y6042422D01*
X7517013Y5992583D01*
X7530302Y5989940D01*
X7582789Y5979500D01*
X7816653Y5979500D01*
X7851301Y5965148D01*
X8235148Y5581301D01*
X8249500Y5546653D01*
X8249500Y4249499D01*
X8235148Y4214851D01*
X8200500Y4200499D01*
X8150102Y4200499D01*
X8120787Y4194669D01*
X8120784Y4194667D01*
X8120783Y4194667D01*
X8087543Y4172457D01*
X8065330Y4139213D01*
X8065330Y4139212D01*
X8059500Y4109904D01*
X8059500Y3850105D01*
X8059500Y3850104D01*
X8059501Y3850102D01*
X8064049Y3827231D01*
X8065332Y3820784D01*
X8065332Y3820783D01*
X8087542Y3787543D01*
X8087543Y3787542D01*
X8112689Y3770740D01*
X8133524Y3739557D01*
X8126206Y3702775D01*
X8112689Y3689258D01*
X8087543Y3672457D01*
X8081952Y3664089D01*
X8065330Y3639213D01*
X8065330Y3639212D01*
X8059500Y3609904D01*
X8059500Y3350105D01*
X8059500Y3350104D01*
X8059501Y3350102D01*
X8064952Y3322691D01*
X8065332Y3320784D01*
X8065332Y3320783D01*
X8087542Y3287543D01*
X8087543Y3287542D01*
X8112689Y3270740D01*
X8133524Y3239557D01*
X8126206Y3202775D01*
X8112689Y3189258D01*
X8087543Y3172457D01*
X8087542Y3172455D01*
X8065330Y3139213D01*
X8065330Y3139212D01*
X8059500Y3109904D01*
X8059500Y2850105D01*
X8059500Y2850104D01*
X8059501Y2850102D01*
X8063594Y2829520D01*
X8065332Y2820784D01*
X8065332Y2820783D01*
X8087542Y2787543D01*
X8087543Y2787542D01*
X8112689Y2770740D01*
X8133524Y2739557D01*
X8126206Y2702775D01*
X8112689Y2689258D01*
X8087543Y2672457D01*
X8087542Y2672455D01*
X8065330Y2639213D01*
X8065330Y2639212D01*
X8059500Y2609904D01*
X8059500Y2350105D01*
X8059500Y2350104D01*
X8059501Y2350102D01*
X8063775Y2328610D01*
X8065332Y2320784D01*
X8065332Y2320783D01*
X8087542Y2287543D01*
X8120787Y2265330D01*
X8150098Y2259500D01*
X8150101Y2259500D01*
X8769894Y2259500D01*
X8769898Y2259501D01*
X8799213Y2265331D01*
X8799214Y2265331D01*
X8799215Y2265332D01*
X8799216Y2265332D01*
X8832456Y2287542D01*
X8838545Y2296654D01*
X8842604Y2302730D01*
X8854669Y2320786D01*
X8854669Y2320787D01*
X8860499Y2350095D01*
X8860500Y2350101D01*
X8860499Y2525500D01*
X8874851Y2560148D01*
X8909499Y2574500D01*
X9002730Y2574500D01*
X9104585Y2601792D01*
X9104589Y2601793D01*
X9195913Y2654520D01*
X9265852Y2724459D01*
X9300500Y2738811D01*
X9335148Y2724459D01*
X9349500Y2689811D01*
X9349500Y-7648243D01*
X9349375Y-7651740D01*
X9332446Y-7888361D01*
X9331451Y-7895281D01*
X9281393Y-8125373D01*
X9279423Y-8132080D01*
X9197134Y-8352699D01*
X9194230Y-8359059D01*
X9081375Y-8565733D01*
X9077595Y-8571614D01*
X8936482Y-8760118D01*
X8931904Y-8765401D01*
X8765401Y-8931904D01*
X8760118Y-8936482D01*
X8571614Y-9077595D01*
X8565733Y-9081375D01*
X8359059Y-9194230D01*
X8352699Y-9197134D01*
X8132080Y-9279423D01*
X8125373Y-9281393D01*
X7942764Y-9321120D01*
X7895279Y-9331451D01*
X7888361Y-9332446D01*
X7651740Y-9349375D01*
X7648243Y-9349500D01*
X5499000Y-9349500D01*
X5464352Y-9335148D01*
X5450000Y-9300500D01*
X5450000Y-7852789D01*
X5649500Y-7852789D01*
X5649500Y-7852791D01*
X5649500Y-7852792D01*
X5649500Y-8187208D01*
X5662583Y-8252986D01*
X5712422Y-8327577D01*
X5750021Y-8352699D01*
X5787014Y-8377417D01*
X5852789Y-8390500D01*
X6147210Y-8390499D01*
X6212986Y-8377417D01*
X6287577Y-8327577D01*
X6337417Y-8252986D01*
X6340478Y-8237593D01*
X6353890Y-8212502D01*
X6370479Y-8195914D01*
X6375505Y-8187210D01*
X6423207Y-8104587D01*
X6450499Y-8002730D01*
X6450500Y-8002730D01*
X6450500Y-7897270D01*
X6450499Y-7897269D01*
X6423207Y-7795414D01*
X6423206Y-7795410D01*
X6389778Y-7737513D01*
X6370480Y-7704087D01*
X6295913Y-7629520D01*
X6295911Y-7629519D01*
X6204589Y-7576793D01*
X6204585Y-7576792D01*
X6102730Y-7549500D01*
X6102727Y-7549500D01*
X5997273Y-7549500D01*
X5997270Y-7549500D01*
X5895414Y-7576792D01*
X5895410Y-7576793D01*
X5804088Y-7629519D01*
X5742237Y-7691369D01*
X5734814Y-7697461D01*
X5712422Y-7712423D01*
X5662583Y-7787013D01*
X5662012Y-7789883D01*
X5649500Y-7852789D01*
X5450000Y-7852789D01*
X5450000Y-4950000D01*
X-7050000Y-4950000D01*
X-7050000Y-5445551D01*
X-7064352Y-5480199D01*
X-7099000Y-5494551D01*
X-7133648Y-5480199D01*
X-7141435Y-5470051D01*
X-7179520Y-5404086D01*
X-7254086Y-5329521D01*
X-7254086Y-5329520D01*
X-7345410Y-5276793D01*
X-7345414Y-5276792D01*
X-7447270Y-5249500D01*
X-7447273Y-5249500D01*
X-7552727Y-5249500D01*
X-7552729Y-5249500D01*
X-7555035Y-5250118D01*
X-7592217Y-5245224D01*
X-7615048Y-5215471D01*
X-7610154Y-5178289D01*
X-7608460Y-5175566D01*
X-7579225Y-5131812D01*
X-7579223Y-5131808D01*
X-7526420Y-5004329D01*
X-7526417Y-5004318D01*
X-7499500Y-4868998D01*
X-7499500Y-4731001D01*
X-7526417Y-4595681D01*
X-7526420Y-4595670D01*
X-7579223Y-4468192D01*
X-7655883Y-4353460D01*
X-7753455Y-4255888D01*
X-7830979Y-4204087D01*
X-7853510Y-4189031D01*
X-7868719Y-4172793D01*
X-7879520Y-4154085D01*
X-7954084Y-4079522D01*
X-7958811Y-4076793D01*
X-7992251Y-4057486D01*
X-8015081Y-4027732D01*
X-8010185Y-3990550D01*
X-7986501Y-3969781D01*
X-7939947Y-3950498D01*
X-7894607Y-3931718D01*
X-7857104Y-3931718D01*
X-7841210Y-3942338D01*
X-7526866Y-4256681D01*
X-7526865Y-4256684D01*
X-7519976Y-4263573D01*
X-7519976Y-4263574D01*
X-7463574Y-4319976D01*
X-7411466Y-4341559D01*
X-7389883Y-4350500D01*
X-7389882Y-4350500D01*
X-6686189Y-4350500D01*
X-6651541Y-4364852D01*
X-6645913Y-4370480D01*
X-6554587Y-4423207D01*
X-6452730Y-4450499D01*
X-6452730Y-4450500D01*
X-6452727Y-4450500D01*
X-6347270Y-4450500D01*
X-6347269Y-4450499D01*
X-6325747Y-4444732D01*
X-6245413Y-4423207D01*
X-6245412Y-4423206D01*
X-6245410Y-4423206D01*
X-6187513Y-4389778D01*
X-6154087Y-4370480D01*
X-6079520Y-4295913D01*
X-6056871Y-4256684D01*
X-6026793Y-4204589D01*
X-6026792Y-4204585D01*
X-5999500Y-4102730D01*
X-5999500Y-3997269D01*
X-6026792Y-3895414D01*
X-6026793Y-3895410D01*
X-6079520Y-3804086D01*
X-6154086Y-3729521D01*
X-6154086Y-3729520D01*
X-6245410Y-3676793D01*
X-6245414Y-3676792D01*
X-6347270Y-3649500D01*
X-6347273Y-3649500D01*
X-6452727Y-3649500D01*
X-6452730Y-3649500D01*
X-6554585Y-3676792D01*
X-6554589Y-3676793D01*
X-6626000Y-3718023D01*
X-6663182Y-3722918D01*
X-6692935Y-3700088D01*
X-6699500Y-3675588D01*
X-6699500Y-3402791D01*
X-6712583Y-3337013D01*
X-6762422Y-3262422D01*
X-6837013Y-3212583D01*
X-6853457Y-3209312D01*
X-6902789Y-3199500D01*
X-7047271Y-3199500D01*
X-7047273Y-3199500D01*
X-7152727Y-3199500D01*
X-7152730Y-3199500D01*
X-7197207Y-3199500D01*
X-7197210Y-3199501D01*
X-7262986Y-3212583D01*
X-7337578Y-3262423D01*
X-7352538Y-3284813D01*
X-7358632Y-3292239D01*
X-7415852Y-3349459D01*
X-7450500Y-3363811D01*
X-7485148Y-3349459D01*
X-7499500Y-3314811D01*
X-7499500Y-3231001D01*
X-7526417Y-3095681D01*
X-7526420Y-3095670D01*
X-7579223Y-2968192D01*
X-7655883Y-2853460D01*
X-7753460Y-2755883D01*
X-7827723Y-2706262D01*
X-7848559Y-2675079D01*
X-7849500Y-2665520D01*
X-7849500Y-2560116D01*
X-7880024Y-2486425D01*
X-7920537Y-2445913D01*
X-7936426Y-2430024D01*
X-8285148Y-2081302D01*
X-8299500Y-2046654D01*
X-8299500Y-1703345D01*
X-8285148Y-1668697D01*
X-8116303Y-1499852D01*
X-8081655Y-1485500D01*
X-8019300Y-1485500D01*
X-8019289Y-1485500D01*
X-8002785Y-1484201D01*
X-7944689Y-1454600D01*
X-7735400Y-1245311D01*
X-7724649Y-1232722D01*
X-7724648Y-1232721D01*
X-7712764Y-1196143D01*
X-7704500Y-1170711D01*
X-7704500Y-1070000D01*
X-7515500Y-1070000D01*
X-7515500Y-1170711D01*
X-7514201Y-1187215D01*
X-7484600Y-1245311D01*
X-7275311Y-1454600D01*
X-7262722Y-1465351D01*
X-7200711Y-1485500D01*
X-7200709Y-1485500D01*
X-7200118Y-1485692D01*
X-7171600Y-1510048D01*
X-7169988Y-1513544D01*
X-7169976Y-1513574D01*
X-7169975Y-1513575D01*
X-7164854Y-1518696D01*
X-7150500Y-1553343D01*
X-7150500Y-1565500D01*
X-7164852Y-1600148D01*
X-7199500Y-1614500D01*
X-7200711Y-1614500D01*
X-7217215Y-1615799D01*
X-7275311Y-1645400D01*
X-7484600Y-1854689D01*
X-7495351Y-1867278D01*
X-7515500Y-1929289D01*
X-7515500Y-2030000D01*
X-7510336Y-2062601D01*
X-7472011Y-2115351D01*
X-7410000Y-2135500D01*
X-7409997Y-2135500D01*
X-6950003Y-2135500D01*
X-6950000Y-2135500D01*
X-6917399Y-2130336D01*
X-6864649Y-2092011D01*
X-6844500Y-2030000D01*
X-6844500Y-1898346D01*
X-6830148Y-1863698D01*
X-6780024Y-1813574D01*
X-6766127Y-1780023D01*
X-6749500Y-1739883D01*
X-6749500Y-1449500D01*
X-6735148Y-1414852D01*
X-6700500Y-1400500D01*
X-5236189Y-1400500D01*
X-5201541Y-1414852D01*
X-5195913Y-1420480D01*
X-5104587Y-1473207D01*
X-5002730Y-1500499D01*
X-5002730Y-1500500D01*
X-5002727Y-1500500D01*
X-4897270Y-1500500D01*
X-4897269Y-1500499D01*
X-4844744Y-1486425D01*
X-4795413Y-1473207D01*
X-4795412Y-1473206D01*
X-4795410Y-1473206D01*
X-4737513Y-1439778D01*
X-4704087Y-1420480D01*
X-4629520Y-1345913D01*
X-4576793Y-1254589D01*
X-4576792Y-1254585D01*
X-4549500Y-1152730D01*
X-4549500Y-1047269D01*
X-4576792Y-945414D01*
X-4576793Y-945410D01*
X-4629520Y-854086D01*
X-4704086Y-779521D01*
X-4704086Y-779520D01*
X-4795410Y-726793D01*
X-4795414Y-726792D01*
X-4897270Y-699500D01*
X-4897273Y-699500D01*
X-5002727Y-699500D01*
X-5002730Y-699500D01*
X-5104585Y-726792D01*
X-5104589Y-726793D01*
X-5191190Y-776793D01*
X-5195913Y-779520D01*
X-5270480Y-854087D01*
X-5323207Y-945413D01*
X-5327968Y-963182D01*
X-5350797Y-992935D01*
X-5375298Y-999500D01*
X-6852233Y-999500D01*
X-6880637Y-987734D01*
X-6881710Y-989211D01*
X-6887987Y-984650D01*
X-6887988Y-984649D01*
X-6887989Y-984649D01*
X-6950000Y-964500D01*
X-7410000Y-964500D01*
X-7442601Y-969664D01*
X-7495351Y-1007989D01*
X-7515500Y-1070000D01*
X-7704500Y-1070000D01*
X-7709664Y-1037399D01*
X-7731032Y-1007989D01*
X-7747989Y-984649D01*
X-7810000Y-964500D01*
X-8270000Y-964500D01*
X-8302601Y-969664D01*
X-8355351Y-1007989D01*
X-8375500Y-1070000D01*
X-8375500Y-1070002D01*
X-8375500Y-1171654D01*
X-8389852Y-1206302D01*
X-8613573Y-1430023D01*
X-8613574Y-1430024D01*
X-8669976Y-1486426D01*
X-8700500Y-1560118D01*
X-8700500Y-2110118D01*
X-8700500Y-2189882D01*
X-8669976Y-2263574D01*
X-8387451Y-2546098D01*
X-8373100Y-2580744D01*
X-8387452Y-2615392D01*
X-8403348Y-2626014D01*
X-8531806Y-2679223D01*
X-8531811Y-2679225D01*
X-8550499Y-2691712D01*
X-8646539Y-2755883D01*
X-8744116Y-2853460D01*
X-8759758Y-2876870D01*
X-8790940Y-2897705D01*
X-8827723Y-2890389D01*
X-8848558Y-2859207D01*
X-8849500Y-2849647D01*
X-8849500Y-453346D01*
X-8835148Y-418698D01*
X-8128673Y287776D01*
X-8112777Y298398D01*
X-8082910Y310770D01*
X-8064158Y314500D01*
X-8019289Y314500D01*
X-8002785Y315799D01*
X-7944689Y345400D01*
X-7944687Y345401D01*
X-7735406Y554682D01*
X-7735403Y554686D01*
X-7724648Y567278D01*
X-7709862Y612786D01*
X-7704500Y629289D01*
X-7704500Y730000D01*
X-7706533Y742835D01*
X-7697778Y779301D01*
X-7665801Y798897D01*
X-7658136Y799500D01*
X-7560360Y799500D01*
X-7525712Y785148D01*
X-7511360Y750500D01*
X-7513758Y735359D01*
X-7515500Y730000D01*
X-7515500Y629289D01*
X-7514201Y612785D01*
X-7484600Y554689D01*
X-7275311Y345400D01*
X-7263999Y335739D01*
X-7262721Y334648D01*
X-7233023Y324999D01*
X-7200711Y314500D01*
X-7200709Y314500D01*
X-6950003Y314500D01*
X-6950000Y314500D01*
X-6917399Y319664D01*
X-6917397Y319664D01*
X-6917397Y319665D01*
X-6864649Y357989D01*
X-6862962Y363182D01*
X-6862161Y365643D01*
X-6837806Y394160D01*
X-6815561Y399500D01*
X-6188696Y399500D01*
X-6154048Y385148D01*
X-6141366Y363182D01*
X-6123207Y295414D01*
X-6123206Y295410D01*
X-6070479Y204086D01*
X-6050541Y184148D01*
X-6036189Y149500D01*
X-6050541Y114852D01*
X-6085189Y100500D01*
X-6815905Y100500D01*
X-6850553Y114852D01*
X-6855547Y120698D01*
X-6887989Y165351D01*
X-6950000Y185500D01*
X-7200711Y185500D01*
X-7217215Y184201D01*
X-7275311Y154600D01*
X-7484600Y-54689D01*
X-7495351Y-67278D01*
X-7515500Y-129289D01*
X-7515500Y-230000D01*
X-7510336Y-262601D01*
X-7472011Y-315351D01*
X-7410000Y-335500D01*
X-7409997Y-335500D01*
X-6950003Y-335500D01*
X-6950000Y-335500D01*
X-6917399Y-330336D01*
X-6889212Y-309857D01*
X-6860412Y-300500D01*
X-4460120Y-300500D01*
X-4460118Y-300500D01*
X-4386426Y-269976D01*
X-4386424Y-269974D01*
X-4386423Y-269974D01*
X-3830025Y286424D01*
X-3826301Y295413D01*
X-3816256Y319665D01*
X-3799500Y360116D01*
X-3799500Y1939883D01*
X-3830024Y2013574D01*
X-3851598Y2035148D01*
X-3886426Y2069976D01*
X-3985148Y2168698D01*
X-3999500Y2203346D01*
X-3999500Y3064811D01*
X-3985148Y3099459D01*
X-3950500Y3113811D01*
X-3915852Y3099459D01*
X-3845913Y3029520D01*
X-3754589Y2976793D01*
X-3754585Y2976792D01*
X-3652730Y2949500D01*
X-3652727Y2949500D01*
X-3547269Y2949500D01*
X-3445414Y2976792D01*
X-3445410Y2976793D01*
X-3354086Y3029520D01*
X-3354086Y3029521D01*
X-3279522Y3104084D01*
X-3279517Y3104090D01*
X-3267447Y3124999D01*
X-3237694Y3147830D01*
X-3225011Y3149500D01*
X-3060116Y3149500D01*
X-2986424Y3180025D01*
X-2084148Y4082301D01*
X-2049500Y4096653D01*
X-2014852Y4082301D01*
X-2001621Y4050361D01*
X-2000919Y4050454D01*
X-2000573Y4047831D01*
X-2000500Y4047653D01*
X-2000500Y4047271D01*
X-1994250Y4023947D01*
X-1999144Y3986765D01*
X-2006928Y3976620D01*
X-3413574Y2569976D01*
X-3469976Y2513574D01*
X-3500500Y2439882D01*
X-3500500Y2439879D01*
X-3500500Y1736189D01*
X-3514852Y1701541D01*
X-3520480Y1695913D01*
X-3573207Y1604587D01*
X-3600499Y1502730D01*
X-3600500Y1502730D01*
X-3600500Y1397270D01*
X-3600499Y1397269D01*
X-3573531Y1296621D01*
X-3573207Y1295414D01*
X-3573206Y1295410D01*
X-3520479Y1204086D01*
X-3445913Y1129520D01*
X-3354589Y1076793D01*
X-3354585Y1076792D01*
X-3252730Y1049500D01*
X-3252727Y1049500D01*
X-3147269Y1049500D01*
X-3045414Y1076792D01*
X-3045410Y1076793D01*
X-2954086Y1129520D01*
X-2954086Y1129521D01*
X-2879521Y1204086D01*
X-2879520Y1204086D01*
X-2826793Y1295410D01*
X-2826792Y1295414D01*
X-2799500Y1397269D01*
X-2799500Y1502730D01*
X-2826792Y1604585D01*
X-2826793Y1604589D01*
X-2879520Y1695913D01*
X-2954086Y1770479D01*
X-2954087Y1770480D01*
X-3006811Y1800920D01*
X-3045409Y1823205D01*
X-3045413Y1823207D01*
X-3063182Y1827968D01*
X-3092935Y1850797D01*
X-3099500Y1875298D01*
X-3099500Y2296653D01*
X-3085148Y2331301D01*
X-1723382Y3693066D01*
X-1688734Y3707418D01*
X-1676054Y3705749D01*
X-1652728Y3699500D01*
X-1652727Y3699500D01*
X-1547269Y3699500D01*
X-1445414Y3726792D01*
X-1445410Y3726793D01*
X-1354086Y3779520D01*
X-1354086Y3779521D01*
X-1279521Y3854086D01*
X-1279520Y3854086D01*
X-1226793Y3945410D01*
X-1226792Y3945414D01*
X-1199500Y4047269D01*
X-1199500Y4055233D01*
X-1185148Y4089881D01*
X-1039881Y4235148D01*
X-1005233Y4249500D01*
X-510436Y4249500D01*
X-434010Y4269979D01*
X-434008Y4269979D01*
X-365488Y4309540D01*
X-365488Y4309541D01*
X335119Y5010148D01*
X369767Y5024500D01*
X377730Y5024500D01*
X479585Y5051792D01*
X479589Y5051793D01*
X570913Y5104520D01*
X645479Y5179086D01*
X698206Y5270410D01*
X698207Y5270414D01*
X725499Y5372269D01*
X725500Y5372270D01*
X725500Y5477730D01*
X707230Y5545913D01*
X698207Y5579587D01*
X697217Y5581301D01*
X673456Y5622457D01*
X645480Y5670913D01*
X645479Y5670913D01*
X643874Y5673694D01*
X644725Y5674185D01*
X635957Y5706889D01*
X654704Y5739370D01*
X684539Y5749500D01*
X1009894Y5749500D01*
X1009898Y5749501D01*
X1039213Y5755331D01*
X1039214Y5755331D01*
X1039215Y5755332D01*
X1039216Y5755332D01*
X1072456Y5777542D01*
X1094669Y5810786D01*
X1094669Y5810787D01*
X1100499Y5840095D01*
X1100500Y5840101D01*
X1100500Y5992583D01*
X1100499Y6146652D01*
X1114851Y6181300D01*
X1119974Y6186423D01*
X1119975Y6186425D01*
X1119976Y6186426D01*
X1140799Y6236698D01*
X1167317Y6263217D01*
X1204820Y6263217D01*
X1228504Y6242448D01*
X1258839Y6189908D01*
X1276455Y6159395D01*
X1279522Y6154084D01*
X1285148Y6148459D01*
X1299500Y6113811D01*
X1299500Y5840105D01*
X1299500Y5840104D01*
X1299501Y5840102D01*
X1301605Y5829520D01*
X1305332Y5810784D01*
X1305332Y5810783D01*
X1327542Y5777543D01*
X1360786Y5755330D01*
X1365243Y5753485D01*
X1364765Y5752331D01*
X1391243Y5734638D01*
X1399500Y5707417D01*
X1399500Y4253346D01*
X1385148Y4218698D01*
X65134Y2898684D01*
X43171Y2886003D01*
X-4587Y2873207D01*
X-95913Y2820480D01*
X-170480Y2745913D01*
X-223207Y2654587D01*
X-250499Y2552730D01*
X-250500Y2552730D01*
X-250500Y2447270D01*
X-250499Y2447269D01*
X-224462Y2350095D01*
X-223207Y2345414D01*
X-223206Y2345410D01*
X-189796Y2287543D01*
X-173606Y2259501D01*
X-170479Y2254086D01*
X-95913Y2179520D01*
X-4589Y2126793D01*
X-4585Y2126792D01*
X97269Y2099500D01*
X147655Y2099500D01*
X182303Y2085148D01*
X196655Y2050500D01*
X182303Y2015852D01*
X-47124Y1786426D01*
X-268698Y1564852D01*
X-303346Y1550500D01*
X-896654Y1550500D01*
X-931302Y1564852D01*
X-1493066Y2126616D01*
X-1507418Y2161264D01*
X-1505749Y2173943D01*
X-1499500Y2197270D01*
X-1499500Y2302730D01*
X-1526792Y2404585D01*
X-1526793Y2404589D01*
X-1579520Y2495913D01*
X-1654086Y2570479D01*
X-1654087Y2570480D01*
X-1708321Y2601792D01*
X-1745410Y2623206D01*
X-1745412Y2623206D01*
X-1745413Y2623207D01*
X-1770878Y2630030D01*
X-1847270Y2650500D01*
X-1847273Y2650500D01*
X-1952727Y2650500D01*
X-1952730Y2650500D01*
X-2005260Y2636424D01*
X-2054587Y2623207D01*
X-2145913Y2570480D01*
X-2220480Y2495913D01*
X-2273207Y2404587D01*
X-2300499Y2302730D01*
X-2300500Y2302730D01*
X-2300500Y2197270D01*
X-2300499Y2197269D01*
X-2286739Y2145914D01*
X-2273207Y2095414D01*
X-2273206Y2095410D01*
X-2247277Y2050500D01*
X-2227273Y2015852D01*
X-2220479Y2004086D01*
X-2145913Y1929520D01*
X-2054589Y1876793D01*
X-2054585Y1876792D01*
X-1952730Y1849500D01*
X-1952727Y1849500D01*
X-1847270Y1849500D01*
X-1823943Y1855749D01*
X-1786761Y1850852D01*
X-1776616Y1843066D01*
X-1169976Y1236426D01*
X-1137637Y1204087D01*
X-1113574Y1180024D01*
X-1039883Y1149500D01*
X-1039882Y1149500D01*
X-160116Y1149500D01*
X-86424Y1180025D01*
X-86423Y1180025D01*
X1776616Y3043066D01*
X1811264Y3057418D01*
X1823943Y3055749D01*
X1847270Y3049500D01*
X1847653Y3049500D01*
X1847830Y3049426D01*
X1850455Y3049081D01*
X1850362Y3048377D01*
X1882301Y3035148D01*
X1896653Y3000500D01*
X1882301Y2965852D01*
X1880026Y2963577D01*
X1880025Y2963575D01*
X1880024Y2963574D01*
X1862143Y2920407D01*
X1849500Y2889883D01*
X1849500Y1860116D01*
X1880024Y1786424D01*
X1887778Y1778671D01*
X1898398Y1762776D01*
X1930024Y1686424D01*
X1930026Y1686423D01*
X2035148Y1581301D01*
X2049500Y1546653D01*
X2049500Y-1196143D01*
X2035148Y-1230791D01*
X2025000Y-1238578D01*
X1954086Y-1279520D01*
X1954086Y-1279521D01*
X1879521Y-1354086D01*
X1879520Y-1354086D01*
X1826793Y-1445410D01*
X1826792Y-1445414D01*
X1799500Y-1547269D01*
X1799500Y-1652730D01*
X1826792Y-1754585D01*
X1826793Y-1754589D01*
X1860849Y-1813574D01*
X1879520Y-1845913D01*
X1954087Y-1920480D01*
X1981218Y-1936144D01*
X2045410Y-1973206D01*
X2045412Y-1973206D01*
X2045413Y-1973207D01*
X2125747Y-1994732D01*
X2147269Y-2000499D01*
X2147270Y-2000500D01*
X2147273Y-2000500D01*
X2252730Y-2000500D01*
X2252730Y-2000499D01*
X2354587Y-1973207D01*
X2445913Y-1920480D01*
X2520480Y-1845913D01*
X2573207Y-1754587D01*
X2600499Y-1652730D01*
X2600500Y-1652730D01*
X2600500Y-1602345D01*
X2614852Y-1567697D01*
X2649500Y-1553345D01*
X2684147Y-1567696D01*
X2856332Y-1739882D01*
X3017946Y-1901496D01*
X3032298Y-1936144D01*
X3025733Y-1960644D01*
X2976793Y-2045410D01*
X2976792Y-2045414D01*
X2949500Y-2147269D01*
X2949500Y-2252730D01*
X2976792Y-2354585D01*
X2976793Y-2354589D01*
X2996026Y-2387900D01*
X3029520Y-2445913D01*
X3104087Y-2520480D01*
X3119745Y-2529520D01*
X3195410Y-2573206D01*
X3195412Y-2573206D01*
X3195413Y-2573207D01*
X3235735Y-2584011D01*
X3297269Y-2600499D01*
X3297270Y-2600500D01*
X3400500Y-2600500D01*
X3435148Y-2614852D01*
X3449500Y-2649500D01*
X3449500Y-3047654D01*
X3435148Y-3082302D01*
X3400500Y-3096654D01*
X3365852Y-3082302D01*
X3263576Y-2980025D01*
X3189883Y-2949500D01*
X3189882Y-2949500D01*
X-5561304Y-2949500D01*
X-5595952Y-2935148D01*
X-5608634Y-2913182D01*
X-5626792Y-2845414D01*
X-5626793Y-2845410D01*
X-5679520Y-2754086D01*
X-5754086Y-2679521D01*
X-5754086Y-2679520D01*
X-5845410Y-2626793D01*
X-5845414Y-2626792D01*
X-5947270Y-2599500D01*
X-5947273Y-2599500D01*
X-6052727Y-2599500D01*
X-6052730Y-2599500D01*
X-6154585Y-2626792D01*
X-6154589Y-2626793D01*
X-6238221Y-2675079D01*
X-6245913Y-2679520D01*
X-6320480Y-2754087D01*
X-6339778Y-2787513D01*
X-6373206Y-2845410D01*
X-6373206Y-2845412D01*
X-6373207Y-2845413D01*
X-6387471Y-2898647D01*
X-6400499Y-2947269D01*
X-6400500Y-2947270D01*
X-6400500Y-3052730D01*
X-6384124Y-3113843D01*
X-6373207Y-3154587D01*
X-6320480Y-3245913D01*
X-6245913Y-3320480D01*
X-6170861Y-3363811D01*
X-6154591Y-3373205D01*
X-6154587Y-3373207D01*
X-6052730Y-3400499D01*
X-6052730Y-3400500D01*
X-6052727Y-3400500D01*
X-5947270Y-3400500D01*
X-5947269Y-3400499D01*
X-5868974Y-3379520D01*
X-5845413Y-3373207D01*
X-5817454Y-3357065D01*
X-5792954Y-3350500D01*
X-3885189Y-3350500D01*
X-3850541Y-3364852D01*
X-3836189Y-3399500D01*
X-3850541Y-3434148D01*
X-3870479Y-3454086D01*
X-3923206Y-3545410D01*
X-3923206Y-3545412D01*
X-3923207Y-3545413D01*
X-3930993Y-3574471D01*
X-3950499Y-3647269D01*
X-3950500Y-3647270D01*
X-3950500Y-3714811D01*
X-3964852Y-3749459D01*
X-3999500Y-3763811D01*
X-4034148Y-3749459D01*
X-4054086Y-3729521D01*
X-4054086Y-3729520D01*
X-4145410Y-3676793D01*
X-4145414Y-3676792D01*
X-4247270Y-3649500D01*
X-4247273Y-3649500D01*
X-4352727Y-3649500D01*
X-4352730Y-3649500D01*
X-4454585Y-3676792D01*
X-4454589Y-3676793D01*
X-4545913Y-3729520D01*
X-4620479Y-3804086D01*
X-4673206Y-3895410D01*
X-4673206Y-3895412D01*
X-4673207Y-3895413D01*
X-4683549Y-3934010D01*
X-4700499Y-3997269D01*
X-4700500Y-3997270D01*
X-4700500Y-4102730D01*
X-4693321Y-4129520D01*
X-4673207Y-4204587D01*
X-4620480Y-4295913D01*
X-4545913Y-4370480D01*
X-4454587Y-4423207D01*
X-4352730Y-4450499D01*
X-4352730Y-4450500D01*
X-4352727Y-4450500D01*
X-4247270Y-4450500D01*
X-4247269Y-4450499D01*
X-4225747Y-4444732D01*
X-4145413Y-4423207D01*
X-4145412Y-4423206D01*
X-4145410Y-4423206D01*
X-4087513Y-4389778D01*
X-4054087Y-4370480D01*
X-3979520Y-4295913D01*
X-3956871Y-4256684D01*
X-3926793Y-4204589D01*
X-3926792Y-4204585D01*
X-3899500Y-4102730D01*
X-3899500Y-4035189D01*
X-3885148Y-4000541D01*
X-3850500Y-3986189D01*
X-3815852Y-4000541D01*
X-3795913Y-4020480D01*
X-3716823Y-4066142D01*
X-3705225Y-4072839D01*
X-3704587Y-4073207D01*
X-3602730Y-4100499D01*
X-3602730Y-4100500D01*
X-3602727Y-4100500D01*
X-3497270Y-4100500D01*
X-3497269Y-4100499D01*
X-3475747Y-4094732D01*
X-3395413Y-4073207D01*
X-3395412Y-4073206D01*
X-3395410Y-4073206D01*
X-3329564Y-4035189D01*
X-3304087Y-4020480D01*
X-3229520Y-3945913D01*
X-3221479Y-3931986D01*
X-3191435Y-3879948D01*
X-3161682Y-3857118D01*
X-3124500Y-3862013D01*
X-3101670Y-3891766D01*
X-3100000Y-3904448D01*
X-3100000Y-4750000D01*
X-1500000Y-4750000D01*
X-1500000Y-3550000D01*
X-3100000Y-3550000D01*
X-3101851Y-3551851D01*
X-3136499Y-3566203D01*
X-3171147Y-3551851D01*
X-3178934Y-3541703D01*
X-3229520Y-3454086D01*
X-3249459Y-3434148D01*
X-3263811Y-3399500D01*
X-3249459Y-3364852D01*
X-3214811Y-3350500D01*
X3046654Y-3350500D01*
X3081302Y-3364852D01*
X3435148Y-3718698D01*
X3449500Y-3753346D01*
X3449500Y-3859894D01*
X3449501Y-3859898D01*
X3455331Y-3889213D01*
X3455331Y-3889214D01*
X3455332Y-3889215D01*
X3455332Y-3889216D01*
X3477542Y-3922456D01*
X3477543Y-3922457D01*
X3510787Y-3944669D01*
X3540101Y-3950500D01*
X4159898Y-3950499D01*
X4189213Y-3944669D01*
X4222457Y-3922457D01*
X4244669Y-3889213D01*
X4250500Y-3859899D01*
X4250499Y-3440102D01*
X4244669Y-3410787D01*
X4244667Y-3410784D01*
X4244667Y-3410783D01*
X4222457Y-3377543D01*
X4189212Y-3355330D01*
X4159904Y-3349500D01*
X4159899Y-3349500D01*
X3653346Y-3349500D01*
X3618698Y-3335148D01*
X3517697Y-3234147D01*
X3503345Y-3199499D01*
X3517697Y-3164851D01*
X3552343Y-3150499D01*
X3563811Y-3150499D01*
X3598458Y-3164851D01*
X3604087Y-3170480D01*
X3637513Y-3189778D01*
X3695410Y-3223206D01*
X3695412Y-3223206D01*
X3695413Y-3223207D01*
X3775747Y-3244732D01*
X3797269Y-3250499D01*
X3797270Y-3250500D01*
X3797273Y-3250500D01*
X3902730Y-3250500D01*
X3902730Y-3250499D01*
X4004587Y-3223207D01*
X4095913Y-3170480D01*
X4101540Y-3164853D01*
X4136187Y-3150499D01*
X4159895Y-3150499D01*
X4159898Y-3150499D01*
X4189213Y-3144669D01*
X4222457Y-3122457D01*
X4244669Y-3089213D01*
X4250500Y-3059899D01*
X4250500Y-2853458D01*
X4250500Y-2797273D01*
X4250500Y-2793330D01*
X4250499Y-2793316D01*
X4250499Y-2640105D01*
X4250499Y-2640102D01*
X4244669Y-2610787D01*
X4244667Y-2610784D01*
X4244667Y-2610783D01*
X4222457Y-2577543D01*
X4189212Y-2555330D01*
X4159904Y-2549500D01*
X4159899Y-2549500D01*
X4136189Y-2549500D01*
X4101541Y-2535148D01*
X4095913Y-2529520D01*
X4004589Y-2476793D01*
X4004585Y-2476792D01*
X3902730Y-2449500D01*
X3902727Y-2449500D01*
X3797273Y-2449500D01*
X3797270Y-2449500D01*
X3759090Y-2459730D01*
X3721908Y-2454835D01*
X3699078Y-2425082D01*
X3703972Y-2387901D01*
X3723207Y-2354587D01*
X3750499Y-2252730D01*
X3750500Y-2252730D01*
X3750500Y-2147270D01*
X3750499Y-2147269D01*
X3740544Y-2110118D01*
X3723207Y-2045413D01*
X3723206Y-2045412D01*
X3723206Y-2045410D01*
X3681518Y-1973206D01*
X3670480Y-1954087D01*
X3595913Y-1879520D01*
X3523791Y-1837880D01*
X3513643Y-1830093D01*
X3460784Y-1777234D01*
X3460777Y-1777228D01*
X2862223Y-1178673D01*
X2851601Y-1162776D01*
X2847439Y-1152727D01*
X2819976Y-1086426D01*
X2819975Y-1086425D01*
X2819974Y-1086423D01*
X2814852Y-1081301D01*
X2800500Y-1046653D01*
X2800500Y-835189D01*
X2814852Y-800541D01*
X2849500Y-786189D01*
X2884148Y-800541D01*
X2904087Y-820480D01*
X2919745Y-829520D01*
X2995410Y-873206D01*
X2995412Y-873206D01*
X2995413Y-873207D01*
X3075747Y-894732D01*
X3097269Y-900499D01*
X3097270Y-900500D01*
X3097273Y-900500D01*
X3202730Y-900500D01*
X3202730Y-900499D01*
X3304587Y-873207D01*
X3395913Y-820480D01*
X3465852Y-750541D01*
X3500500Y-736189D01*
X3535148Y-750541D01*
X3549500Y-785189D01*
X3549500Y-813811D01*
X3535148Y-848459D01*
X3479521Y-904086D01*
X3479520Y-904086D01*
X3426793Y-995410D01*
X3426792Y-995414D01*
X3399500Y-1097269D01*
X3399500Y-1202730D01*
X3426792Y-1304585D01*
X3426793Y-1304589D01*
X3479520Y-1395913D01*
X3543260Y-1459653D01*
X3551045Y-1469797D01*
X3559540Y-1484511D01*
X3559542Y-1484513D01*
X4052993Y-1977964D01*
X4065675Y-1999929D01*
X4069978Y-2015987D01*
X4069979Y-2015991D01*
X4097451Y-2063573D01*
X4097452Y-2063574D01*
X4109540Y-2084511D01*
X4109542Y-2084513D01*
X4635148Y-2610119D01*
X4649500Y-2644767D01*
X4649500Y-2897208D01*
X4662583Y-2962986D01*
X4712423Y-3037578D01*
X4780179Y-3082850D01*
X4801015Y-3114032D01*
X4793699Y-3150814D01*
X4777458Y-3166026D01*
X4769747Y-3170479D01*
X4754084Y-3179522D01*
X4679521Y-3254086D01*
X4679520Y-3254086D01*
X4626793Y-3345410D01*
X4626792Y-3345414D01*
X4599500Y-3447269D01*
X4599500Y-3552730D01*
X4626791Y-3654582D01*
X4626792Y-3654584D01*
X4626793Y-3654587D01*
X4642936Y-3682548D01*
X4649500Y-3707045D01*
X4649500Y-3737207D01*
X4649501Y-3737210D01*
X4654792Y-3763811D01*
X4662583Y-3802986D01*
X4712422Y-3877577D01*
X4739118Y-3895414D01*
X4787014Y-3927417D01*
X4852789Y-3940500D01*
X5147210Y-3940499D01*
X5212986Y-3927417D01*
X5287577Y-3877577D01*
X5337417Y-3802986D01*
X5350500Y-3737211D01*
X5350499Y-3707046D01*
X5357065Y-3682544D01*
X5373207Y-3654587D01*
X5400499Y-3552730D01*
X5400500Y-3552730D01*
X5400500Y-3444061D01*
X5402511Y-3444061D01*
X5410549Y-3413934D01*
X5443007Y-3395148D01*
X5479243Y-3404816D01*
X5484103Y-3409074D01*
X5635148Y-3560119D01*
X5649500Y-3594767D01*
X5649500Y-3866208D01*
X5662583Y-3931986D01*
X5712423Y-4006578D01*
X5764924Y-4041657D01*
X5785760Y-4072839D01*
X5778444Y-4109621D01*
X5762205Y-4124832D01*
X5754089Y-4129518D01*
X5679521Y-4204086D01*
X5679520Y-4204086D01*
X5626793Y-4295410D01*
X5626792Y-4295414D01*
X5599500Y-4397269D01*
X5599500Y-4502730D01*
X5626791Y-4604582D01*
X5626792Y-4604584D01*
X5626793Y-4604587D01*
X5642936Y-4632548D01*
X5649500Y-4657046D01*
X5649500Y-4706207D01*
X5649501Y-4706208D01*
X5662583Y-4771986D01*
X5712422Y-4846577D01*
X5733167Y-4860438D01*
X5787014Y-4896417D01*
X5843491Y-4907650D01*
X5874672Y-4928484D01*
X5881990Y-4965266D01*
X5861155Y-4996449D01*
X5858431Y-4998143D01*
X5804093Y-5029515D01*
X5804083Y-5029522D01*
X5754291Y-5079313D01*
X5746869Y-5085405D01*
X5712422Y-5108423D01*
X5662583Y-5183013D01*
X5661217Y-5189882D01*
X5649500Y-5248789D01*
X5649500Y-5248791D01*
X5649500Y-5248792D01*
X5649500Y-5583208D01*
X5662583Y-5648986D01*
X5712422Y-5723577D01*
X5762262Y-5756878D01*
X5787014Y-5773417D01*
X5799843Y-5775968D01*
X5831025Y-5796803D01*
X5838342Y-5833586D01*
X5824931Y-5858676D01*
X5784429Y-5899177D01*
X5777004Y-5905270D01*
X5712422Y-5948422D01*
X5662583Y-6023013D01*
X5659312Y-6039457D01*
X5649500Y-6088789D01*
X5649500Y-6088791D01*
X5649500Y-6088792D01*
X5649500Y-6423208D01*
X5662583Y-6488986D01*
X5712422Y-6563577D01*
X5751787Y-6589879D01*
X5787014Y-6613417D01*
X5852789Y-6626500D01*
X6147210Y-6626499D01*
X6212986Y-6613417D01*
X6287577Y-6563577D01*
X6337417Y-6488986D01*
X6337417Y-6488981D01*
X6339264Y-6484526D01*
X6340276Y-6484945D01*
X6350411Y-6465981D01*
X6420480Y-6395913D01*
X6473207Y-6304587D01*
X6485594Y-6258356D01*
X6495548Y-6221210D01*
X7000000Y-6221210D01*
X7000000Y-6378789D01*
X7030742Y-6533348D01*
X7030744Y-6533354D01*
X7091048Y-6678940D01*
X7166586Y-6791991D01*
X7658578Y-6300000D01*
X7658578Y-6299999D01*
X7166586Y-5808007D01*
X7166585Y-5808007D01*
X7091050Y-5921055D01*
X7030744Y-6066645D01*
X7030742Y-6066651D01*
X7000000Y-6221210D01*
X6495548Y-6221210D01*
X6499592Y-6206118D01*
X6499592Y-6206116D01*
X6500500Y-6202727D01*
X6500500Y-6097270D01*
X6500499Y-6097269D01*
X6480654Y-6023206D01*
X6473207Y-5995413D01*
X6473206Y-5995412D01*
X6473206Y-5995410D01*
X6420479Y-5904086D01*
X6345915Y-5829522D01*
X6345913Y-5829520D01*
X6307112Y-5807118D01*
X6297066Y-5801318D01*
X6274236Y-5771564D01*
X6279132Y-5734382D01*
X6286923Y-5724231D01*
X6287574Y-5723579D01*
X6287577Y-5723577D01*
X6337417Y-5648986D01*
X6337417Y-5648983D01*
X6339264Y-5644527D01*
X6339788Y-5644744D01*
X6350765Y-5624204D01*
X6890460Y-5084511D01*
X6930022Y-5015988D01*
X6950499Y-4939565D01*
X6950500Y-4939565D01*
X6950500Y-4010437D01*
X6946972Y-3997271D01*
X6930022Y-3934012D01*
X6930021Y-3934010D01*
X6904157Y-3889213D01*
X6890460Y-3865489D01*
X6609619Y-3584648D01*
X6595267Y-3550000D01*
X6609619Y-3515352D01*
X6810160Y-3314811D01*
X7036316Y-3088654D01*
X7070963Y-3074303D01*
X7105611Y-3088655D01*
X7119963Y-3123303D01*
X7119022Y-3132862D01*
X7114672Y-3154732D01*
X7099502Y-3231001D01*
X7099500Y-3231009D01*
X7099500Y-3368998D01*
X7126417Y-3504318D01*
X7126420Y-3504329D01*
X7163881Y-3594767D01*
X7179225Y-3631811D01*
X7194444Y-3654588D01*
X7255883Y-3746539D01*
X7353460Y-3844116D01*
X7385446Y-3865488D01*
X7468189Y-3920775D01*
X7595672Y-3973580D01*
X7595678Y-3973581D01*
X7595681Y-3973582D01*
X7731001Y-4000499D01*
X7731007Y-4000500D01*
X7868993Y-4000500D01*
X8004328Y-3973580D01*
X8131811Y-3920775D01*
X8246542Y-3844114D01*
X8344114Y-3746542D01*
X8359757Y-3723129D01*
X8390940Y-3702294D01*
X8427722Y-3709609D01*
X8448558Y-3740792D01*
X8449500Y-3750352D01*
X8449500Y-4349647D01*
X8435148Y-4384295D01*
X8400500Y-4398647D01*
X8365852Y-4384295D01*
X8359758Y-4376870D01*
X8344116Y-4353460D01*
X8246539Y-4255883D01*
X8169765Y-4204585D01*
X8131811Y-4179225D01*
X8131808Y-4179223D01*
X8131807Y-4179223D01*
X8004329Y-4126420D01*
X8004318Y-4126417D01*
X7868998Y-4099500D01*
X7868993Y-4099500D01*
X7731007Y-4099500D01*
X7731001Y-4099500D01*
X7595681Y-4126417D01*
X7595670Y-4126420D01*
X7468192Y-4179223D01*
X7353460Y-4255883D01*
X7255883Y-4353460D01*
X7179223Y-4468192D01*
X7126420Y-4595670D01*
X7126417Y-4595681D01*
X7099500Y-4731001D01*
X7099500Y-4868998D01*
X7126417Y-5004318D01*
X7126420Y-5004329D01*
X7160003Y-5085405D01*
X7179225Y-5131811D01*
X7179226Y-5131812D01*
X7255883Y-5246539D01*
X7353460Y-5344116D01*
X7399102Y-5374613D01*
X7468189Y-5420775D01*
X7540870Y-5450880D01*
X7567389Y-5477398D01*
X7567389Y-5514901D01*
X7540871Y-5541420D01*
X7421056Y-5591050D01*
X7308007Y-5666585D01*
X7308007Y-5666586D01*
X7799999Y-6158578D01*
X8291991Y-5666586D01*
X8178940Y-5591048D01*
X8059128Y-5541420D01*
X8032610Y-5514901D01*
X8032610Y-5477398D01*
X8059127Y-5450881D01*
X8131811Y-5420775D01*
X8246542Y-5344114D01*
X8344114Y-5246542D01*
X8359757Y-5223129D01*
X8390940Y-5202294D01*
X8427722Y-5209609D01*
X8448558Y-5240792D01*
X8449500Y-5250352D01*
X8449500Y-5771623D01*
X8435148Y-5806271D01*
X7870711Y-6370711D01*
X7308007Y-6933412D01*
X7308007Y-6933413D01*
X7421059Y-7008951D01*
X7566645Y-7069255D01*
X7566651Y-7069257D01*
X7721210Y-7100000D01*
X7878790Y-7100000D01*
X8033348Y-7069257D01*
X8035653Y-7068558D01*
X8036070Y-7069935D01*
X8069203Y-7069900D01*
X8095750Y-7096390D01*
X8099500Y-7115190D01*
X8099500Y-7646653D01*
X8085148Y-7681301D01*
X7881300Y-7885148D01*
X7846652Y-7899500D01*
X7652791Y-7899500D01*
X7587013Y-7912583D01*
X7512422Y-7962422D01*
X7462580Y-8037018D01*
X7461242Y-8040248D01*
X7434720Y-8066763D01*
X7397217Y-8066757D01*
X7373540Y-8045990D01*
X7348562Y-8002727D01*
X7320480Y-7954087D01*
X7245913Y-7879520D01*
X7245911Y-7879519D01*
X7154589Y-7826793D01*
X7154585Y-7826792D01*
X7052730Y-7799500D01*
X7052727Y-7799500D01*
X6947273Y-7799500D01*
X6947270Y-7799500D01*
X6845414Y-7826792D01*
X6845410Y-7826793D01*
X6754086Y-7879519D01*
X6754084Y-7879520D01*
X6739975Y-7893629D01*
X6714890Y-7907037D01*
X6687016Y-7912582D01*
X6687013Y-7912583D01*
X6612422Y-7962422D01*
X6562583Y-8037013D01*
X6562583Y-8037014D01*
X6549500Y-8102789D01*
X6549500Y-8102791D01*
X6549500Y-8102792D01*
X6549500Y-8437208D01*
X6562583Y-8502986D01*
X6612422Y-8577577D01*
X6639809Y-8595876D01*
X6687014Y-8627417D01*
X6752789Y-8640500D01*
X7047210Y-8640499D01*
X7112986Y-8627417D01*
X7187577Y-8577577D01*
X7206703Y-8548952D01*
X7222943Y-8533742D01*
X7245906Y-8520484D01*
X7245905Y-8520484D01*
X7245913Y-8520480D01*
X7320480Y-8445913D01*
X7358066Y-8380810D01*
X7387818Y-8357982D01*
X7425000Y-8362877D01*
X7447830Y-8392630D01*
X7449500Y-8405311D01*
X7449500Y-8437207D01*
X7462583Y-8502986D01*
X7512422Y-8577577D01*
X7539809Y-8595876D01*
X7587014Y-8627417D01*
X7652789Y-8640500D01*
X7947210Y-8640499D01*
X8012986Y-8627417D01*
X8087577Y-8577577D01*
X8137417Y-8502986D01*
X8150500Y-8437211D01*
X8150499Y-8203345D01*
X8164851Y-8168698D01*
X8469974Y-7863576D01*
X8469974Y-7863575D01*
X8469976Y-7863574D01*
X8500500Y-7789882D01*
X8500500Y-7710118D01*
X8500500Y-7153346D01*
X8514852Y-7118698D01*
X8669974Y-6963576D01*
X8669976Y-6963574D01*
X8700500Y-6889882D01*
X8700500Y-6889881D01*
X8701601Y-6887223D01*
X8712223Y-6871325D01*
X8713572Y-6869976D01*
X8713574Y-6869976D01*
X8769976Y-6813574D01*
X8800500Y-6739882D01*
X8800500Y-6703346D01*
X8814852Y-6668698D01*
X8814854Y-6668696D01*
X8819976Y-6663574D01*
X8850500Y-6589882D01*
X8850500Y-6510118D01*
X8850500Y1189882D01*
X8819976Y1263574D01*
X8806932Y1276617D01*
X8792580Y1311264D01*
X8794250Y1323948D01*
X8800500Y1347271D01*
X8800500Y1452730D01*
X8782481Y1519976D01*
X8773207Y1554587D01*
X8720480Y1645913D01*
X8645913Y1720480D01*
X8554587Y1773207D01*
X8505260Y1786424D01*
X8452730Y1800500D01*
X8452727Y1800500D01*
X8347273Y1800500D01*
X8347270Y1800500D01*
X8270878Y1780030D01*
X8245413Y1773207D01*
X8245412Y1773206D01*
X8245410Y1773206D01*
X8197274Y1745414D01*
X8154087Y1720480D01*
X8154086Y1720479D01*
X8079520Y1645913D01*
X8026793Y1554589D01*
X8026792Y1554585D01*
X7999500Y1452730D01*
X7999500Y1347269D01*
X8026792Y1245414D01*
X8026793Y1245410D01*
X8079520Y1154086D01*
X8154086Y1079521D01*
X8154086Y1079520D01*
X8245410Y1026793D01*
X8245414Y1026792D01*
X8347269Y999500D01*
X8347273Y999500D01*
X8400500Y999500D01*
X8435148Y985148D01*
X8449500Y950500D01*
X8449500Y219499D01*
X8435148Y184851D01*
X8400502Y170499D01*
X8255186Y170499D01*
X8220540Y184851D01*
X8206188Y219499D01*
X8220540Y254147D01*
X8270479Y304086D01*
X8270482Y304090D01*
X8294334Y345403D01*
X8323206Y395410D01*
X8323207Y395414D01*
X8334197Y436427D01*
X8350499Y497269D01*
X8350500Y497270D01*
X8350500Y602730D01*
X8334124Y663843D01*
X8323207Y704587D01*
X8270480Y795913D01*
X8195913Y870480D01*
X8104587Y923207D01*
X8059339Y935331D01*
X8002730Y950500D01*
X8002727Y950500D01*
X7897273Y950500D01*
X7897270Y950500D01*
X7824508Y931003D01*
X7795413Y923207D01*
X7795412Y923206D01*
X7795410Y923206D01*
X7757990Y901601D01*
X7704087Y870480D01*
X7704086Y870479D01*
X7629522Y795915D01*
X7629517Y795909D01*
X7617447Y775001D01*
X7587694Y752170D01*
X7575011Y750500D01*
X7453346Y750500D01*
X7418698Y764852D01*
X7313576Y869974D01*
X7313574Y869976D01*
X7239882Y900500D01*
X7239881Y900500D01*
X7237223Y901601D01*
X7221328Y912221D01*
X7044850Y1088698D01*
X7030499Y1123346D01*
X7030499Y1639895D01*
X7030499Y1639898D01*
X7024669Y1669213D01*
X7002457Y1702457D01*
X6969213Y1724669D01*
X6939899Y1730500D01*
X6680102Y1730499D01*
X6650787Y1724669D01*
X6650784Y1724667D01*
X6650783Y1724667D01*
X6617543Y1702457D01*
X6600741Y1677311D01*
X6569558Y1656475D01*
X6532776Y1663792D01*
X6519258Y1677311D01*
X6502457Y1702457D01*
X6469213Y1724669D01*
X6439899Y1730500D01*
X6180102Y1730499D01*
X6150787Y1724669D01*
X6150784Y1724667D01*
X6150783Y1724667D01*
X6117543Y1702457D01*
X6100741Y1677311D01*
X6069558Y1656475D01*
X6032776Y1663792D01*
X6019258Y1677311D01*
X6002457Y1702457D01*
X5969213Y1724669D01*
X5939899Y1730500D01*
X5680102Y1730499D01*
X5650787Y1724669D01*
X5650784Y1724667D01*
X5650783Y1724667D01*
X5617543Y1702457D01*
X5595330Y1669213D01*
X5595330Y1669212D01*
X5589500Y1639904D01*
X5589500Y1599500D01*
X5575148Y1564852D01*
X5540500Y1550500D01*
X4355292Y1550500D01*
X4355292Y1551881D01*
X4324395Y1558023D01*
X4303557Y1589204D01*
X4310869Y1625987D01*
X4316966Y1633416D01*
X4928698Y2245148D01*
X4963346Y2259500D01*
X5469894Y2259500D01*
X5469898Y2259501D01*
X5499213Y2265331D01*
X5499214Y2265331D01*
X5499215Y2265332D01*
X5499216Y2265332D01*
X5532456Y2287542D01*
X5538545Y2296654D01*
X5542604Y2302730D01*
X5554669Y2320786D01*
X5554669Y2320787D01*
X5560499Y2350095D01*
X5560500Y2350101D01*
X5560499Y2609898D01*
X5554669Y2639213D01*
X5532457Y2672457D01*
X5499213Y2694669D01*
X5469899Y2700500D01*
X5199630Y2700499D01*
X5199627Y2700500D01*
X5190489Y2700500D01*
X5178280Y2702481D01*
X5175572Y2702823D01*
X5175568Y2702822D01*
X5175568Y2702823D01*
X5144616Y2700623D01*
X5141142Y2700500D01*
X4856174Y2700500D01*
X4856162Y2700499D01*
X4850102Y2700499D01*
X4820787Y2694669D01*
X4820784Y2694667D01*
X4820783Y2694667D01*
X4787543Y2672457D01*
X4787475Y2672355D01*
X4781383Y2664933D01*
X3886426Y1769976D01*
X3852639Y1736189D01*
X3830024Y1713574D01*
X3799500Y1639883D01*
X3799500Y1553346D01*
X3785148Y1518698D01*
X3686426Y1419976D01*
X3652856Y1386406D01*
X3630024Y1363574D01*
X3598398Y1287223D01*
X3587776Y1271327D01*
X3580026Y1263577D01*
X3580025Y1263575D01*
X3580024Y1263574D01*
X3570211Y1239882D01*
X3549500Y1189883D01*
X3549500Y-214811D01*
X3535148Y-249459D01*
X3500500Y-263811D01*
X3465852Y-249459D01*
X3395913Y-179520D01*
X3304589Y-126793D01*
X3304585Y-126792D01*
X3202730Y-99500D01*
X3202727Y-99500D01*
X3199500Y-99500D01*
X3164852Y-85148D01*
X3150500Y-50500D01*
X3150500Y2000500D01*
X3164852Y2035148D01*
X3199499Y2049500D01*
X3259894Y2049500D01*
X3259898Y2049501D01*
X3289213Y2055331D01*
X3289214Y2055331D01*
X3289215Y2055332D01*
X3289216Y2055332D01*
X3322456Y2077542D01*
X3344669Y2110786D01*
X3344669Y2110787D01*
X3350499Y2140095D01*
X3350500Y2140101D01*
X3350499Y2559898D01*
X3344669Y2589213D01*
X3322457Y2622457D01*
X3289213Y2644669D01*
X3259899Y2650500D01*
X2752344Y2650499D01*
X2717697Y2664851D01*
X2703345Y2699499D01*
X2717697Y2734147D01*
X3419974Y3436423D01*
X3419975Y3436425D01*
X3419976Y3436426D01*
X3450500Y3510118D01*
X3451601Y3512776D01*
X3462223Y3528673D01*
X3760777Y3827228D01*
X3760781Y3827231D01*
X3760781Y3827232D01*
X3763572Y3830023D01*
X3763574Y3830024D01*
X3819976Y3886426D01*
X3850500Y3960118D01*
X3850500Y4097653D01*
X3864852Y4132301D01*
X3899500Y4146653D01*
X3934148Y4132301D01*
X4736425Y3330023D01*
X4754126Y3322691D01*
X4776115Y3304645D01*
X4787540Y3287545D01*
X4787543Y3287542D01*
X4820787Y3265330D01*
X4850098Y3259500D01*
X4850101Y3259500D01*
X5469894Y3259500D01*
X5469898Y3259501D01*
X5499213Y3265331D01*
X5499214Y3265331D01*
X5499215Y3265332D01*
X5499216Y3265332D01*
X5532456Y3287542D01*
X5554669Y3320786D01*
X5554669Y3320787D01*
X5560499Y3350095D01*
X5560500Y3350101D01*
X5560499Y3609898D01*
X5554669Y3639213D01*
X5532457Y3672457D01*
X5499213Y3694669D01*
X5469899Y3700500D01*
X5190490Y3700499D01*
X5178299Y3702478D01*
X5175572Y3702821D01*
X5175568Y3702823D01*
X5147046Y3700795D01*
X5144606Y3700622D01*
X5141132Y3700499D01*
X4953346Y3700499D01*
X4918698Y3714851D01*
X3922287Y4711262D01*
X2914851Y5718698D01*
X2900500Y5753345D01*
X2900500Y5930211D01*
X4649500Y5930211D01*
X4649500Y5930208D01*
X4649500Y5930207D01*
X4649500Y5595791D01*
X4662583Y5530013D01*
X4712422Y5455422D01*
X4787013Y5405583D01*
X4794912Y5404012D01*
X4852789Y5392500D01*
X4852791Y5392500D01*
X4852792Y5392500D01*
X5147216Y5392500D01*
X5148499Y5392627D01*
X5148914Y5392500D01*
X5149617Y5392501D01*
X5149617Y5392287D01*
X5184385Y5381732D01*
X5187939Y5378510D01*
X5480024Y5086426D01*
X5494641Y5071809D01*
X5536425Y5030024D01*
X5610116Y4999500D01*
X5610118Y4999500D01*
X5946654Y4999500D01*
X5981302Y4985148D01*
X6075148Y4891301D01*
X6089500Y4856653D01*
X6089500Y4320105D01*
X6089500Y4320104D01*
X6089501Y4320102D01*
X6094253Y4296207D01*
X6095332Y4290784D01*
X6095332Y4290783D01*
X6117542Y4257543D01*
X6150787Y4235330D01*
X6180098Y4229500D01*
X6180101Y4229500D01*
X6439894Y4229500D01*
X6439898Y4229501D01*
X6469213Y4235331D01*
X6469214Y4235331D01*
X6469215Y4235332D01*
X6469216Y4235332D01*
X6502456Y4257542D01*
X6519258Y4282688D01*
X6550440Y4303523D01*
X6587223Y4296207D01*
X6600742Y4282688D01*
X6617543Y4257543D01*
X6650787Y4235330D01*
X6680098Y4229500D01*
X6680101Y4229500D01*
X6939894Y4229500D01*
X6939898Y4229501D01*
X6969213Y4235331D01*
X6969214Y4235331D01*
X6969215Y4235332D01*
X6969216Y4235332D01*
X7002456Y4257542D01*
X7019258Y4282688D01*
X7050440Y4303523D01*
X7087223Y4296207D01*
X7100742Y4282688D01*
X7117543Y4257543D01*
X7150787Y4235330D01*
X7180098Y4229500D01*
X7180101Y4229500D01*
X7439894Y4229500D01*
X7439898Y4229501D01*
X7469213Y4235331D01*
X7469214Y4235331D01*
X7469215Y4235332D01*
X7469216Y4235332D01*
X7502456Y4257542D01*
X7519258Y4282688D01*
X7550440Y4303523D01*
X7587223Y4296207D01*
X7600742Y4282688D01*
X7617543Y4257543D01*
X7650787Y4235330D01*
X7680098Y4229500D01*
X7680101Y4229500D01*
X7939894Y4229500D01*
X7939898Y4229501D01*
X7969213Y4235331D01*
X7969214Y4235331D01*
X7969215Y4235332D01*
X7969216Y4235332D01*
X8002456Y4257542D01*
X8024669Y4290786D01*
X8024669Y4290787D01*
X8030499Y4320095D01*
X8030500Y4320101D01*
X8030499Y4939898D01*
X8024669Y4969213D01*
X8002457Y5002457D01*
X7969213Y5024669D01*
X7939899Y5030500D01*
X7680102Y5030499D01*
X7650787Y5024669D01*
X7650784Y5024667D01*
X7650783Y5024667D01*
X7617543Y5002457D01*
X7600741Y4977311D01*
X7569558Y4956475D01*
X7532776Y4963792D01*
X7519258Y4977311D01*
X7502457Y5002457D01*
X7469213Y5024669D01*
X7439899Y5030500D01*
X7180102Y5030499D01*
X7150787Y5024669D01*
X7150784Y5024667D01*
X7150783Y5024667D01*
X7117543Y5002457D01*
X7100741Y4977311D01*
X7069558Y4956475D01*
X7032776Y4963792D01*
X7019258Y4977311D01*
X7008755Y4993029D01*
X7000500Y5020249D01*
X7000500Y5371049D01*
X7014852Y5405697D01*
X7022277Y5411791D01*
X7087577Y5455422D01*
X7137416Y5530013D01*
X7137417Y5530014D01*
X7150500Y5595789D01*
X7150499Y5930210D01*
X7137417Y5995986D01*
X7087577Y6070577D01*
X7012986Y6120417D01*
X6947211Y6133500D01*
X6652790Y6133499D01*
X6587014Y6120417D01*
X6572075Y6110435D01*
X6512422Y6070577D01*
X6462583Y5995986D01*
X6462582Y5995982D01*
X6461380Y5989940D01*
X6440544Y5958758D01*
X6413322Y5950500D01*
X6286678Y5950500D01*
X6252030Y5964852D01*
X6238620Y5989940D01*
X6237903Y5993543D01*
X6237417Y5995986D01*
X6187577Y6070577D01*
X6112986Y6120417D01*
X6047211Y6133500D01*
X5835344Y6133499D01*
X5800697Y6147851D01*
X5786345Y6182499D01*
X5800697Y6217147D01*
X5801698Y6218148D01*
X5836346Y6232500D01*
X6047208Y6232500D01*
X6112986Y6245583D01*
X6187577Y6295422D01*
X6237416Y6370013D01*
X6237417Y6370014D01*
X6250500Y6435789D01*
X6250499Y6770210D01*
X6237417Y6835986D01*
X6187577Y6910577D01*
X6112986Y6960417D01*
X6047211Y6973500D01*
X5752790Y6973499D01*
X5687014Y6960417D01*
X5672172Y6950500D01*
X5612422Y6910577D01*
X5568882Y6845413D01*
X5562583Y6835986D01*
X5549500Y6770211D01*
X5549500Y6770208D01*
X5549500Y6770207D01*
X5549500Y6553346D01*
X5535148Y6518698D01*
X5286426Y6269976D01*
X5254226Y6237776D01*
X5230024Y6213574D01*
X5208466Y6161528D01*
X5181947Y6135010D01*
X5153636Y6132222D01*
X5147211Y6133500D01*
X4852790Y6133499D01*
X4787014Y6120417D01*
X4772075Y6110435D01*
X4712422Y6070577D01*
X4668021Y6004125D01*
X4662583Y5995986D01*
X4649500Y5930211D01*
X2900500Y5930211D01*
X2900500Y6446654D01*
X2914852Y6481302D01*
X3210777Y6777228D01*
X3210781Y6777231D01*
X3210781Y6777232D01*
X3213572Y6780023D01*
X3213574Y6780024D01*
X3269976Y6836426D01*
X3292118Y6889882D01*
X3300500Y6910117D01*
X3300500Y6989882D01*
X3300500Y6989883D01*
X3300500Y7088049D01*
X3314852Y7122697D01*
X3322277Y7128791D01*
X3387577Y7172422D01*
X3429431Y7235062D01*
X3437417Y7247014D01*
X3450500Y7312789D01*
X3450499Y7647210D01*
X3437417Y7712986D01*
X3387577Y7787577D01*
X3312986Y7837417D01*
X3247211Y7850500D01*
X2952790Y7850499D01*
X2887014Y7837417D01*
X2881616Y7833810D01*
X2812422Y7787577D01*
X2763830Y7714852D01*
X2762583Y7712986D01*
X2749500Y7647211D01*
X2749500Y7647208D01*
X2749500Y7647207D01*
X2749500Y7335188D01*
X2735148Y7300540D01*
X2700500Y7286188D01*
X2665853Y7300539D01*
X2645913Y7320480D01*
X2554587Y7373207D01*
X2513843Y7384124D01*
X2452730Y7400500D01*
X2452727Y7400500D01*
X2347273Y7400500D01*
X2347270Y7400500D01*
X2270878Y7380030D01*
X2245413Y7373207D01*
X2245412Y7373206D01*
X2245410Y7373206D01*
X2209715Y7352597D01*
X2154087Y7320480D01*
X2154086Y7320479D01*
X2079520Y7245913D01*
X2026793Y7154589D01*
X2026792Y7154585D01*
X1999500Y7052730D01*
X1999500Y6947269D01*
X2026792Y6845414D01*
X2026793Y6845410D01*
X2079520Y6754086D01*
X2135148Y6698459D01*
X2149500Y6663811D01*
X2149500Y5410116D01*
X2180025Y5336424D01*
X2982301Y4534148D01*
X2996653Y4499500D01*
X2982301Y4464852D01*
X2947653Y4450500D01*
X2897270Y4450500D01*
X2836223Y4434142D01*
X2795413Y4423207D01*
X2795412Y4423206D01*
X2795410Y4423206D01*
X2737513Y4389778D01*
X2704087Y4370480D01*
X2704086Y4370479D01*
X2629520Y4295913D01*
X2576793Y4204589D01*
X2576792Y4204585D01*
X2549500Y4102730D01*
X2549500Y3997269D01*
X2576792Y3895414D01*
X2576793Y3895410D01*
X2629515Y3804093D01*
X2629519Y3804088D01*
X2640382Y3793225D01*
X2654732Y3758576D01*
X2640380Y3723930D01*
X2384148Y3467698D01*
X2349500Y3453346D01*
X2314852Y3467698D01*
X2301621Y3499638D01*
X2300919Y3499546D01*
X2300574Y3502167D01*
X2300500Y3502346D01*
X2300500Y3502730D01*
X2281055Y3575298D01*
X2273207Y3604587D01*
X2270142Y3609895D01*
X2253216Y3639212D01*
X2220480Y3695913D01*
X2145913Y3770480D01*
X2066823Y3816142D01*
X2054589Y3823206D01*
X2054588Y3823206D01*
X2054587Y3823207D01*
X2013843Y3834124D01*
X1952730Y3850500D01*
X1952727Y3850500D01*
X1847273Y3850500D01*
X1847270Y3850500D01*
X1770878Y3830030D01*
X1745413Y3823207D01*
X1745412Y3823206D01*
X1745410Y3823206D01*
X1692215Y3792493D01*
X1654087Y3770480D01*
X1654086Y3770479D01*
X1579520Y3695913D01*
X1526793Y3604589D01*
X1526792Y3604585D01*
X1499500Y3502730D01*
X1499500Y3397270D01*
X1505749Y3373943D01*
X1500852Y3336761D01*
X1493066Y3326616D01*
X634148Y2467698D01*
X599500Y2453346D01*
X564852Y2467698D01*
X550500Y2502346D01*
X550500Y2552730D01*
X528074Y2636423D01*
X523207Y2654587D01*
X492566Y2707657D01*
X487671Y2744838D01*
X500354Y2766804D01*
X1769974Y4036423D01*
X1769974Y4036424D01*
X1769976Y4036426D01*
X1800500Y4110118D01*
X1800500Y4189882D01*
X1800500Y5707417D01*
X1814852Y5742065D01*
X1835021Y5752847D01*
X1834757Y5753486D01*
X1839216Y5755332D01*
X1872456Y5777542D01*
X1894669Y5810786D01*
X1894669Y5810787D01*
X1900499Y5840095D01*
X1900500Y5840101D01*
X1900500Y5976869D01*
X1900499Y6113811D01*
X1914851Y6148458D01*
X1920479Y6154086D01*
X1923545Y6159395D01*
X1957466Y6218148D01*
X1973206Y6245410D01*
X1973207Y6245414D01*
X1973253Y6245583D01*
X2000499Y6347269D01*
X2000500Y6347270D01*
X2000500Y6452730D01*
X1978978Y6533050D01*
X1973207Y6554587D01*
X1920480Y6645913D01*
X1845913Y6720480D01*
X1759783Y6770207D01*
X1754589Y6773206D01*
X1754588Y6773206D01*
X1754587Y6773207D01*
X1709821Y6785202D01*
X1652730Y6800500D01*
X1652727Y6800500D01*
X1549500Y6800500D01*
X1514852Y6814852D01*
X1500500Y6849500D01*
X1500500Y7088049D01*
X1514852Y7122697D01*
X1522277Y7128791D01*
X1587577Y7172422D01*
X1629431Y7235062D01*
X1637417Y7247014D01*
X1650500Y7312789D01*
X1650499Y7647210D01*
X1637417Y7712986D01*
X1587577Y7787577D01*
X1512986Y7837417D01*
X1447211Y7850500D01*
X1152790Y7850499D01*
X1087014Y7837417D01*
X1081616Y7833810D01*
X1012422Y7787577D01*
X963830Y7714852D01*
X962583Y7712986D01*
X949500Y7647211D01*
X949500Y7647208D01*
X949500Y7647207D01*
X949500Y7312791D01*
X962583Y7247013D01*
X1012422Y7172422D01*
X1077723Y7128791D01*
X1098558Y7097609D01*
X1099500Y7088049D01*
X1099500Y6953346D01*
X1085148Y6918698D01*
X836426Y6669976D01*
X780024Y6613574D01*
X766425Y6580745D01*
X739908Y6554229D01*
X721157Y6550499D01*
X685188Y6550499D01*
X650540Y6564851D01*
X636188Y6599499D01*
X650540Y6634147D01*
X720479Y6704086D01*
X722403Y6707417D01*
X749347Y6754086D01*
X773206Y6795410D01*
X773207Y6795414D01*
X775168Y6802730D01*
X800499Y6897269D01*
X800500Y6897270D01*
X800500Y7002730D01*
X775736Y7095148D01*
X773207Y7104587D01*
X727737Y7183342D01*
X722842Y7220522D01*
X729432Y7235064D01*
X737416Y7247012D01*
X737416Y7247013D01*
X737417Y7247014D01*
X750500Y7312789D01*
X750499Y7647210D01*
X737417Y7712986D01*
X687577Y7787577D01*
X612986Y7837417D01*
X547211Y7850500D01*
X252790Y7850499D01*
X187014Y7837417D01*
X181616Y7833810D01*
X112422Y7787577D01*
X63830Y7714852D01*
X62583Y7712986D01*
X49500Y7647211D01*
X49500Y7647208D01*
X49500Y7647207D01*
X49500Y7312791D01*
X62583Y7247014D01*
X70569Y7235062D01*
X77884Y7198279D01*
X72261Y7183340D01*
X26793Y7104589D01*
X26792Y7104585D01*
X-499Y7002730D01*
X-500Y7002730D01*
X-500Y6897270D01*
X-499Y6897269D01*
X26792Y6795414D01*
X26793Y6795410D01*
X79520Y6704086D01*
X154086Y6629521D01*
X154086Y6629520D01*
X245410Y6576793D01*
X245414Y6576792D01*
X347269Y6549500D01*
X455939Y6549500D01*
X455939Y6548059D01*
X487506Y6539588D01*
X506244Y6507102D01*
X505719Y6491167D01*
X499500Y6459904D01*
X499500Y5856729D01*
X485148Y5822081D01*
X450500Y5807729D01*
X437818Y5809399D01*
X377730Y5825500D01*
X377727Y5825500D01*
X272273Y5825500D01*
X272270Y5825500D01*
X195878Y5805030D01*
X170413Y5798207D01*
X170412Y5798206D01*
X170410Y5798206D01*
X133321Y5776792D01*
X79087Y5745480D01*
X79086Y5745479D01*
X4520Y5670913D01*
X-47217Y5581301D01*
X-48207Y5579587D01*
X-75499Y5477730D01*
X-75500Y5477730D01*
X-75500Y5469767D01*
X-89852Y5435119D01*
X-660119Y4864852D01*
X-694767Y4850500D01*
X-857616Y4850500D01*
X-892264Y4864852D01*
X-906616Y4899500D01*
X-905674Y4909059D01*
X-899500Y4940095D01*
X-899500Y5559894D01*
X-899501Y5559895D01*
X-899501Y5559898D01*
X-905331Y5589213D01*
X-905332Y5589215D01*
X-905332Y5589216D01*
X-927542Y5622456D01*
X-948449Y5636425D01*
X-960787Y5644669D01*
X-990101Y5650500D01*
X-1214812Y5650499D01*
X-1249459Y5664851D01*
X-1263811Y5699499D01*
X-1249459Y5734147D01*
X-1179518Y5804088D01*
X-1177509Y5807569D01*
X-1147754Y5830396D01*
X-1110572Y5825496D01*
X-1094335Y5810287D01*
X-1072457Y5777543D01*
X-1062595Y5770954D01*
X-1039212Y5755330D01*
X-1009901Y5749500D01*
X-1009899Y5749500D01*
X-590105Y5749500D01*
X-590104Y5749500D01*
X-590102Y5749501D01*
X-560787Y5755331D01*
X-560786Y5755331D01*
X-560784Y5755332D01*
X-560783Y5755332D01*
X-527543Y5777542D01*
X-505330Y5810786D01*
X-505330Y5810787D01*
X-499500Y5840095D01*
X-499500Y6459894D01*
X-500500Y6464921D01*
X-505331Y6489213D01*
X-505332Y6489215D01*
X-505676Y6490941D01*
X-498358Y6527724D01*
X-467176Y6548559D01*
X-457617Y6549500D01*
X-447269Y6549500D01*
X-345414Y6576792D01*
X-345410Y6576793D01*
X-254086Y6629520D01*
X-254086Y6629521D01*
X-179521Y6704086D01*
X-179520Y6704086D01*
X-126793Y6795410D01*
X-126792Y6795414D01*
X-99500Y6897269D01*
X-99500Y7002730D01*
X-126792Y7104585D01*
X-126793Y7104589D01*
X-172261Y7183340D01*
X-177156Y7220522D01*
X-170569Y7235062D01*
X-162583Y7247013D01*
X-154791Y7286188D01*
X-149500Y7312789D01*
X-149500Y7477235D01*
X-149500Y7647208D01*
X-162583Y7712986D01*
X-212422Y7787577D01*
X-281616Y7833810D01*
X-287014Y7837417D01*
X-352789Y7850500D01*
X-647210Y7850499D01*
X-712986Y7837417D01*
X-787577Y7787577D01*
X-837417Y7712986D01*
X-850500Y7647211D01*
X-850499Y7312790D01*
X-837417Y7247014D01*
X-837416Y7247012D01*
X-829431Y7235063D01*
X-822114Y7198281D01*
X-827735Y7183346D01*
X-873207Y7104587D01*
X-900499Y7002730D01*
X-900500Y7002730D01*
X-900500Y6897270D01*
X-900499Y6897269D01*
X-875168Y6802730D01*
X-873207Y6795414D01*
X-873206Y6795410D01*
X-849347Y6754086D01*
X-822403Y6707417D01*
X-820479Y6704086D01*
X-750540Y6634147D01*
X-736188Y6599499D01*
X-750540Y6564851D01*
X-785187Y6550499D01*
X-796653Y6550499D01*
X-831301Y6564851D01*
X-1186423Y6919974D01*
X-1186424Y6919974D01*
X-1186426Y6919976D01*
X-1260118Y6950500D01*
X-1260120Y6950500D01*
X-1514811Y6950500D01*
X-1549459Y6964852D01*
X-1563811Y6999500D01*
X-1549459Y7034148D01*
X-1529522Y7054084D01*
X-1526372Y7059540D01*
X-1511671Y7085001D01*
X-1481918Y7107831D01*
X-1469237Y7109500D01*
X-1252791Y7109500D01*
X-1187013Y7122583D01*
X-1112422Y7172422D01*
X-1062583Y7247013D01*
X-1054791Y7286188D01*
X-1049500Y7312789D01*
X-1049500Y7477235D01*
X-1049500Y7647208D01*
X-1062583Y7712986D01*
X-1112422Y7787577D01*
X-1181616Y7833810D01*
X-1187014Y7837417D01*
X-1252789Y7850500D01*
X-1547210Y7850499D01*
X-1612986Y7837417D01*
X-1687577Y7787577D01*
X-1687578Y7787576D01*
X-1734074Y7717989D01*
X-1765256Y7697153D01*
X-1787498Y7697880D01*
X-1793148Y7699394D01*
X-1797272Y7700500D01*
X-1797273Y7700500D01*
X-1902727Y7700500D01*
X-1912499Y7697881D01*
X-1949679Y7702773D01*
X-1965925Y7717987D01*
X-2012422Y7787577D01*
X-2081616Y7833810D01*
X-2087014Y7837417D01*
X-2152789Y7850500D01*
X-2447210Y7850499D01*
X-2512986Y7837417D01*
X-2512990Y7837413D01*
X-2516715Y7835871D01*
X-2548151Y7833810D01*
X-2575525Y7841145D01*
X-2610436Y7850500D01*
X-2610438Y7850500D01*
X-3110438Y7850500D01*
X-3189562Y7850500D01*
X-3199307Y7850500D01*
X-3199311Y7850499D01*
X-3347210Y7850499D01*
X-3412986Y7837417D01*
X-3487577Y7787577D01*
X-3537417Y7712986D01*
X-3550500Y7647211D01*
X-3550499Y7477235D01*
X-3550499Y7352344D01*
X-3564851Y7317696D01*
X-3599499Y7303344D01*
X-3634147Y7317696D01*
X-3735148Y7418697D01*
X-3749500Y7453345D01*
X-3749500Y7647208D01*
X-3762583Y7712986D01*
X-3812422Y7787577D01*
X-3881616Y7833810D01*
X-3887014Y7837417D01*
X-3952789Y7850500D01*
X-4247210Y7850499D01*
X-4312986Y7837417D01*
X-4387577Y7787577D01*
X-4437417Y7712986D01*
X-4450500Y7647211D01*
X-4450499Y7477235D01*
X-4450499Y7352344D01*
X-4464851Y7317696D01*
X-4499499Y7303344D01*
X-4534145Y7317695D01*
X-4635148Y7418698D01*
X-4649500Y7453346D01*
X-4649500Y7647208D01*
X-4662583Y7712986D01*
X-4712422Y7787577D01*
X-4781616Y7833810D01*
X-4787014Y7837417D01*
X-4852789Y7850500D01*
X-5147210Y7850499D01*
X-5212986Y7837417D01*
X-5287577Y7787577D01*
X-5337417Y7712986D01*
X-5350500Y7647211D01*
X-5350499Y7312790D01*
X-5337417Y7247014D01*
X-5329431Y7235062D01*
X-5287577Y7172422D01*
X-5228617Y7133027D01*
X-5212986Y7122583D01*
X-5147211Y7109500D01*
X-4913346Y7109500D01*
X-4878698Y7095148D01*
X-4514852Y6731302D01*
X-4500500Y6696654D01*
X-4500500Y6592383D01*
X-4514852Y6557735D01*
X-4549500Y6543383D01*
X-4559061Y6544325D01*
X-4560785Y6544668D01*
X-4560787Y6544669D01*
X-4590101Y6550500D01*
X-5009898Y6550499D01*
X-5039213Y6544669D01*
X-5072457Y6522457D01*
X-5094669Y6489213D01*
X-5100500Y6459899D01*
X-5100499Y5840102D01*
X-5094669Y5810787D01*
X-5086263Y5798206D01*
X-5081903Y5791681D01*
X-5074588Y5754899D01*
X-5077374Y5745713D01*
X-5100500Y5689882D01*
X-5100500Y5689879D01*
X-5100500Y5253346D01*
X-5114852Y5218698D01*
X-6168698Y4164852D01*
X-6203346Y4150500D01*
X-6210118Y4150500D01*
X-6289883Y4150500D01*
X-6311466Y4141559D01*
X-6363574Y4119976D01*
X-6419976Y4063574D01*
X-6419976Y4063573D01*
X-6426865Y4056684D01*
X-6426866Y4056681D01*
X-6763573Y3719976D01*
X-6763574Y3719976D01*
X-6819976Y3663574D01*
X-6850500Y3589882D01*
X-6850500Y2789882D01*
X-6850500Y2710118D01*
X-6819976Y2636426D01*
X-6819974Y2636424D01*
X-6819974Y2636423D01*
X-6464852Y2281301D01*
X-6450500Y2246653D01*
X-6450500Y1553346D01*
X-6464852Y1518698D01*
X-6768698Y1214852D01*
X-6803346Y1200500D01*
X-8275011Y1200500D01*
X-8309659Y1214852D01*
X-8317447Y1225001D01*
X-8329517Y1245909D01*
X-8329522Y1245915D01*
X-8369459Y1285852D01*
X-8383811Y1320500D01*
X-8369459Y1355148D01*
X-8334811Y1369500D01*
X-8065141Y1369500D01*
X-8065131Y1369501D01*
X-8040007Y1372415D01*
X-7937233Y1417794D01*
X-7857794Y1497233D01*
X-7812415Y1600006D01*
X-7809500Y1625134D01*
X-7809500Y1936653D01*
X-7795148Y1971301D01*
X-7080025Y2686424D01*
X-7076610Y2694667D01*
X-7070211Y2710116D01*
X-7049500Y2760116D01*
X-7049500Y3389883D01*
X-7080024Y3463574D01*
X-7105541Y3489091D01*
X-7136426Y3519976D01*
X-7174355Y3557905D01*
X-7188707Y3592553D01*
X-7174355Y3627201D01*
X-7166931Y3633294D01*
X-7099713Y3678209D01*
X-7099709Y3678212D01*
X-6988210Y3789711D01*
X-6900604Y3920824D01*
X-6840263Y4066501D01*
X-6840260Y4066512D01*
X-6809500Y4221152D01*
X-6809500Y4378847D01*
X-6840260Y4533487D01*
X-6840263Y4533498D01*
X-6900604Y4679175D01*
X-6900604Y4679176D01*
X-6900606Y4679179D01*
X-6959271Y4766978D01*
X-6988210Y4810288D01*
X-7099711Y4921789D01*
X-7126813Y4939898D01*
X-7222516Y5003845D01*
X-7243351Y5035026D01*
X-7236035Y5071809D01*
X-7214045Y5089856D01*
X-7183693Y5102428D01*
X-7045912Y5194489D01*
X-7045912Y5194490D01*
X-7610000Y5758578D01*
X-8174086Y5194491D01*
X-8174086Y5194490D01*
X-8036304Y5102427D01*
X-8005955Y5089856D01*
X-7979436Y5063338D01*
X-7979436Y5025835D01*
X-7997480Y5003847D01*
X-8120289Y4921789D01*
X-8231789Y4810289D01*
X-8309759Y4693597D01*
X-8340940Y4672764D01*
X-8377723Y4680080D01*
X-8398558Y4711262D01*
X-8399500Y4720822D01*
X-8399500Y5300082D01*
X-8385148Y5334730D01*
X-8350500Y5349082D01*
X-8319701Y5336324D01*
X-8315508Y5335911D01*
X-7751422Y5900000D01*
X-7468578Y5900000D01*
X-7468578Y5899999D01*
X-6904490Y5335912D01*
X-6904489Y5335912D01*
X-6812428Y5473693D01*
X-6744586Y5637478D01*
X-6744586Y5637479D01*
X-6710000Y5811361D01*
X-6710000Y5988638D01*
X-6744586Y6162520D01*
X-6744586Y6162521D01*
X-6812428Y6326306D01*
X-6904490Y6464086D01*
X-6904491Y6464086D01*
X-7468578Y5900000D01*
X-7751422Y5900000D01*
X-7696478Y5954944D01*
X-7680711Y5970711D01*
X-7045911Y6605508D01*
X-7183690Y6697570D01*
X-7347479Y6765413D01*
X-7521361Y6800000D01*
X-7698153Y6800000D01*
X-7732801Y6814352D01*
X-7747153Y6849000D01*
X-7732801Y6883648D01*
X-7331302Y7285148D01*
X-7296654Y7299500D01*
X-6489882Y7299500D01*
X-6410118Y7299500D01*
X-6288070Y7299500D01*
X-6253422Y7285148D01*
X-6240011Y7260060D01*
X-6237417Y7247014D01*
X-6229431Y7235062D01*
X-6187577Y7172422D01*
X-6128617Y7133027D01*
X-6112986Y7122583D01*
X-6047211Y7109500D01*
X-6047207Y7109500D01*
X-5752791Y7109500D01*
X-5687013Y7122583D01*
X-5612422Y7172422D01*
X-5562583Y7247013D01*
X-5554791Y7286188D01*
X-5549500Y7312789D01*
X-5549500Y7477235D01*
X-5549500Y7647208D01*
X-5562583Y7712986D01*
X-5612422Y7787577D01*
X-5681616Y7833810D01*
X-5687014Y7837417D01*
X-5752789Y7850500D01*
X-6047210Y7850499D01*
X-6112986Y7837417D01*
X-6153044Y7810651D01*
X-6173277Y7797132D01*
X-6210060Y7789816D01*
X-6241242Y7810651D01*
X-6249500Y7837874D01*
X-6249500Y8446654D01*
X-6235148Y8481302D01*
X-6081302Y8635148D01*
X-6046654Y8649500D01*
X-3853346Y8649500D01*
X-3818698Y8635148D01*
X-3564851Y8381301D01*
X-3550499Y8346653D01*
X-3550499Y8152790D01*
X-3537417Y8087014D01*
X-3537416Y8087013D01*
X-3487577Y8012422D01*
X-3412986Y7962583D01*
X-3347211Y7949500D01*
X-3347207Y7949500D01*
X-3052791Y7949500D01*
X-2987013Y7962583D01*
X-2912422Y8012422D01*
X-2862583Y8087013D01*
X-2853619Y8132080D01*
X-2849500Y8152789D01*
X-2849500Y8219993D01*
X-2849500Y8487208D01*
X-2862583Y8552986D01*
X-2912422Y8627577D01*
X-2962262Y8660878D01*
X-2987014Y8677417D01*
X-3052789Y8690500D01*
X-3286653Y8690499D01*
X-3321301Y8704851D01*
X-3636423Y9019974D01*
X-3636424Y9019974D01*
X-3636426Y9019976D01*
X-3710118Y9050500D01*
X-6110118Y9050500D01*
X-6189882Y9050500D01*
X-6263574Y9019976D01*
X-6563574Y8719976D01*
X-6619976Y8663574D01*
X-6650500Y8589882D01*
X-6650500Y8589879D01*
X-6650500Y7749500D01*
X-6664852Y7714852D01*
X-6699500Y7700500D01*
X-7360118Y7700500D01*
X-7439882Y7700500D01*
X-7513574Y7669976D01*
X-8713574Y6469976D01*
X-8769976Y6413574D01*
X-8800500Y6339882D01*
X-8800500Y6339879D01*
X-8800500Y3453614D01*
X-8814852Y3418966D01*
X-8830752Y3408343D01*
X-8832985Y3407418D01*
X-8899814Y3362764D01*
X-8907577Y3357577D01*
X-8957417Y3282986D01*
X-8970500Y3217211D01*
X-8970499Y2882790D01*
X-8957417Y2817014D01*
X-8957416Y2817013D01*
X-8907577Y2742422D01*
X-8845019Y2700623D01*
X-8832986Y2692583D01*
X-8767211Y2679500D01*
X-8767207Y2679500D01*
X-8472791Y2679500D01*
X-8407013Y2692583D01*
X-8332422Y2742422D01*
X-8293222Y2801089D01*
X-8276982Y2816300D01*
X-8254092Y2829516D01*
X-8254083Y2829523D01*
X-8179521Y2904086D01*
X-8179520Y2904086D01*
X-8126793Y2995410D01*
X-8126792Y2995414D01*
X-8099500Y3097269D01*
X-8099500Y3202730D01*
X-8126792Y3304585D01*
X-8126793Y3304589D01*
X-8179520Y3395913D01*
X-8254086Y3470479D01*
X-8254087Y3470480D01*
X-8309281Y3502346D01*
X-8345409Y3523205D01*
X-8345413Y3523207D01*
X-8363182Y3527968D01*
X-8392935Y3550797D01*
X-8399500Y3575298D01*
X-8399500Y3879177D01*
X-8385148Y3913825D01*
X-8350500Y3928177D01*
X-8315852Y3913825D01*
X-8309758Y3906401D01*
X-8302417Y3895413D01*
X-8231789Y3789711D01*
X-8120288Y3678210D01*
X-8098386Y3663576D01*
X-7989179Y3590606D01*
X-7989176Y3590604D01*
X-7989175Y3590604D01*
X-7843498Y3530263D01*
X-7843487Y3530260D01*
X-7696190Y3500961D01*
X-7671101Y3487551D01*
X-7464852Y3281302D01*
X-7450500Y3246654D01*
X-7450500Y2903345D01*
X-7464851Y2868698D01*
X-7895539Y2438009D01*
X-7930186Y2423658D01*
X-7949978Y2427833D01*
X-8040006Y2467584D01*
X-8040009Y2467585D01*
X-8065135Y2470500D01*
X-8554864Y2470499D01*
X-8579991Y2467585D01*
X-8682765Y2422206D01*
X-8762206Y2342765D01*
X-8768456Y2328608D01*
X-8795578Y2302710D01*
X-8800599Y2301070D01*
X-8802726Y2300500D01*
X-8802727Y2300500D01*
X-8904587Y2273207D01*
X-8995913Y2220480D01*
X-9070480Y2145913D01*
X-9109953Y2077543D01*
X-9122777Y2055331D01*
X-9123207Y2054587D01*
X-9150499Y1952730D01*
X-9150500Y1952730D01*
X-9150500Y1847270D01*
X-9150499Y1847269D01*
X-9129789Y1769976D01*
X-9123207Y1745414D01*
X-9123206Y1745410D01*
X-9098406Y1702456D01*
X-9071859Y1656475D01*
X-9070479Y1654086D01*
X-8995913Y1579520D01*
X-8904589Y1526793D01*
X-8904585Y1526792D01*
X-8802730Y1499500D01*
X-8802727Y1499500D01*
X-8784767Y1499500D01*
X-8750119Y1485148D01*
X-8733356Y1468385D01*
X-8719004Y1433737D01*
X-8733356Y1399089D01*
X-8755317Y1386408D01*
X-8804587Y1373207D01*
X-8895913Y1320480D01*
X-8970480Y1245913D01*
X-9023207Y1154587D01*
X-9050499Y1052730D01*
X-9050500Y1052730D01*
X-9050500Y947270D01*
X-9050499Y947269D01*
X-9029789Y869976D01*
X-9023207Y845414D01*
X-9023206Y845410D01*
X-9005563Y814852D01*
X-8975396Y762601D01*
X-8970479Y754086D01*
X-8895913Y679520D01*
X-8804589Y626793D01*
X-8804585Y626792D01*
X-8702730Y599500D01*
X-8702727Y599500D01*
X-8597269Y599500D01*
X-8495414Y626792D01*
X-8495410Y626793D01*
X-8489673Y630106D01*
X-8452490Y634998D01*
X-8422739Y612166D01*
X-8417847Y574983D01*
X-8430526Y553023D01*
X-9163574Y-180024D01*
X-9219976Y-236426D01*
X-9250500Y-310118D01*
X-9250500Y-3160118D01*
X-9250500Y-5110118D01*
X-9250500Y-5189882D01*
X-9219976Y-5263574D01*
X-9219974Y-5263576D01*
X-8721751Y-5761799D01*
X-8707399Y-5796447D01*
X-8721751Y-5831095D01*
X-8744116Y-5853460D01*
X-8747601Y-5858676D01*
X-8820775Y-5968189D01*
X-8870729Y-6088789D01*
X-8873579Y-6095670D01*
X-8873582Y-6095681D01*
X-8876243Y-6109060D01*
X-8900500Y-6231007D01*
X-8900500Y-6368993D01*
X-8873580Y-6504328D01*
X-8820775Y-6631811D01*
X-8744114Y-6746542D01*
X-8712595Y-6778059D01*
X-8698245Y-6812705D01*
X-8712596Y-6847354D01*
X-8728491Y-6857975D01*
X-8799997Y-6887598D01*
X-8799999Y-6887599D01*
X-8800000Y-6887600D01*
X-9089900Y-7110100D01*
X-9222834Y-7283303D01*
X-9261629Y-7333849D01*
X-9294110Y-7352597D01*
X-9330334Y-7342886D01*
X-9349082Y-7310405D01*
X-9349500Y-7304015D01*
X-9349500Y7648243D01*
X-9349375Y7651740D01*
X-9332446Y7888361D01*
X-9331451Y7895281D01*
X-9281393Y8125373D01*
X-9279423Y8132080D01*
X-9197134Y8352699D01*
X-9194230Y8359059D01*
X-9081375Y8565733D01*
X-9077595Y8571614D01*
X-8936482Y8760118D01*
X-8931904Y8765401D01*
X-8765401Y8931904D01*
X-8760118Y8936482D01*
X-8571614Y9077595D01*
X-8565733Y9081375D01*
X-8359059Y9194230D01*
X-8352699Y9197134D01*
X-8132080Y9279423D01*
X-8125373Y9281393D01*
X-7942764Y9321120D01*
X-7895279Y9331451D01*
X-7888361Y9332446D01*
X-7651740Y9349375D01*
X-7648243Y9349500D01*
X-2185189Y9349500D01*
X-2150541Y9335148D01*
G37*
%TD.AperFunction*%
%TD*%
M02*
