%TF.GenerationSoftware,KiCad,Pcbnew,10.0.5*%
%TF.CreationDate,2026-08-28T14:55:01-07:00*%
%TF.ProjectId,pcb-v3-handoff,7063622d-7633-42d6-9861-6e646f66662e,rev?*%
%TF.SameCoordinates,PXff6cc0b0PY933f50*%
%TF.FileFunction,Copper,L3,Inr*%
%TF.FilePolarity,Positive*%
%FSLAX46Y46*%
G04 Gerber Fmt 4.6, Leading zero omitted, Abs format (unit mm)*
G04 Created by KiCad (PCBNEW 10.0.5) date 2026-08-28 14:55:01*
%MOMM*%
%LPD*%
G01*
G04 APERTURE LIST*
%TA.AperFunction,ViaPad*%
%ADD10C,0.600000*%
%TD*%
G04 APERTURE END LIST*
D10*
%TO.N,BL_RETURN*%
X10050000Y16600000D03*
%TO.N,VIN_DC*%
X16650000Y1450000D03*
X15700000Y4300000D03*
X13450000Y8500000D03*
%TO.N,SENSOR_MCU_3V3*%
X2550000Y6050000D03*
X2150000Y4000000D03*
%TO.N,GND*%
X3850000Y17950000D03*
X15250000Y18350000D03*
X14750000Y11550000D03*
X12450000Y18250000D03*
X13200000Y5150000D03*
X16700000Y11900000D03*
X5600000Y9200000D03*
X2750000Y18550000D03*
X17300000Y2400000D03*
X3400000Y15650000D03*
X4050000Y5650000D03*
X10750000Y18250000D03*
X9050000Y5950000D03*
X15500000Y2650000D03*
%TO.N,VSTOR*%
X7800000Y16950000D03*
X3900000Y10100000D03*
X5350000Y5600000D03*
X15700000Y1700000D03*
X9800000Y12150000D03*
X4700000Y8550000D03*
X11250000Y16050000D03*
X14300000Y10450000D03*
%TO.N,VBAT_OK*%
X9150000Y16600000D03*
X1000000Y10650000D03*
X18600000Y12625000D03*
%TO.N,RESET*%
X6100000Y5950000D03*
X12800000Y9150000D03*
X7800000Y18650000D03*
%TO.N,SENSOR_3V3*%
X8050000Y13750000D03*
X9975000Y15075000D03*
X6850000Y16400000D03*
X14350000Y17750000D03*
X3250000Y5600000D03*
X6450000Y11100000D03*
%TO.N,BL_FLAG*%
X9750000Y18500000D03*
X6300000Y15800000D03*
%TO.N,HARV_2*%
X15650000Y5200000D03*
%TO.N,HARV_3*%
X12600000Y13700000D03*
X11850000Y8050000D03*
X15750000Y3500000D03*
%TO.N,VBAT*%
X11550000Y13100000D03*
X900000Y11550000D03*
X7750000Y11900000D03*
X17600000Y10200000D03*
%TO.N,SENSOR_WAKEUP*%
X6050000Y13000000D03*
X1450000Y5250000D03*
%TO.N,SENSOR_TX*%
X17250000Y6600000D03*
X8150000Y15700000D03*
%TO.N,SENSOR_RX*%
X17300000Y5000000D03*
X7750000Y14950000D03*
%TO.N,VBAT_SENSE*%
X1150000Y12800000D03*
X3600000Y13000000D03*
%TO.N,SWDIO*%
X13500000Y6800000D03*
%TO.N,SWCLK*%
X3650000Y6650000D03*
%TO.N,HARV_1*%
X13000000Y7450000D03*
X14650000Y6150000D03*
X12050000Y16650000D03*
%TO.N,OK_PROG*%
X18650000Y14200000D03*
X18050000Y11050000D03*
%TD*%
%TA.AperFunction,Conductor*%
%TO.N,GND*%
G36*
X7499459Y18985148D02*
G01*
X7513811Y18950500D01*
X7499459Y18915852D01*
X7479520Y18895913D01*
X7426793Y18804587D01*
X7399501Y18702730D01*
X7399500Y18702730D01*
X7399500Y18597270D01*
X7399501Y18597269D01*
X7426793Y18495414D01*
X7426794Y18495410D01*
X7479521Y18404086D01*
X7554087Y18329520D01*
X7645411Y18276793D01*
X7645415Y18276792D01*
X7747270Y18249500D01*
X7747273Y18249500D01*
X7852731Y18249500D01*
X7954586Y18276792D01*
X7954590Y18276793D01*
X8045914Y18329520D01*
X8045914Y18329521D01*
X8120479Y18404086D01*
X8120480Y18404086D01*
X8173207Y18495410D01*
X8173208Y18495413D01*
X8188565Y18552730D01*
X9349500Y18552730D01*
X9349500Y18447270D01*
X9349501Y18447269D01*
X9376793Y18345414D01*
X9376794Y18345410D01*
X9429521Y18254086D01*
X9504087Y18179520D01*
X9595411Y18126793D01*
X9595415Y18126792D01*
X9697269Y18099500D01*
X9697273Y18099500D01*
X9802730Y18099500D01*
X9904585Y18126792D01*
X9904589Y18126793D01*
X9995913Y18179520D01*
X10070479Y18254086D01*
X10123206Y18345410D01*
X10123207Y18345414D01*
X10150499Y18447269D01*
X10150500Y18447270D01*
X10150500Y18552730D01*
X10134124Y18613843D01*
X10123207Y18654587D01*
X10070480Y18745913D01*
X9995913Y18820480D01*
X9904587Y18873207D01*
X9863843Y18884124D01*
X9802730Y18900500D01*
X9802727Y18900500D01*
X9697273Y18900500D01*
X9697270Y18900500D01*
X9636157Y18884124D01*
X9595413Y18873207D01*
X9504087Y18820480D01*
X9429520Y18745913D01*
X9376793Y18654587D01*
X9349501Y18552730D01*
X9349500Y18552730D01*
X8188565Y18552730D01*
X8192823Y18568621D01*
X8192823Y18568622D01*
X8200500Y18597271D01*
X8200500Y18702730D01*
X8173208Y18804585D01*
X8173207Y18804589D01*
X8120480Y18895913D01*
X8100541Y18915852D01*
X8086189Y18950500D01*
X8100541Y18985148D01*
X8135189Y18999500D01*
X16954016Y18999500D01*
X16988664Y18985148D01*
X17003016Y18950500D01*
X16988664Y18915852D01*
X16983854Y18911632D01*
X16760100Y18739900D01*
X16570068Y18492303D01*
X16537598Y18449997D01*
X16397702Y18112306D01*
X16397700Y18112300D01*
X16350000Y17750000D01*
X16397700Y17387699D01*
X16397702Y17387693D01*
X16537598Y17050002D01*
X16760100Y16760100D01*
X17050002Y16537598D01*
X17387693Y16397702D01*
X17387699Y16397700D01*
X17750000Y16350000D01*
X18112300Y16397700D01*
X18112306Y16397702D01*
X18449997Y16537598D01*
X18462603Y16547273D01*
X18739900Y16760100D01*
X18911629Y16983849D01*
X18944110Y17002597D01*
X18980334Y16992886D01*
X18999082Y16960405D01*
X18999500Y16954015D01*
X18999500Y14535189D01*
X18985148Y14500541D01*
X18950500Y14486189D01*
X18915852Y14500541D01*
X18895913Y14520480D01*
X18804587Y14573207D01*
X18763843Y14584124D01*
X18702730Y14600500D01*
X18702727Y14600500D01*
X18597273Y14600500D01*
X18597270Y14600500D01*
X18520878Y14580030D01*
X18495413Y14573207D01*
X18495412Y14573206D01*
X18495410Y14573206D01*
X18454351Y14549500D01*
X18404087Y14520480D01*
X18404086Y14520479D01*
X18329520Y14445913D01*
X18276793Y14354589D01*
X18276792Y14354585D01*
X18249500Y14252730D01*
X18249500Y14147269D01*
X18276792Y14045414D01*
X18276793Y14045410D01*
X18329520Y13954086D01*
X18404086Y13879521D01*
X18404086Y13879520D01*
X18495410Y13826793D01*
X18495414Y13826792D01*
X18597269Y13799500D01*
X18597273Y13799500D01*
X18702730Y13799500D01*
X18804585Y13826792D01*
X18804589Y13826793D01*
X18895913Y13879520D01*
X18915852Y13899459D01*
X18950500Y13913811D01*
X18985148Y13899459D01*
X18999500Y13864811D01*
X18999500Y12910189D01*
X18985148Y12875541D01*
X18950500Y12861189D01*
X18915852Y12875541D01*
X18881204Y12910189D01*
X18845913Y12945480D01*
X18754587Y12998207D01*
X18713843Y13009124D01*
X18652730Y13025500D01*
X18652727Y13025500D01*
X18547273Y13025500D01*
X18547270Y13025500D01*
X18470878Y13005030D01*
X18445413Y12998207D01*
X18445412Y12998206D01*
X18445410Y12998206D01*
X18387513Y12964778D01*
X18354087Y12945480D01*
X18354086Y12945479D01*
X18279520Y12870913D01*
X18226793Y12779589D01*
X18226792Y12779585D01*
X18199500Y12677730D01*
X18199500Y12572269D01*
X18226792Y12470414D01*
X18226793Y12470410D01*
X18279520Y12379086D01*
X18354086Y12304521D01*
X18354086Y12304520D01*
X18445410Y12251793D01*
X18445414Y12251792D01*
X18547269Y12224500D01*
X18547273Y12224500D01*
X18652730Y12224500D01*
X18754585Y12251792D01*
X18754589Y12251793D01*
X18845913Y12304520D01*
X18915852Y12374459D01*
X18950500Y12388811D01*
X18985148Y12374459D01*
X18999500Y12339811D01*
X18999500Y2001757D01*
X18999375Y1998260D01*
X18982446Y1761639D01*
X18981451Y1754719D01*
X18931393Y1524627D01*
X18929423Y1517920D01*
X18847134Y1297301D01*
X18844230Y1290941D01*
X18731375Y1084267D01*
X18727595Y1078386D01*
X18586482Y889882D01*
X18581904Y884599D01*
X18415401Y718096D01*
X18410118Y713518D01*
X18221614Y572405D01*
X18215733Y568625D01*
X18009059Y455770D01*
X18002699Y452866D01*
X17782080Y370577D01*
X17775373Y368607D01*
X17592764Y328880D01*
X17545279Y318549D01*
X17538361Y317554D01*
X17301740Y300625D01*
X17298243Y300500D01*
X15149000Y300500D01*
X15114352Y314852D01*
X15100000Y349500D01*
X15100000Y1752731D01*
X15299500Y1752731D01*
X15299500Y1647270D01*
X15326792Y1545415D01*
X15326793Y1545411D01*
X15379520Y1454087D01*
X15454087Y1379520D01*
X15487513Y1360222D01*
X15545410Y1326794D01*
X15545412Y1326794D01*
X15545413Y1326793D01*
X15591874Y1314344D01*
X15647269Y1299501D01*
X15647270Y1299500D01*
X15647273Y1299500D01*
X15752730Y1299500D01*
X15752730Y1299501D01*
X15854587Y1326793D01*
X15945913Y1379520D01*
X16020480Y1454087D01*
X16048565Y1502731D01*
X16249500Y1502731D01*
X16249500Y1397270D01*
X16276792Y1295415D01*
X16276793Y1295411D01*
X16329520Y1204087D01*
X16404087Y1129520D01*
X16437513Y1110222D01*
X16495410Y1076794D01*
X16495412Y1076794D01*
X16495413Y1076793D01*
X16575747Y1055268D01*
X16597269Y1049501D01*
X16597270Y1049500D01*
X16597273Y1049500D01*
X16702730Y1049500D01*
X16702730Y1049501D01*
X16804587Y1076793D01*
X16895913Y1129520D01*
X16970480Y1204087D01*
X17023207Y1295413D01*
X17050499Y1397270D01*
X17050500Y1397270D01*
X17050500Y1502730D01*
X17050499Y1502731D01*
X17023207Y1604586D01*
X17023206Y1604590D01*
X16970479Y1695914D01*
X16895913Y1770480D01*
X16804589Y1823207D01*
X16804585Y1823208D01*
X16702730Y1850500D01*
X16702727Y1850500D01*
X16597273Y1850500D01*
X16597270Y1850500D01*
X16495414Y1823208D01*
X16495410Y1823207D01*
X16404086Y1770480D01*
X16404086Y1770479D01*
X16329521Y1695914D01*
X16329520Y1695914D01*
X16276793Y1604590D01*
X16276792Y1604586D01*
X16249500Y1502731D01*
X16048565Y1502731D01*
X16073207Y1545413D01*
X16100499Y1647270D01*
X16100500Y1647270D01*
X16100500Y1752730D01*
X16100499Y1752731D01*
X16073207Y1854586D01*
X16073206Y1854590D01*
X16020479Y1945914D01*
X15945913Y2020480D01*
X15854589Y2073207D01*
X15854585Y2073208D01*
X15752730Y2100500D01*
X15752727Y2100500D01*
X15647273Y2100500D01*
X15647270Y2100500D01*
X15545414Y2073208D01*
X15545410Y2073207D01*
X15454086Y2020480D01*
X15454086Y2020479D01*
X15379521Y1945914D01*
X15379520Y1945914D01*
X15326793Y1854590D01*
X15326792Y1854586D01*
X15299500Y1752731D01*
X15100000Y1752731D01*
X15100000Y4352731D01*
X15299500Y4352731D01*
X15299500Y4247270D01*
X15326792Y4145415D01*
X15326793Y4145411D01*
X15379520Y4054087D01*
X15454087Y3979520D01*
X15493320Y3956869D01*
X15543319Y3928002D01*
X15566149Y3898249D01*
X15561254Y3861067D01*
X15543320Y3843133D01*
X15504089Y3820482D01*
X15429521Y3745914D01*
X15429520Y3745914D01*
X15376793Y3654590D01*
X15376792Y3654586D01*
X15349500Y3552731D01*
X15349500Y3447270D01*
X15376792Y3345415D01*
X15376793Y3345411D01*
X15429520Y3254087D01*
X15504087Y3179520D01*
X15537513Y3160222D01*
X15595410Y3126794D01*
X15595412Y3126794D01*
X15595413Y3126793D01*
X15675747Y3105268D01*
X15697269Y3099501D01*
X15697270Y3099500D01*
X15697273Y3099500D01*
X15802730Y3099500D01*
X15802730Y3099501D01*
X15904587Y3126793D01*
X15995913Y3179520D01*
X16070480Y3254087D01*
X16123207Y3345413D01*
X16150499Y3447270D01*
X16150500Y3447270D01*
X16150500Y3552730D01*
X16150499Y3552731D01*
X16123207Y3654586D01*
X16123206Y3654590D01*
X16070479Y3745914D01*
X15995913Y3820480D01*
X15906680Y3871999D01*
X15883850Y3901752D01*
X15888745Y3938934D01*
X15906680Y3956869D01*
X15945913Y3979520D01*
X16020480Y4054087D01*
X16073207Y4145413D01*
X16100499Y4247270D01*
X16100500Y4247270D01*
X16100500Y4352730D01*
X16100499Y4352731D01*
X16073207Y4454586D01*
X16073206Y4454590D01*
X16020479Y4545914D01*
X15945913Y4620480D01*
X15854589Y4673207D01*
X15854585Y4673208D01*
X15752730Y4700500D01*
X15752727Y4700500D01*
X15647273Y4700500D01*
X15647270Y4700500D01*
X15545414Y4673208D01*
X15545410Y4673207D01*
X15454086Y4620480D01*
X15454086Y4620479D01*
X15379521Y4545914D01*
X15379520Y4545914D01*
X15326793Y4454590D01*
X15326792Y4454586D01*
X15299500Y4352731D01*
X15100000Y4352731D01*
X15100000Y4700000D01*
X2600000Y4700000D01*
X2600000Y4204449D01*
X2585648Y4169801D01*
X2551000Y4155449D01*
X2516352Y4169801D01*
X2508565Y4179949D01*
X2470480Y4245914D01*
X2395914Y4320479D01*
X2395914Y4320480D01*
X2304590Y4373207D01*
X2304586Y4373208D01*
X2202730Y4400500D01*
X2202727Y4400500D01*
X2097273Y4400500D01*
X2097270Y4400500D01*
X1995415Y4373208D01*
X1995411Y4373207D01*
X1904087Y4320480D01*
X1829521Y4245914D01*
X1776794Y4154590D01*
X1776794Y4154588D01*
X1776793Y4154587D01*
X1755268Y4074253D01*
X1749501Y4052731D01*
X1749500Y4052730D01*
X1749500Y3947270D01*
X1762636Y3898249D01*
X1776793Y3845413D01*
X1829520Y3754087D01*
X1904087Y3679520D01*
X1995413Y3626793D01*
X2097270Y3599501D01*
X2097270Y3599500D01*
X2097273Y3599500D01*
X2202730Y3599500D01*
X2202731Y3599501D01*
X2224253Y3605268D01*
X2304587Y3626793D01*
X2304588Y3626794D01*
X2304590Y3626794D01*
X2362487Y3660222D01*
X2395913Y3679520D01*
X2470480Y3754087D01*
X2508565Y3820052D01*
X2538318Y3842882D01*
X2575500Y3837987D01*
X2598330Y3808234D01*
X2600000Y3795552D01*
X2600000Y2593149D01*
X2585648Y2558501D01*
X2551000Y2544149D01*
X2521168Y2554278D01*
X2386596Y2657563D01*
X2249998Y2762402D01*
X1912307Y2902298D01*
X1912301Y2902300D01*
X1550000Y2950000D01*
X1187700Y2902300D01*
X1187694Y2902298D01*
X850003Y2762402D01*
X850001Y2762401D01*
X850000Y2762400D01*
X560100Y2539900D01*
X427166Y2366697D01*
X388371Y2316151D01*
X355890Y2297403D01*
X319666Y2307114D01*
X300918Y2339595D01*
X300500Y2345985D01*
X300500Y5302730D01*
X1049500Y5302730D01*
X1049500Y5197270D01*
X1060938Y5154586D01*
X1076793Y5095413D01*
X1129520Y5004087D01*
X1204087Y4929520D01*
X1295413Y4876793D01*
X1397270Y4849501D01*
X1397270Y4849500D01*
X1397273Y4849500D01*
X1502730Y4849500D01*
X1502731Y4849501D01*
X1524253Y4855268D01*
X1604587Y4876793D01*
X1604588Y4876794D01*
X1604590Y4876794D01*
X1662487Y4910222D01*
X1695913Y4929520D01*
X1770480Y5004087D01*
X1823207Y5095411D01*
X1823208Y5095415D01*
X1850500Y5197270D01*
X1850500Y5302731D01*
X1823208Y5404586D01*
X1823207Y5404590D01*
X1770480Y5495914D01*
X1695914Y5570479D01*
X1695914Y5570480D01*
X1604590Y5623207D01*
X1604586Y5623208D01*
X1502730Y5650500D01*
X1502727Y5650500D01*
X1397273Y5650500D01*
X1397270Y5650500D01*
X1295415Y5623208D01*
X1295411Y5623207D01*
X1204087Y5570480D01*
X1129521Y5495914D01*
X1076794Y5404590D01*
X1076794Y5404588D01*
X1076793Y5404587D01*
X1055268Y5324253D01*
X1049501Y5302731D01*
X1049500Y5302730D01*
X300500Y5302730D01*
X300500Y6102730D01*
X2149500Y6102730D01*
X2149500Y5997270D01*
X2153032Y5984090D01*
X2176793Y5895413D01*
X2229520Y5804087D01*
X2304087Y5729520D01*
X2395413Y5676793D01*
X2497270Y5649501D01*
X2497270Y5649500D01*
X2497273Y5649500D01*
X2602730Y5649500D01*
X2602731Y5649501D01*
X2656137Y5663811D01*
X2704587Y5676793D01*
X2704588Y5676794D01*
X2704590Y5676794D01*
X2754788Y5705777D01*
X2781203Y5721028D01*
X2818384Y5725922D01*
X2848137Y5703092D01*
X2853032Y5665910D01*
X2853032Y5665909D01*
X2849500Y5652729D01*
X2849500Y5547270D01*
X2856679Y5520480D01*
X2876793Y5445413D01*
X2929520Y5354087D01*
X3004087Y5279520D01*
X3095413Y5226793D01*
X3197270Y5199501D01*
X3197270Y5199500D01*
X3197273Y5199500D01*
X3302730Y5199500D01*
X3302731Y5199501D01*
X3324253Y5205268D01*
X3404587Y5226793D01*
X3404588Y5226794D01*
X3404590Y5226794D01*
X3462487Y5260222D01*
X3495913Y5279520D01*
X3570480Y5354087D01*
X3581519Y5373207D01*
X3623207Y5445411D01*
X3623208Y5445415D01*
X3650500Y5547270D01*
X3650500Y5652730D01*
X4949500Y5652730D01*
X4949500Y5547270D01*
X4956679Y5520480D01*
X4976793Y5445413D01*
X5029520Y5354087D01*
X5104087Y5279520D01*
X5195413Y5226793D01*
X5297270Y5199501D01*
X5297270Y5199500D01*
X5297273Y5199500D01*
X5402730Y5199500D01*
X5402731Y5199501D01*
X5424253Y5205268D01*
X5504587Y5226793D01*
X5504588Y5226794D01*
X5504590Y5226794D01*
X5549513Y5252731D01*
X15249500Y5252731D01*
X15249500Y5147270D01*
X15276792Y5045415D01*
X15276793Y5045411D01*
X15329520Y4954087D01*
X15404087Y4879520D01*
X15437513Y4860222D01*
X15495410Y4826794D01*
X15495412Y4826794D01*
X15495413Y4826793D01*
X15575747Y4805268D01*
X15597269Y4799501D01*
X15597270Y4799500D01*
X15597273Y4799500D01*
X15702730Y4799500D01*
X15702730Y4799501D01*
X15804587Y4826793D01*
X15895913Y4879520D01*
X15970480Y4954087D01*
X16023207Y5045413D01*
X16025168Y5052731D01*
X16899500Y5052731D01*
X16899500Y4947270D01*
X16926792Y4845415D01*
X16926793Y4845411D01*
X16979520Y4754087D01*
X17054087Y4679520D01*
X17087513Y4660222D01*
X17145410Y4626794D01*
X17145412Y4626794D01*
X17145413Y4626793D01*
X17225747Y4605268D01*
X17247269Y4599501D01*
X17247270Y4599500D01*
X17247273Y4599500D01*
X17352730Y4599500D01*
X17352730Y4599501D01*
X17454587Y4626793D01*
X17545913Y4679520D01*
X17620480Y4754087D01*
X17673207Y4845413D01*
X17700499Y4947270D01*
X17700500Y4947270D01*
X17700500Y5052730D01*
X17700499Y5052731D01*
X17689062Y5095415D01*
X17673207Y5154587D01*
X17673206Y5154588D01*
X17673206Y5154590D01*
X17620479Y5245914D01*
X17545913Y5320480D01*
X17454589Y5373207D01*
X17454585Y5373208D01*
X17352730Y5400500D01*
X17352727Y5400500D01*
X17247273Y5400500D01*
X17247270Y5400500D01*
X17145414Y5373208D01*
X17145410Y5373207D01*
X17054086Y5320480D01*
X17054086Y5320479D01*
X16979521Y5245914D01*
X16979520Y5245914D01*
X16926793Y5154590D01*
X16926792Y5154586D01*
X16899500Y5052731D01*
X16025168Y5052731D01*
X16050499Y5147270D01*
X16050500Y5147270D01*
X16050500Y5252730D01*
X16050499Y5252731D01*
X16023207Y5354586D01*
X16023206Y5354590D01*
X15989778Y5412487D01*
X15970480Y5445913D01*
X15895913Y5520480D01*
X15804589Y5573207D01*
X15804585Y5573208D01*
X15702730Y5600500D01*
X15702727Y5600500D01*
X15597273Y5600500D01*
X15597270Y5600500D01*
X15495414Y5573208D01*
X15495410Y5573207D01*
X15404086Y5520480D01*
X15404086Y5520479D01*
X15329521Y5445914D01*
X15329520Y5445914D01*
X15276793Y5354590D01*
X15276792Y5354586D01*
X15249500Y5252731D01*
X5549513Y5252731D01*
X5562487Y5260222D01*
X5595913Y5279520D01*
X5670480Y5354087D01*
X5681519Y5373207D01*
X5723207Y5445411D01*
X5723208Y5445415D01*
X5750500Y5547270D01*
X5750500Y5614811D01*
X5764852Y5649459D01*
X5799500Y5663811D01*
X5834148Y5649459D01*
X5854087Y5629520D01*
X5945413Y5576793D01*
X6047270Y5549501D01*
X6047270Y5549500D01*
X6047273Y5549500D01*
X6152730Y5549500D01*
X6152731Y5549501D01*
X6174253Y5555268D01*
X6254587Y5576793D01*
X6254588Y5576794D01*
X6254590Y5576794D01*
X6320436Y5614811D01*
X6345913Y5629520D01*
X6420480Y5704087D01*
X6473207Y5795411D01*
X6473208Y5795415D01*
X6500500Y5897270D01*
X6500500Y6002731D01*
X6473208Y6104586D01*
X6473207Y6104589D01*
X6443213Y6156540D01*
X6424747Y6188524D01*
X6420480Y6195914D01*
X6413663Y6202731D01*
X14249500Y6202731D01*
X14249500Y6097270D01*
X14276792Y5995415D01*
X14276793Y5995411D01*
X14320056Y5920479D01*
X14329520Y5904087D01*
X14404087Y5829520D01*
X14437513Y5810222D01*
X14495410Y5776794D01*
X14495412Y5776794D01*
X14495413Y5776793D01*
X14575747Y5755268D01*
X14597269Y5749501D01*
X14597270Y5749500D01*
X14597273Y5749500D01*
X14702730Y5749500D01*
X14702730Y5749501D01*
X14804587Y5776793D01*
X14895913Y5829520D01*
X14970480Y5904087D01*
X15023207Y5995413D01*
X15050499Y6097270D01*
X15050500Y6097270D01*
X15050500Y6202730D01*
X15050499Y6202731D01*
X15030654Y6276794D01*
X15023207Y6304587D01*
X15023206Y6304588D01*
X15023206Y6304590D01*
X14970479Y6395914D01*
X14895913Y6470480D01*
X14804589Y6523207D01*
X14804585Y6523208D01*
X14702730Y6550500D01*
X14702727Y6550500D01*
X14597273Y6550500D01*
X14597270Y6550500D01*
X14495414Y6523208D01*
X14495410Y6523207D01*
X14404086Y6470480D01*
X14404086Y6470479D01*
X14329521Y6395914D01*
X14329520Y6395914D01*
X14276793Y6304590D01*
X14276792Y6304586D01*
X14249500Y6202731D01*
X6413663Y6202731D01*
X6345914Y6270479D01*
X6345914Y6270480D01*
X6254590Y6323207D01*
X6254586Y6323208D01*
X6152730Y6350500D01*
X6152727Y6350500D01*
X6047273Y6350500D01*
X6047270Y6350500D01*
X5945415Y6323208D01*
X5945411Y6323207D01*
X5865023Y6276794D01*
X5854087Y6270480D01*
X5779520Y6195913D01*
X5760222Y6162487D01*
X5726794Y6104590D01*
X5726794Y6104589D01*
X5726793Y6104587D01*
X5705268Y6024253D01*
X5699501Y6002731D01*
X5699500Y6002730D01*
X5699500Y5935189D01*
X5685148Y5900541D01*
X5650500Y5886189D01*
X5615852Y5900541D01*
X5595914Y5920479D01*
X5595914Y5920480D01*
X5504590Y5973207D01*
X5504586Y5973208D01*
X5402730Y6000500D01*
X5402727Y6000500D01*
X5297273Y6000500D01*
X5297270Y6000500D01*
X5195415Y5973208D01*
X5195411Y5973207D01*
X5104087Y5920480D01*
X5029521Y5845914D01*
X4976794Y5754590D01*
X4976794Y5754588D01*
X4976793Y5754587D01*
X4969112Y5725922D01*
X4949501Y5652731D01*
X4949500Y5652730D01*
X3650500Y5652730D01*
X3650500Y5652731D01*
X3623208Y5754586D01*
X3623207Y5754590D01*
X3570480Y5845914D01*
X3495914Y5920479D01*
X3495914Y5920480D01*
X3404590Y5973207D01*
X3404586Y5973208D01*
X3302730Y6000500D01*
X3302727Y6000500D01*
X3197273Y6000500D01*
X3197270Y6000500D01*
X3095415Y5973208D01*
X3095411Y5973207D01*
X3018799Y5928974D01*
X2981617Y5924079D01*
X2951864Y5946909D01*
X2946968Y5984090D01*
X2950500Y5997273D01*
X2950500Y6102731D01*
X2923208Y6204586D01*
X2923207Y6204590D01*
X2870480Y6295914D01*
X2795914Y6370479D01*
X2795914Y6370480D01*
X2704590Y6423207D01*
X2704586Y6423208D01*
X2602730Y6450500D01*
X2602727Y6450500D01*
X2497273Y6450500D01*
X2497270Y6450500D01*
X2395415Y6423208D01*
X2395411Y6423207D01*
X2304087Y6370480D01*
X2229521Y6295914D01*
X2176794Y6204590D01*
X2176794Y6204588D01*
X2176793Y6204587D01*
X2176295Y6202727D01*
X2149501Y6102731D01*
X2149500Y6102730D01*
X300500Y6102730D01*
X300500Y6702730D01*
X3249500Y6702730D01*
X3249500Y6597270D01*
X3262897Y6547273D01*
X3276793Y6495413D01*
X3329520Y6404087D01*
X3404087Y6329520D01*
X3495413Y6276793D01*
X3597270Y6249501D01*
X3597270Y6249500D01*
X3597273Y6249500D01*
X3702730Y6249500D01*
X3702731Y6249501D01*
X3724253Y6255268D01*
X3804587Y6276793D01*
X3804588Y6276794D01*
X3804590Y6276794D01*
X3862487Y6310222D01*
X3895913Y6329520D01*
X3970480Y6404087D01*
X3981519Y6423207D01*
X4023207Y6495411D01*
X4023208Y6495415D01*
X4050500Y6597270D01*
X4050500Y6702731D01*
X4023208Y6804586D01*
X4023207Y6804590D01*
X3970480Y6895914D01*
X3895914Y6970479D01*
X3895914Y6970480D01*
X3804590Y7023207D01*
X3804586Y7023208D01*
X3702730Y7050500D01*
X3702727Y7050500D01*
X3597273Y7050500D01*
X3597270Y7050500D01*
X3495415Y7023208D01*
X3495411Y7023207D01*
X3404087Y6970480D01*
X3329521Y6895914D01*
X3276794Y6804590D01*
X3276794Y6804588D01*
X3276793Y6804587D01*
X3261436Y6747273D01*
X3249501Y6702731D01*
X3249500Y6702730D01*
X300500Y6702730D01*
X300500Y7502731D01*
X12599500Y7502731D01*
X12599500Y7397270D01*
X12626792Y7295415D01*
X12626793Y7295411D01*
X12646026Y7262100D01*
X12679520Y7204087D01*
X12754087Y7129520D01*
X12769745Y7120480D01*
X12845410Y7076794D01*
X12845412Y7076794D01*
X12845413Y7076793D01*
X12909090Y7059731D01*
X12947269Y7049501D01*
X12947270Y7049500D01*
X12947273Y7049500D01*
X13052729Y7049500D01*
X13072645Y7054837D01*
X13090909Y7059731D01*
X13128090Y7054837D01*
X13150921Y7025084D01*
X13146027Y6987902D01*
X13146026Y6987901D01*
X13126793Y6954590D01*
X13126792Y6954586D01*
X13099500Y6852731D01*
X13099500Y6747270D01*
X13126792Y6645415D01*
X13126793Y6645411D01*
X13154588Y6597270D01*
X13179520Y6554087D01*
X13254087Y6479520D01*
X13287513Y6460222D01*
X13345410Y6426794D01*
X13345412Y6426794D01*
X13345413Y6426793D01*
X13425747Y6405268D01*
X13447269Y6399501D01*
X13447270Y6399500D01*
X13447273Y6399500D01*
X13552730Y6399500D01*
X13552730Y6399501D01*
X13654587Y6426793D01*
X13745913Y6479520D01*
X13820480Y6554087D01*
X13873207Y6645413D01*
X13875168Y6652731D01*
X16849500Y6652731D01*
X16849500Y6547270D01*
X16876792Y6445415D01*
X16876793Y6445411D01*
X16920056Y6370479D01*
X16929520Y6354087D01*
X17004087Y6279520D01*
X17037513Y6260222D01*
X17095410Y6226794D01*
X17095412Y6226794D01*
X17095413Y6226793D01*
X17175747Y6205268D01*
X17197269Y6199501D01*
X17197270Y6199500D01*
X17197273Y6199500D01*
X17302730Y6199500D01*
X17302730Y6199501D01*
X17404587Y6226793D01*
X17495913Y6279520D01*
X17570480Y6354087D01*
X17623207Y6445413D01*
X17650499Y6547270D01*
X17650500Y6547270D01*
X17650500Y6652730D01*
X17650499Y6652731D01*
X17637102Y6702731D01*
X17623207Y6754587D01*
X17623206Y6754588D01*
X17623206Y6754590D01*
X17570479Y6845914D01*
X17495913Y6920480D01*
X17404589Y6973207D01*
X17404585Y6973208D01*
X17302730Y7000500D01*
X17302727Y7000500D01*
X17197273Y7000500D01*
X17197270Y7000500D01*
X17095414Y6973208D01*
X17095410Y6973207D01*
X17004086Y6920480D01*
X17004086Y6920479D01*
X16929521Y6845914D01*
X16929520Y6845914D01*
X16876793Y6754590D01*
X16876792Y6754586D01*
X16849500Y6652731D01*
X13875168Y6652731D01*
X13900499Y6747270D01*
X13900500Y6747270D01*
X13900500Y6852730D01*
X13900499Y6852731D01*
X13873207Y6954586D01*
X13873206Y6954590D01*
X13833589Y7023208D01*
X13820480Y7045913D01*
X13745913Y7120480D01*
X13654589Y7173207D01*
X13654585Y7173208D01*
X13552730Y7200500D01*
X13552727Y7200500D01*
X13447273Y7200500D01*
X13447270Y7200500D01*
X13409090Y7190270D01*
X13371908Y7195165D01*
X13349078Y7224918D01*
X13353972Y7262099D01*
X13373207Y7295413D01*
X13400499Y7397270D01*
X13400500Y7397270D01*
X13400500Y7502730D01*
X13400499Y7502731D01*
X13373207Y7604586D01*
X13373206Y7604590D01*
X13320479Y7695914D01*
X13245913Y7770480D01*
X13154589Y7823207D01*
X13154585Y7823208D01*
X13052730Y7850500D01*
X13052727Y7850500D01*
X12947273Y7850500D01*
X12947270Y7850500D01*
X12845414Y7823208D01*
X12845410Y7823207D01*
X12754086Y7770480D01*
X12754086Y7770479D01*
X12679521Y7695914D01*
X12679520Y7695914D01*
X12626793Y7604590D01*
X12626792Y7604586D01*
X12599500Y7502731D01*
X300500Y7502731D01*
X300500Y8102731D01*
X11449500Y8102731D01*
X11449500Y7997270D01*
X11476792Y7895415D01*
X11476793Y7895411D01*
X11518481Y7823207D01*
X11529520Y7804087D01*
X11604087Y7729520D01*
X11637513Y7710222D01*
X11695410Y7676794D01*
X11695412Y7676794D01*
X11695413Y7676793D01*
X11775747Y7655268D01*
X11797269Y7649501D01*
X11797270Y7649500D01*
X11797273Y7649500D01*
X11902730Y7649500D01*
X11902730Y7649501D01*
X12004587Y7676793D01*
X12095913Y7729520D01*
X12170480Y7804087D01*
X12223207Y7895413D01*
X12250499Y7997270D01*
X12250500Y7997270D01*
X12250500Y8102730D01*
X12250499Y8102731D01*
X12230654Y8176794D01*
X12223207Y8204587D01*
X12223206Y8204588D01*
X12223206Y8204590D01*
X12170479Y8295914D01*
X12095913Y8370480D01*
X12004589Y8423207D01*
X12004585Y8423208D01*
X11902730Y8450500D01*
X11902727Y8450500D01*
X11797273Y8450500D01*
X11797270Y8450500D01*
X11695414Y8423208D01*
X11695410Y8423207D01*
X11604086Y8370480D01*
X11604086Y8370479D01*
X11529521Y8295914D01*
X11529520Y8295914D01*
X11476793Y8204590D01*
X11476792Y8204586D01*
X11449500Y8102731D01*
X300500Y8102731D01*
X300500Y8602730D01*
X4299500Y8602730D01*
X4299500Y8497270D01*
X4312897Y8447273D01*
X4326793Y8395413D01*
X4379520Y8304087D01*
X4454087Y8229520D01*
X4545413Y8176793D01*
X4647270Y8149501D01*
X4647270Y8149500D01*
X4647273Y8149500D01*
X4752730Y8149500D01*
X4752731Y8149501D01*
X4766796Y8153269D01*
X4831135Y8170509D01*
X4854587Y8176793D01*
X4854588Y8176794D01*
X4854590Y8176794D01*
X4912487Y8210222D01*
X4945913Y8229520D01*
X5020480Y8304087D01*
X5073207Y8395411D01*
X5073208Y8395415D01*
X5100500Y8497270D01*
X5100500Y8552731D01*
X13049500Y8552731D01*
X13049500Y8447270D01*
X13076792Y8345415D01*
X13076793Y8345411D01*
X13129520Y8254087D01*
X13204087Y8179520D01*
X13237513Y8160222D01*
X13295410Y8126794D01*
X13295412Y8126794D01*
X13295413Y8126793D01*
X13375747Y8105268D01*
X13397269Y8099501D01*
X13397270Y8099500D01*
X13397273Y8099500D01*
X13502730Y8099500D01*
X13502730Y8099501D01*
X13604587Y8126793D01*
X13695913Y8179520D01*
X13770480Y8254087D01*
X13823207Y8345413D01*
X13850499Y8447270D01*
X13850500Y8447270D01*
X13850500Y8552730D01*
X13850499Y8552731D01*
X13823207Y8654586D01*
X13823206Y8654590D01*
X13770479Y8745914D01*
X13695913Y8820480D01*
X13604589Y8873207D01*
X13604585Y8873208D01*
X13502730Y8900500D01*
X13502727Y8900500D01*
X13397273Y8900500D01*
X13397270Y8900500D01*
X13295414Y8873208D01*
X13295410Y8873207D01*
X13204086Y8820480D01*
X13204086Y8820479D01*
X13129521Y8745914D01*
X13129520Y8745914D01*
X13076793Y8654590D01*
X13076792Y8654586D01*
X13049500Y8552731D01*
X5100500Y8552731D01*
X5100500Y8602731D01*
X5073208Y8704586D01*
X5073207Y8704590D01*
X5020480Y8795914D01*
X4945914Y8870479D01*
X4945914Y8870480D01*
X4854590Y8923207D01*
X4854586Y8923208D01*
X4752730Y8950500D01*
X4752727Y8950500D01*
X4647273Y8950500D01*
X4647270Y8950500D01*
X4545415Y8923208D01*
X4545411Y8923207D01*
X4454087Y8870480D01*
X4379521Y8795914D01*
X4326794Y8704590D01*
X4326794Y8704588D01*
X4326793Y8704587D01*
X4305268Y8624253D01*
X4299501Y8602731D01*
X4299500Y8602730D01*
X300500Y8602730D01*
X300500Y9202731D01*
X12399500Y9202731D01*
X12399500Y9097270D01*
X12426792Y8995415D01*
X12426793Y8995411D01*
X12468481Y8923207D01*
X12479520Y8904087D01*
X12554087Y8829520D01*
X12587513Y8810222D01*
X12645410Y8776794D01*
X12645412Y8776794D01*
X12645413Y8776793D01*
X12725747Y8755268D01*
X12747269Y8749501D01*
X12747270Y8749500D01*
X12747273Y8749500D01*
X12852730Y8749500D01*
X12852730Y8749501D01*
X12954587Y8776793D01*
X13045913Y8829520D01*
X13120480Y8904087D01*
X13173207Y8995413D01*
X13200499Y9097270D01*
X13200500Y9097270D01*
X13200500Y9202730D01*
X13200499Y9202731D01*
X13173207Y9304586D01*
X13173206Y9304590D01*
X13120479Y9395914D01*
X13045913Y9470480D01*
X12954589Y9523207D01*
X12954585Y9523208D01*
X12852730Y9550500D01*
X12852727Y9550500D01*
X12747273Y9550500D01*
X12747270Y9550500D01*
X12645414Y9523208D01*
X12645410Y9523207D01*
X12554086Y9470480D01*
X12554086Y9470479D01*
X12479521Y9395914D01*
X12479520Y9395914D01*
X12426793Y9304590D01*
X12426792Y9304586D01*
X12399500Y9202731D01*
X300500Y9202731D01*
X300500Y10152730D01*
X3499500Y10152730D01*
X3499500Y10047270D01*
X3499501Y10047269D01*
X3526793Y9945414D01*
X3526794Y9945410D01*
X3579521Y9854086D01*
X3654087Y9779520D01*
X3745411Y9726793D01*
X3745415Y9726792D01*
X3847270Y9699500D01*
X3847273Y9699500D01*
X3952731Y9699500D01*
X4054586Y9726792D01*
X4054590Y9726793D01*
X4145914Y9779520D01*
X4145914Y9779521D01*
X4220479Y9854086D01*
X4220480Y9854086D01*
X4273207Y9945410D01*
X4273208Y9945414D01*
X4300500Y10047269D01*
X4300500Y10152730D01*
X4273208Y10254585D01*
X4273207Y10254589D01*
X4220480Y10345913D01*
X4145914Y10420479D01*
X4145913Y10420480D01*
X4101860Y10445914D01*
X4071394Y10463504D01*
X4054590Y10473206D01*
X4054588Y10473206D01*
X4054587Y10473207D01*
X4029122Y10480030D01*
X3952730Y10500500D01*
X3952727Y10500500D01*
X3847273Y10500500D01*
X3847270Y10500500D01*
X3786157Y10484124D01*
X3745413Y10473207D01*
X3654087Y10420480D01*
X3579520Y10345913D01*
X3526793Y10254587D01*
X3499501Y10152730D01*
X3499500Y10152730D01*
X300500Y10152730D01*
X300500Y10702730D01*
X599500Y10702730D01*
X599500Y10597270D01*
X599501Y10597269D01*
X624832Y10502730D01*
X626793Y10495414D01*
X626794Y10495410D01*
X679521Y10404086D01*
X754087Y10329520D01*
X845411Y10276793D01*
X845415Y10276792D01*
X947270Y10249500D01*
X947273Y10249500D01*
X1052731Y10249500D01*
X1154586Y10276792D01*
X1154590Y10276793D01*
X1245914Y10329520D01*
X1245914Y10329521D01*
X1320479Y10404086D01*
X1320480Y10404086D01*
X1373207Y10495410D01*
X1373208Y10495414D01*
X1375168Y10502730D01*
X13899500Y10502730D01*
X13899500Y10397269D01*
X13926792Y10295414D01*
X13926793Y10295410D01*
X13979520Y10204086D01*
X14054086Y10129521D01*
X14054086Y10129520D01*
X14145410Y10076793D01*
X14145414Y10076792D01*
X14247269Y10049500D01*
X14247273Y10049500D01*
X14352730Y10049500D01*
X14454585Y10076792D01*
X14454589Y10076793D01*
X14545913Y10129520D01*
X14620479Y10204086D01*
X14648564Y10252730D01*
X17199500Y10252730D01*
X17199500Y10147269D01*
X17226792Y10045414D01*
X17226793Y10045410D01*
X17279520Y9954086D01*
X17354086Y9879521D01*
X17354086Y9879520D01*
X17445410Y9826793D01*
X17445414Y9826792D01*
X17547269Y9799500D01*
X17547273Y9799500D01*
X17652730Y9799500D01*
X17754585Y9826792D01*
X17754589Y9826793D01*
X17845913Y9879520D01*
X17920479Y9954086D01*
X17973206Y10045410D01*
X17973207Y10045414D01*
X17973705Y10047270D01*
X18000499Y10147269D01*
X18000500Y10147270D01*
X18000500Y10252730D01*
X17984124Y10313843D01*
X17973207Y10354587D01*
X17920480Y10445913D01*
X17845913Y10520480D01*
X17754587Y10573207D01*
X17713843Y10584124D01*
X17652730Y10600500D01*
X17652727Y10600500D01*
X17547273Y10600500D01*
X17547270Y10600500D01*
X17470878Y10580030D01*
X17445413Y10573207D01*
X17445412Y10573206D01*
X17445410Y10573206D01*
X17387513Y10539778D01*
X17354087Y10520480D01*
X17354086Y10520479D01*
X17279520Y10445913D01*
X17226793Y10354589D01*
X17226792Y10354585D01*
X17199500Y10252730D01*
X14648564Y10252730D01*
X14664562Y10280439D01*
X14673206Y10295410D01*
X14673207Y10295414D01*
X14686739Y10345914D01*
X14700499Y10397269D01*
X14700500Y10397270D01*
X14700500Y10502730D01*
X14681615Y10573207D01*
X14673207Y10604587D01*
X14620480Y10695913D01*
X14545913Y10770480D01*
X14454587Y10823207D01*
X14413843Y10834124D01*
X14352730Y10850500D01*
X14352727Y10850500D01*
X14247273Y10850500D01*
X14247270Y10850500D01*
X14170878Y10830030D01*
X14145413Y10823207D01*
X14145412Y10823206D01*
X14145410Y10823206D01*
X14112296Y10804087D01*
X14054087Y10770480D01*
X14054086Y10770479D01*
X13979520Y10695913D01*
X13926793Y10604589D01*
X13926792Y10604585D01*
X13899500Y10502730D01*
X1375168Y10502730D01*
X1400500Y10597269D01*
X1400500Y10702730D01*
X1373208Y10804585D01*
X1373207Y10804589D01*
X1320480Y10895913D01*
X1245914Y10970479D01*
X1245913Y10970480D01*
X1199513Y10997269D01*
X1154590Y11023206D01*
X1154588Y11023206D01*
X1154587Y11023207D01*
X1129122Y11030030D01*
X1052730Y11050500D01*
X1052727Y11050500D01*
X947273Y11050500D01*
X947270Y11050500D01*
X886157Y11034124D01*
X845413Y11023207D01*
X754087Y10970480D01*
X679520Y10895913D01*
X626793Y10804587D01*
X599501Y10702730D01*
X599500Y10702730D01*
X300500Y10702730D01*
X300500Y11602730D01*
X499500Y11602730D01*
X499500Y11497270D01*
X499501Y11497269D01*
X520076Y11420480D01*
X526793Y11395414D01*
X526794Y11395410D01*
X579521Y11304086D01*
X654087Y11229520D01*
X745411Y11176793D01*
X745415Y11176792D01*
X847270Y11149500D01*
X847273Y11149500D01*
X952731Y11149500D01*
X964786Y11152730D01*
X6049500Y11152730D01*
X6049500Y11047270D01*
X6049501Y11047269D01*
X6070076Y10970480D01*
X6076793Y10945414D01*
X6076794Y10945410D01*
X6129521Y10854086D01*
X6204087Y10779520D01*
X6295411Y10726793D01*
X6295415Y10726792D01*
X6397270Y10699500D01*
X6397273Y10699500D01*
X6502731Y10699500D01*
X6604586Y10726792D01*
X6604590Y10726793D01*
X6695914Y10779520D01*
X6695914Y10779521D01*
X6770479Y10854086D01*
X6770480Y10854086D01*
X6823207Y10945410D01*
X6823208Y10945414D01*
X6850500Y11047269D01*
X6850500Y11102730D01*
X17649500Y11102730D01*
X17649500Y10997269D01*
X17676792Y10895414D01*
X17676793Y10895410D01*
X17729520Y10804086D01*
X17804086Y10729521D01*
X17804086Y10729520D01*
X17895410Y10676793D01*
X17895414Y10676792D01*
X17997269Y10649500D01*
X17997273Y10649500D01*
X18102730Y10649500D01*
X18204585Y10676792D01*
X18204589Y10676793D01*
X18295913Y10729520D01*
X18370479Y10804086D01*
X18370768Y10804585D01*
X18399347Y10854086D01*
X18423206Y10895410D01*
X18423207Y10895414D01*
X18436604Y10945410D01*
X18450499Y10997269D01*
X18450500Y10997270D01*
X18450500Y11102730D01*
X18434124Y11163843D01*
X18423207Y11204587D01*
X18370480Y11295913D01*
X18295913Y11370480D01*
X18204587Y11423207D01*
X18163843Y11434124D01*
X18102730Y11450500D01*
X18102727Y11450500D01*
X17997273Y11450500D01*
X17997270Y11450500D01*
X17920878Y11430030D01*
X17895413Y11423207D01*
X17895412Y11423206D01*
X17895410Y11423206D01*
X17847274Y11395414D01*
X17804087Y11370480D01*
X17804086Y11370479D01*
X17729520Y11295913D01*
X17676793Y11204589D01*
X17676792Y11204585D01*
X17649500Y11102730D01*
X6850500Y11102730D01*
X6850500Y11152730D01*
X6823208Y11254585D01*
X6823207Y11254589D01*
X6770480Y11345913D01*
X6695914Y11420479D01*
X6695913Y11420480D01*
X6643917Y11450500D01*
X6604590Y11473206D01*
X6604588Y11473206D01*
X6604587Y11473207D01*
X6579122Y11480030D01*
X6502730Y11500500D01*
X6502727Y11500500D01*
X6397273Y11500500D01*
X6397270Y11500500D01*
X6336157Y11484124D01*
X6295413Y11473207D01*
X6204087Y11420480D01*
X6129520Y11345913D01*
X6076793Y11254587D01*
X6049501Y11152730D01*
X6049500Y11152730D01*
X964786Y11152730D01*
X1054586Y11176792D01*
X1054590Y11176793D01*
X1091967Y11198374D01*
X1145914Y11229520D01*
X1145914Y11229521D01*
X1220479Y11304086D01*
X1220480Y11304086D01*
X1273207Y11395410D01*
X1273208Y11395414D01*
X1300500Y11497269D01*
X1300500Y11602730D01*
X1273208Y11704585D01*
X1273207Y11704589D01*
X1220480Y11795913D01*
X1145914Y11870479D01*
X1145913Y11870480D01*
X1087704Y11904087D01*
X1071394Y11913504D01*
X1054590Y11923206D01*
X1054588Y11923206D01*
X1054587Y11923207D01*
X1029122Y11930030D01*
X952730Y11950500D01*
X952727Y11950500D01*
X847273Y11950500D01*
X847270Y11950500D01*
X786157Y11934124D01*
X745413Y11923207D01*
X654087Y11870480D01*
X579520Y11795913D01*
X526793Y11704587D01*
X499501Y11602730D01*
X499500Y11602730D01*
X300500Y11602730D01*
X300500Y11952730D01*
X7349500Y11952730D01*
X7349500Y11847270D01*
X7349501Y11847269D01*
X7363261Y11795914D01*
X7376793Y11745414D01*
X7376794Y11745410D01*
X7429521Y11654086D01*
X7504087Y11579520D01*
X7595411Y11526793D01*
X7595415Y11526792D01*
X7697270Y11499500D01*
X7697273Y11499500D01*
X7802731Y11499500D01*
X7904586Y11526792D01*
X7904590Y11526793D01*
X7995914Y11579520D01*
X7995914Y11579521D01*
X8070479Y11654086D01*
X8070480Y11654086D01*
X8123207Y11745410D01*
X8123208Y11745414D01*
X8150500Y11847269D01*
X8150500Y11952730D01*
X8123208Y12054585D01*
X8123207Y12054589D01*
X8070480Y12145913D01*
X8013663Y12202730D01*
X9399500Y12202730D01*
X9399500Y12097270D01*
X9399501Y12097269D01*
X9426793Y11995414D01*
X9426794Y11995410D01*
X9479521Y11904086D01*
X9554087Y11829520D01*
X9645411Y11776793D01*
X9645415Y11776792D01*
X9747269Y11749500D01*
X9747273Y11749500D01*
X9852730Y11749500D01*
X9954585Y11776792D01*
X9954589Y11776793D01*
X10045913Y11829520D01*
X10120479Y11904086D01*
X10173206Y11995410D01*
X10173207Y11995414D01*
X10200499Y12097269D01*
X10200500Y12097270D01*
X10200500Y12202730D01*
X10174302Y12300500D01*
X10173207Y12304587D01*
X10120480Y12395913D01*
X10045913Y12470480D01*
X9954587Y12523207D01*
X9913843Y12534124D01*
X9852730Y12550500D01*
X9852727Y12550500D01*
X9747273Y12550500D01*
X9747270Y12550500D01*
X9686157Y12534124D01*
X9645413Y12523207D01*
X9554087Y12470480D01*
X9479520Y12395913D01*
X9426793Y12304587D01*
X9399501Y12202730D01*
X9399500Y12202730D01*
X8013663Y12202730D01*
X7995914Y12220479D01*
X7995913Y12220480D01*
X7941679Y12251792D01*
X7904590Y12273206D01*
X7904588Y12273206D01*
X7904587Y12273207D01*
X7879122Y12280030D01*
X7802730Y12300500D01*
X7802727Y12300500D01*
X7697273Y12300500D01*
X7697270Y12300500D01*
X7636157Y12284124D01*
X7595413Y12273207D01*
X7504087Y12220480D01*
X7429520Y12145913D01*
X7376793Y12054587D01*
X7349501Y11952730D01*
X7349500Y11952730D01*
X300500Y11952730D01*
X300500Y12852730D01*
X749500Y12852730D01*
X749500Y12747270D01*
X749501Y12747269D01*
X776793Y12645414D01*
X776794Y12645410D01*
X803301Y12599500D01*
X819020Y12572273D01*
X829521Y12554086D01*
X904087Y12479520D01*
X995411Y12426793D01*
X995415Y12426792D01*
X1097270Y12399500D01*
X1097273Y12399500D01*
X1202731Y12399500D01*
X1304586Y12426792D01*
X1304590Y12426793D01*
X1395914Y12479520D01*
X1395914Y12479521D01*
X1470479Y12554086D01*
X1470480Y12554086D01*
X1523207Y12645410D01*
X1523208Y12645414D01*
X1550500Y12747269D01*
X1550500Y12852730D01*
X1523208Y12954585D01*
X1523207Y12954588D01*
X1482265Y13025500D01*
X1470480Y13045913D01*
X1463663Y13052730D01*
X3199500Y13052730D01*
X3199500Y12947270D01*
X3199501Y12947269D01*
X3224832Y12852730D01*
X3226793Y12845414D01*
X3226794Y12845410D01*
X3260222Y12787513D01*
X3264796Y12779589D01*
X3279521Y12754086D01*
X3354087Y12679520D01*
X3445411Y12626793D01*
X3445415Y12626792D01*
X3547270Y12599500D01*
X3547273Y12599500D01*
X3652731Y12599500D01*
X3754586Y12626792D01*
X3754590Y12626793D01*
X3845914Y12679520D01*
X3845914Y12679521D01*
X3920479Y12754086D01*
X3920480Y12754086D01*
X3973207Y12845410D01*
X3973208Y12845414D01*
X4000500Y12947269D01*
X4000500Y13052730D01*
X5649500Y13052730D01*
X5649500Y12947270D01*
X5649501Y12947269D01*
X5674832Y12852730D01*
X5676793Y12845414D01*
X5676794Y12845410D01*
X5710222Y12787513D01*
X5714796Y12779589D01*
X5729521Y12754086D01*
X5804087Y12679520D01*
X5895411Y12626793D01*
X5895415Y12626792D01*
X5997270Y12599500D01*
X5997273Y12599500D01*
X6102731Y12599500D01*
X6204586Y12626792D01*
X6204590Y12626793D01*
X6295914Y12679520D01*
X6295914Y12679521D01*
X6370479Y12754086D01*
X6370480Y12754086D01*
X6423207Y12845410D01*
X6423208Y12845414D01*
X6450500Y12947269D01*
X6450500Y13052730D01*
X6426243Y13143257D01*
X6423705Y13152730D01*
X11149500Y13152730D01*
X11149500Y13047269D01*
X11176792Y12945414D01*
X11176793Y12945410D01*
X11229520Y12854086D01*
X11304086Y12779521D01*
X11304086Y12779520D01*
X11395410Y12726793D01*
X11395414Y12726792D01*
X11497269Y12699500D01*
X11497273Y12699500D01*
X11602730Y12699500D01*
X11704585Y12726792D01*
X11704589Y12726793D01*
X11795913Y12779520D01*
X11870479Y12854086D01*
X11923206Y12945410D01*
X11923207Y12945414D01*
X11923225Y12945479D01*
X11950499Y13047269D01*
X11950500Y13047270D01*
X11950500Y13152730D01*
X11925531Y13245913D01*
X11923207Y13254587D01*
X11870480Y13345913D01*
X11795913Y13420480D01*
X11704587Y13473207D01*
X11663843Y13484124D01*
X11602730Y13500500D01*
X11602727Y13500500D01*
X11497273Y13500500D01*
X11497270Y13500500D01*
X11420878Y13480030D01*
X11395413Y13473207D01*
X11395412Y13473206D01*
X11395410Y13473206D01*
X11362296Y13454087D01*
X11304087Y13420480D01*
X11304086Y13420479D01*
X11229520Y13345913D01*
X11176793Y13254589D01*
X11176792Y13254585D01*
X11149500Y13152730D01*
X6423705Y13152730D01*
X6423208Y13154586D01*
X6423207Y13154589D01*
X6370480Y13245913D01*
X6295914Y13320479D01*
X6295913Y13320480D01*
X6245649Y13349500D01*
X6204590Y13373206D01*
X6204588Y13373206D01*
X6204587Y13373207D01*
X6179122Y13380030D01*
X6102730Y13400500D01*
X6102727Y13400500D01*
X5997273Y13400500D01*
X5997270Y13400500D01*
X5936157Y13384124D01*
X5895413Y13373207D01*
X5804087Y13320480D01*
X5729520Y13245913D01*
X5676793Y13154587D01*
X5649501Y13052730D01*
X5649500Y13052730D01*
X4000500Y13052730D01*
X3973208Y13154585D01*
X3973207Y13154589D01*
X3920480Y13245913D01*
X3845914Y13320479D01*
X3845913Y13320480D01*
X3795649Y13349500D01*
X3754590Y13373206D01*
X3754588Y13373206D01*
X3754587Y13373207D01*
X3729122Y13380030D01*
X3652730Y13400500D01*
X3652727Y13400500D01*
X3547273Y13400500D01*
X3547270Y13400500D01*
X3486157Y13384124D01*
X3445413Y13373207D01*
X3354087Y13320480D01*
X3279520Y13245913D01*
X3226793Y13154587D01*
X3199501Y13052730D01*
X3199500Y13052730D01*
X1463663Y13052730D01*
X1395913Y13120480D01*
X1356462Y13143257D01*
X1304590Y13173206D01*
X1304588Y13173206D01*
X1304587Y13173207D01*
X1279122Y13180030D01*
X1202730Y13200500D01*
X1202727Y13200500D01*
X1097273Y13200500D01*
X1097270Y13200500D01*
X1036157Y13184124D01*
X995413Y13173207D01*
X904087Y13120480D01*
X829520Y13045913D01*
X776793Y12954587D01*
X749501Y12852730D01*
X749500Y12852730D01*
X300500Y12852730D01*
X300500Y13802730D01*
X7649500Y13802730D01*
X7649500Y13697270D01*
X7649501Y13697269D01*
X7676793Y13595414D01*
X7676794Y13595410D01*
X7729521Y13504086D01*
X7804087Y13429520D01*
X7895411Y13376793D01*
X7895415Y13376792D01*
X7997270Y13349500D01*
X7997273Y13349500D01*
X8102731Y13349500D01*
X8204586Y13376792D01*
X8204590Y13376793D01*
X8295914Y13429520D01*
X8295914Y13429521D01*
X8370479Y13504086D01*
X8370480Y13504086D01*
X8423207Y13595410D01*
X8423208Y13595414D01*
X8450500Y13697269D01*
X8450500Y13752730D01*
X12199500Y13752730D01*
X12199500Y13647269D01*
X12226792Y13545414D01*
X12226793Y13545410D01*
X12279520Y13454086D01*
X12354086Y13379521D01*
X12354086Y13379520D01*
X12445410Y13326793D01*
X12445414Y13326792D01*
X12547269Y13299500D01*
X12547273Y13299500D01*
X12652730Y13299500D01*
X12754585Y13326792D01*
X12754589Y13326793D01*
X12845913Y13379520D01*
X12920479Y13454086D01*
X12973206Y13545410D01*
X12973207Y13545414D01*
X12986604Y13595410D01*
X13000499Y13647269D01*
X13000500Y13647270D01*
X13000500Y13752730D01*
X12984124Y13813843D01*
X12973207Y13854587D01*
X12920480Y13945913D01*
X12845913Y14020480D01*
X12754587Y14073207D01*
X12713843Y14084124D01*
X12652730Y14100500D01*
X12652727Y14100500D01*
X12547273Y14100500D01*
X12547270Y14100500D01*
X12470878Y14080030D01*
X12445413Y14073207D01*
X12445412Y14073206D01*
X12445410Y14073206D01*
X12397274Y14045414D01*
X12354087Y14020480D01*
X12354086Y14020479D01*
X12279520Y13945913D01*
X12226793Y13854589D01*
X12226792Y13854585D01*
X12199500Y13752730D01*
X8450500Y13752730D01*
X8450500Y13802730D01*
X8423208Y13904585D01*
X8423207Y13904589D01*
X8370480Y13995913D01*
X8295914Y14070479D01*
X8295913Y14070480D01*
X8243917Y14100500D01*
X8204590Y14123206D01*
X8204588Y14123206D01*
X8204587Y14123207D01*
X8179122Y14130030D01*
X8102730Y14150500D01*
X8102727Y14150500D01*
X7997273Y14150500D01*
X7997270Y14150500D01*
X7936157Y14134124D01*
X7895413Y14123207D01*
X7804087Y14070480D01*
X7729520Y13995913D01*
X7676793Y13904587D01*
X7649501Y13802730D01*
X7649500Y13802730D01*
X300500Y13802730D01*
X300500Y15002730D01*
X7349500Y15002730D01*
X7349500Y14897270D01*
X7349501Y14897269D01*
X7367770Y14829086D01*
X7376793Y14795414D01*
X7376794Y14795410D01*
X7429521Y14704086D01*
X7504087Y14629520D01*
X7595411Y14576793D01*
X7595415Y14576792D01*
X7697270Y14549500D01*
X7697273Y14549500D01*
X7802731Y14549500D01*
X7904586Y14576792D01*
X7904590Y14576793D01*
X7995914Y14629520D01*
X7995914Y14629521D01*
X8070479Y14704086D01*
X8070480Y14704086D01*
X8123207Y14795410D01*
X8123208Y14795414D01*
X8150500Y14897269D01*
X8150500Y15002730D01*
X8123208Y15104585D01*
X8122138Y15106438D01*
X8122138Y15106439D01*
X8109846Y15127730D01*
X9574500Y15127730D01*
X9574500Y15022270D01*
X9574501Y15022269D01*
X9601793Y14920414D01*
X9601794Y14920410D01*
X9654520Y14829086D01*
X9729086Y14754521D01*
X9729086Y14754520D01*
X9820410Y14701793D01*
X9820414Y14701792D01*
X9922269Y14674500D01*
X9922273Y14674500D01*
X10027730Y14674500D01*
X10129585Y14701792D01*
X10129589Y14701793D01*
X10220913Y14754520D01*
X10295479Y14829086D01*
X10348206Y14920410D01*
X10348207Y14920414D01*
X10375499Y15022269D01*
X10375500Y15022270D01*
X10375500Y15127730D01*
X10357230Y15195913D01*
X10348207Y15229587D01*
X10295480Y15320913D01*
X10220913Y15395480D01*
X10129587Y15448207D01*
X10088843Y15459124D01*
X10027730Y15475500D01*
X10027727Y15475500D01*
X9922273Y15475500D01*
X9922270Y15475500D01*
X9845878Y15455030D01*
X9820413Y15448207D01*
X9820412Y15448206D01*
X9820410Y15448206D01*
X9783321Y15426792D01*
X9729087Y15395480D01*
X9729086Y15395479D01*
X9654520Y15320913D01*
X9625403Y15270480D01*
X9601793Y15229587D01*
X9574501Y15127730D01*
X9574500Y15127730D01*
X8109846Y15127730D01*
X8070480Y15195913D01*
X8048480Y15217913D01*
X8034128Y15252561D01*
X8048480Y15287209D01*
X8083128Y15301561D01*
X8095808Y15299892D01*
X8097271Y15299500D01*
X8097273Y15299500D01*
X8202731Y15299500D01*
X8304586Y15326792D01*
X8304590Y15326793D01*
X8395914Y15379520D01*
X8395914Y15379521D01*
X8470479Y15454086D01*
X8470480Y15454086D01*
X8523207Y15545410D01*
X8523208Y15545414D01*
X8550500Y15647269D01*
X8550500Y15752730D01*
X8523208Y15854585D01*
X8523207Y15854589D01*
X8470480Y15945913D01*
X8395914Y16020479D01*
X8395913Y16020480D01*
X8351860Y16045914D01*
X8321394Y16063504D01*
X8304590Y16073206D01*
X8304588Y16073206D01*
X8304587Y16073207D01*
X8279122Y16080030D01*
X8202730Y16100500D01*
X8202727Y16100500D01*
X8097273Y16100500D01*
X8097270Y16100500D01*
X8036157Y16084124D01*
X7995413Y16073207D01*
X7904087Y16020480D01*
X7829520Y15945913D01*
X7776793Y15854587D01*
X7749501Y15752730D01*
X7749500Y15752730D01*
X7749500Y15647270D01*
X7749501Y15647269D01*
X7776793Y15545414D01*
X7776794Y15545410D01*
X7829521Y15454086D01*
X7851521Y15432086D01*
X7865873Y15397438D01*
X7851521Y15362790D01*
X7816873Y15348438D01*
X7804186Y15350109D01*
X7802727Y15350500D01*
X7697273Y15350500D01*
X7697270Y15350500D01*
X7636157Y15334124D01*
X7595413Y15323207D01*
X7595412Y15323206D01*
X7595411Y15323206D01*
X7583177Y15316142D01*
X7504087Y15270480D01*
X7429520Y15195913D01*
X7376793Y15104587D01*
X7349501Y15002730D01*
X7349500Y15002730D01*
X300500Y15002730D01*
X300500Y15852730D01*
X5899500Y15852730D01*
X5899500Y15747270D01*
X5899501Y15747269D01*
X5926295Y15647270D01*
X5926793Y15645414D01*
X5926794Y15645410D01*
X5979521Y15554086D01*
X6054087Y15479520D01*
X6145411Y15426793D01*
X6145415Y15426792D01*
X6247270Y15399500D01*
X6247273Y15399500D01*
X6352731Y15399500D01*
X6454586Y15426792D01*
X6454590Y15426793D01*
X6545914Y15479520D01*
X6545914Y15479521D01*
X6620479Y15554086D01*
X6620480Y15554086D01*
X6673207Y15645410D01*
X6673208Y15645414D01*
X6700500Y15747269D01*
X6700500Y15852730D01*
X6672612Y15956810D01*
X6677507Y15993992D01*
X6707260Y16016822D01*
X6732624Y16016822D01*
X6797270Y15999500D01*
X6797273Y15999500D01*
X6902731Y15999500D01*
X7004586Y16026792D01*
X7004590Y16026793D01*
X7095914Y16079520D01*
X7095914Y16079521D01*
X7119123Y16102730D01*
X10849500Y16102730D01*
X10849500Y15997269D01*
X10876792Y15895414D01*
X10876793Y15895410D01*
X10929520Y15804086D01*
X11004086Y15729521D01*
X11004086Y15729520D01*
X11095410Y15676793D01*
X11095414Y15676792D01*
X11197269Y15649500D01*
X11197273Y15649500D01*
X11302730Y15649500D01*
X11404585Y15676792D01*
X11404589Y15676793D01*
X11495913Y15729520D01*
X11570479Y15804086D01*
X11623206Y15895410D01*
X11623207Y15895414D01*
X11636739Y15945914D01*
X11650499Y15997269D01*
X11650500Y15997270D01*
X11650500Y16102730D01*
X11631615Y16173207D01*
X11623207Y16204587D01*
X11570480Y16295913D01*
X11495913Y16370480D01*
X11404587Y16423207D01*
X11363843Y16434124D01*
X11302730Y16450500D01*
X11302727Y16450500D01*
X11197273Y16450500D01*
X11197270Y16450500D01*
X11120878Y16430030D01*
X11095413Y16423207D01*
X11095412Y16423206D01*
X11095410Y16423206D01*
X11037513Y16389778D01*
X11004087Y16370480D01*
X11004086Y16370479D01*
X10929520Y16295913D01*
X10876793Y16204589D01*
X10876792Y16204585D01*
X10849500Y16102730D01*
X7119123Y16102730D01*
X7170479Y16154086D01*
X7170480Y16154086D01*
X7223207Y16245410D01*
X7223208Y16245414D01*
X7250500Y16347269D01*
X7250500Y16452730D01*
X7223208Y16554585D01*
X7223207Y16554589D01*
X7170480Y16645913D01*
X7095914Y16720479D01*
X7095913Y16720480D01*
X7062487Y16739778D01*
X7004590Y16773206D01*
X7004588Y16773206D01*
X7004587Y16773207D01*
X6979122Y16780030D01*
X6902730Y16800500D01*
X6902727Y16800500D01*
X6797273Y16800500D01*
X6797270Y16800500D01*
X6736157Y16784124D01*
X6695413Y16773207D01*
X6604087Y16720480D01*
X6529520Y16645913D01*
X6476793Y16554587D01*
X6449501Y16452730D01*
X6449500Y16452730D01*
X6449500Y16347270D01*
X6449501Y16347269D01*
X6477389Y16243189D01*
X6472494Y16206007D01*
X6442741Y16183177D01*
X6417378Y16183177D01*
X6384749Y16191919D01*
X6352729Y16200500D01*
X6352727Y16200500D01*
X6247273Y16200500D01*
X6247270Y16200500D01*
X6186157Y16184124D01*
X6145413Y16173207D01*
X6054087Y16120480D01*
X5979520Y16045913D01*
X5926793Y15954587D01*
X5899501Y15852730D01*
X5899500Y15852730D01*
X300500Y15852730D01*
X300500Y17002730D01*
X7399500Y17002730D01*
X7399500Y16897270D01*
X7399501Y16897269D01*
X7424335Y16804585D01*
X7426793Y16795414D01*
X7426794Y16795410D01*
X7479521Y16704086D01*
X7554087Y16629520D01*
X7645411Y16576793D01*
X7645415Y16576792D01*
X7747270Y16549500D01*
X7747273Y16549500D01*
X7852731Y16549500D01*
X7954586Y16576792D01*
X7954590Y16576793D01*
X8045914Y16629520D01*
X8045914Y16629521D01*
X8069123Y16652730D01*
X8749500Y16652730D01*
X8749500Y16547270D01*
X8749501Y16547269D01*
X8774832Y16452730D01*
X8776793Y16445414D01*
X8776794Y16445410D01*
X8829521Y16354086D01*
X8904087Y16279520D01*
X8995411Y16226793D01*
X8995415Y16226792D01*
X9097270Y16199500D01*
X9097273Y16199500D01*
X9202731Y16199500D01*
X9304586Y16226792D01*
X9304590Y16226793D01*
X9395914Y16279520D01*
X9395914Y16279521D01*
X9470479Y16354086D01*
X9470480Y16354086D01*
X9523207Y16445410D01*
X9523208Y16445414D01*
X9550500Y16547269D01*
X9550500Y16652730D01*
X9649500Y16652730D01*
X9649500Y16547270D01*
X9649501Y16547269D01*
X9676792Y16445414D01*
X9676793Y16445410D01*
X9729520Y16354086D01*
X9804086Y16279521D01*
X9804086Y16279520D01*
X9895410Y16226793D01*
X9895414Y16226792D01*
X9997269Y16199500D01*
X9997273Y16199500D01*
X10102730Y16199500D01*
X10204585Y16226792D01*
X10204589Y16226793D01*
X10295913Y16279520D01*
X10370479Y16354086D01*
X10423206Y16445410D01*
X10423207Y16445414D01*
X10425168Y16452730D01*
X10450499Y16547269D01*
X10450500Y16547270D01*
X10450500Y16652730D01*
X10439641Y16693257D01*
X10437102Y16702730D01*
X11649500Y16702730D01*
X11649500Y16597269D01*
X11676792Y16495414D01*
X11676793Y16495410D01*
X11729520Y16404086D01*
X11804086Y16329521D01*
X11804086Y16329520D01*
X11895410Y16276793D01*
X11895414Y16276792D01*
X11997269Y16249500D01*
X11997273Y16249500D01*
X12102730Y16249500D01*
X12204585Y16276792D01*
X12204589Y16276793D01*
X12295913Y16329520D01*
X12370479Y16404086D01*
X12423206Y16495410D01*
X12423207Y16495414D01*
X12450499Y16597269D01*
X12450500Y16597270D01*
X12450500Y16702730D01*
X12425665Y16795413D01*
X12423207Y16804587D01*
X12370480Y16895913D01*
X12295913Y16970480D01*
X12204587Y17023207D01*
X12163843Y17034124D01*
X12102730Y17050500D01*
X12102727Y17050500D01*
X11997273Y17050500D01*
X11997270Y17050500D01*
X11920878Y17030030D01*
X11895413Y17023207D01*
X11895412Y17023206D01*
X11895410Y17023206D01*
X11859715Y17002597D01*
X11804087Y16970480D01*
X11804086Y16970479D01*
X11729520Y16895913D01*
X11676793Y16804589D01*
X11676792Y16804585D01*
X11649500Y16702730D01*
X10437102Y16702730D01*
X10429518Y16731032D01*
X10423207Y16754587D01*
X10370480Y16845913D01*
X10295913Y16920480D01*
X10204587Y16973207D01*
X10163843Y16984124D01*
X10102730Y17000500D01*
X10102727Y17000500D01*
X9997273Y17000500D01*
X9997270Y17000500D01*
X9920878Y16980030D01*
X9895413Y16973207D01*
X9895412Y16973206D01*
X9895410Y16973206D01*
X9862171Y16954015D01*
X9804087Y16920480D01*
X9804086Y16920479D01*
X9729520Y16845913D01*
X9676793Y16754589D01*
X9676792Y16754585D01*
X9649501Y16652730D01*
X9649500Y16652730D01*
X9550500Y16652730D01*
X9523208Y16754585D01*
X9523207Y16754589D01*
X9470480Y16845913D01*
X9395914Y16920479D01*
X9395913Y16920480D01*
X9337829Y16954015D01*
X9304590Y16973206D01*
X9304588Y16973206D01*
X9304587Y16973207D01*
X9279122Y16980030D01*
X9202730Y17000500D01*
X9202727Y17000500D01*
X9097273Y17000500D01*
X9097270Y17000500D01*
X9036157Y16984124D01*
X8995413Y16973207D01*
X8904087Y16920480D01*
X8829520Y16845913D01*
X8776793Y16754587D01*
X8749501Y16652730D01*
X8749500Y16652730D01*
X8069123Y16652730D01*
X8120479Y16704086D01*
X8120480Y16704086D01*
X8173207Y16795410D01*
X8173208Y16795414D01*
X8200500Y16897269D01*
X8200500Y17002730D01*
X8173208Y17104585D01*
X8173207Y17104589D01*
X8120480Y17195913D01*
X8045914Y17270479D01*
X8045913Y17270480D01*
X7991769Y17301740D01*
X7954590Y17323206D01*
X7954588Y17323206D01*
X7954587Y17323207D01*
X7929122Y17330030D01*
X7852730Y17350500D01*
X7852727Y17350500D01*
X7747273Y17350500D01*
X7747270Y17350500D01*
X7686157Y17334124D01*
X7645413Y17323207D01*
X7554087Y17270480D01*
X7479520Y17195913D01*
X7426793Y17104587D01*
X7399501Y17002730D01*
X7399500Y17002730D01*
X300500Y17002730D01*
X300500Y17298243D01*
X300625Y17301740D01*
X317554Y17538361D01*
X318549Y17545281D01*
X368607Y17775373D01*
X370577Y17782080D01*
X378279Y17802730D01*
X13949500Y17802730D01*
X13949500Y17697269D01*
X13976792Y17595414D01*
X13976793Y17595410D01*
X14029520Y17504086D01*
X14104086Y17429521D01*
X14104086Y17429520D01*
X14195410Y17376793D01*
X14195414Y17376792D01*
X14297269Y17349500D01*
X14297273Y17349500D01*
X14402730Y17349500D01*
X14504585Y17376792D01*
X14504589Y17376793D01*
X14595913Y17429520D01*
X14670479Y17504086D01*
X14723206Y17595410D01*
X14723207Y17595414D01*
X14750499Y17697269D01*
X14750500Y17697270D01*
X14750500Y17802730D01*
X14734124Y17863843D01*
X14723207Y17904587D01*
X14670480Y17995913D01*
X14595913Y18070480D01*
X14504587Y18123207D01*
X14463843Y18134124D01*
X14402730Y18150500D01*
X14402727Y18150500D01*
X14297273Y18150500D01*
X14297270Y18150500D01*
X14220878Y18130030D01*
X14195413Y18123207D01*
X14195412Y18123206D01*
X14195410Y18123206D01*
X14176521Y18112300D01*
X14104087Y18070480D01*
X14104086Y18070479D01*
X14029520Y17995913D01*
X13976793Y17904589D01*
X13976792Y17904585D01*
X13949500Y17802730D01*
X378279Y17802730D01*
X385863Y17823063D01*
X452866Y18002699D01*
X455770Y18009059D01*
X568625Y18215733D01*
X572405Y18221614D01*
X713518Y18410118D01*
X718096Y18415401D01*
X884599Y18581904D01*
X889882Y18586482D01*
X1078386Y18727595D01*
X1084267Y18731375D01*
X1290941Y18844230D01*
X1297301Y18847134D01*
X1517920Y18929423D01*
X1524627Y18931393D01*
X1707236Y18971120D01*
X1754721Y18981451D01*
X1761639Y18982446D01*
X1998260Y18999375D01*
X2001757Y18999500D01*
X7464811Y18999500D01*
X7499459Y18985148D01*
G37*
%TD.AperFunction*%
%TD*%
M02*
