%TF.GenerationSoftware,KiCad,Pcbnew,10.0.5*%
%TF.CreationDate,2026-08-28T14:55:01-07:00*%
%TF.ProjectId,pcb-v3-handoff,7063622d-7633-42d6-9861-6e646f66662e,rev?*%
%TF.SameCoordinates,PXff6cc0b0PY933f50*%
%TF.FileFunction,Legend,Bot*%
%TF.FilePolarity,Positive*%
%FSLAX46Y46*%
G04 Gerber Fmt 4.6, Leading zero omitted, Abs format (unit mm)*
G04 Created by KiCad (PCBNEW 10.0.5) date 2026-08-28 14:55:01*
%MOMM*%
%LPD*%
G01*
G04 APERTURE LIST*
%ADD10C,0.240000*%
%ADD11C,0.120000*%
G04 APERTURE END LIST*
D10*
X870000Y7550000D02*
G75*
G02*
X630000Y7550000I-120000J0D01*
G01*
X630000Y7550000D02*
G75*
G02*
X870000Y7550000I120000J0D01*
G01*
X1670000Y17770000D02*
G75*
G02*
X1430000Y17770000I-120000J0D01*
G01*
X1430000Y17770000D02*
G75*
G02*
X1670000Y17770000I120000J0D01*
G01*
X12320000Y17750000D02*
G75*
G02*
X12080000Y17750000I-120000J0D01*
G01*
X12080000Y17750000D02*
G75*
G02*
X12320000Y17750000I120000J0D01*
G01*
D11*
X14083332Y2832407D02*
X13683332Y2832407D01*
X13883332Y2132407D02*
X13883332Y2832407D01*
X13349999Y2132407D02*
X13416666Y2165740D01*
X13416666Y2165740D02*
X13449999Y2199074D01*
X13449999Y2199074D02*
X13483332Y2265740D01*
X13483332Y2265740D02*
X13483332Y2465740D01*
X13483332Y2465740D02*
X13449999Y2532407D01*
X13449999Y2532407D02*
X13416666Y2565740D01*
X13416666Y2565740D02*
X13349999Y2599074D01*
X13349999Y2599074D02*
X13249999Y2599074D01*
X13249999Y2599074D02*
X13183332Y2565740D01*
X13183332Y2565740D02*
X13149999Y2532407D01*
X13149999Y2532407D02*
X13116666Y2465740D01*
X13116666Y2465740D02*
X13116666Y2265740D01*
X13116666Y2265740D02*
X13149999Y2199074D01*
X13149999Y2199074D02*
X13183332Y2165740D01*
X13183332Y2165740D02*
X13249999Y2132407D01*
X13249999Y2132407D02*
X13349999Y2132407D01*
X12516666Y2599074D02*
X12516666Y2132407D01*
X12816666Y2599074D02*
X12816666Y2232407D01*
X12816666Y2232407D02*
X12783333Y2165740D01*
X12783333Y2165740D02*
X12716666Y2132407D01*
X12716666Y2132407D02*
X12616666Y2132407D01*
X12616666Y2132407D02*
X12549999Y2165740D01*
X12549999Y2165740D02*
X12516666Y2199074D01*
X11883333Y2165740D02*
X11950000Y2132407D01*
X11950000Y2132407D02*
X12083333Y2132407D01*
X12083333Y2132407D02*
X12150000Y2165740D01*
X12150000Y2165740D02*
X12183333Y2199074D01*
X12183333Y2199074D02*
X12216666Y2265740D01*
X12216666Y2265740D02*
X12216666Y2465740D01*
X12216666Y2465740D02*
X12183333Y2532407D01*
X12183333Y2532407D02*
X12150000Y2565740D01*
X12150000Y2565740D02*
X12083333Y2599074D01*
X12083333Y2599074D02*
X11950000Y2599074D01*
X11950000Y2599074D02*
X11883333Y2565740D01*
X11583333Y2132407D02*
X11583333Y2832407D01*
X11283333Y2132407D02*
X11283333Y2499074D01*
X11283333Y2499074D02*
X11316666Y2565740D01*
X11316666Y2565740D02*
X11383333Y2599074D01*
X11383333Y2599074D02*
X11483333Y2599074D01*
X11483333Y2599074D02*
X11550000Y2565740D01*
X11550000Y2565740D02*
X11583333Y2532407D01*
X10950000Y2132407D02*
X10950000Y2832407D01*
X10616667Y2132407D02*
X10616667Y2832407D01*
X10616667Y2832407D02*
X10450000Y2832407D01*
X10450000Y2832407D02*
X10350000Y2799074D01*
X10350000Y2799074D02*
X10283334Y2732407D01*
X10283334Y2732407D02*
X10250000Y2665740D01*
X10250000Y2665740D02*
X10216667Y2532407D01*
X10216667Y2532407D02*
X10216667Y2432407D01*
X10216667Y2432407D02*
X10250000Y2299074D01*
X10250000Y2299074D02*
X10283334Y2232407D01*
X10283334Y2232407D02*
X10350000Y2165740D01*
X10350000Y2165740D02*
X10450000Y2132407D01*
X10450000Y2132407D02*
X10616667Y2132407D01*
X9450001Y2599074D02*
X9283335Y2132407D01*
X9283335Y2132407D02*
X9116668Y2599074D01*
X8916668Y2832407D02*
X8483335Y2832407D01*
X8483335Y2832407D02*
X8716668Y2565740D01*
X8716668Y2565740D02*
X8616668Y2565740D01*
X8616668Y2565740D02*
X8550002Y2532407D01*
X8550002Y2532407D02*
X8516668Y2499074D01*
X8516668Y2499074D02*
X8483335Y2432407D01*
X8483335Y2432407D02*
X8483335Y2265740D01*
X8483335Y2265740D02*
X8516668Y2199074D01*
X8516668Y2199074D02*
X8550002Y2165740D01*
X8550002Y2165740D02*
X8616668Y2132407D01*
X8616668Y2132407D02*
X8816668Y2132407D01*
X8816668Y2132407D02*
X8883335Y2165740D01*
X8883335Y2165740D02*
X8916668Y2199074D01*
X7683335Y2765740D02*
X7650002Y2799074D01*
X7650002Y2799074D02*
X7583335Y2832407D01*
X7583335Y2832407D02*
X7416668Y2832407D01*
X7416668Y2832407D02*
X7350002Y2799074D01*
X7350002Y2799074D02*
X7316668Y2765740D01*
X7316668Y2765740D02*
X7283335Y2699074D01*
X7283335Y2699074D02*
X7283335Y2632407D01*
X7283335Y2632407D02*
X7316668Y2532407D01*
X7316668Y2532407D02*
X7716668Y2132407D01*
X7716668Y2132407D02*
X7283335Y2132407D01*
X6850001Y2832407D02*
X6783335Y2832407D01*
X6783335Y2832407D02*
X6716668Y2799074D01*
X6716668Y2799074D02*
X6683335Y2765740D01*
X6683335Y2765740D02*
X6650001Y2699074D01*
X6650001Y2699074D02*
X6616668Y2565740D01*
X6616668Y2565740D02*
X6616668Y2399074D01*
X6616668Y2399074D02*
X6650001Y2265740D01*
X6650001Y2265740D02*
X6683335Y2199074D01*
X6683335Y2199074D02*
X6716668Y2165740D01*
X6716668Y2165740D02*
X6783335Y2132407D01*
X6783335Y2132407D02*
X6850001Y2132407D01*
X6850001Y2132407D02*
X6916668Y2165740D01*
X6916668Y2165740D02*
X6950001Y2199074D01*
X6950001Y2199074D02*
X6983335Y2265740D01*
X6983335Y2265740D02*
X7016668Y2399074D01*
X7016668Y2399074D02*
X7016668Y2565740D01*
X7016668Y2565740D02*
X6983335Y2699074D01*
X6983335Y2699074D02*
X6950001Y2765740D01*
X6950001Y2765740D02*
X6916668Y2799074D01*
X6916668Y2799074D02*
X6850001Y2832407D01*
X6350001Y2765740D02*
X6316668Y2799074D01*
X6316668Y2799074D02*
X6250001Y2832407D01*
X6250001Y2832407D02*
X6083334Y2832407D01*
X6083334Y2832407D02*
X6016668Y2799074D01*
X6016668Y2799074D02*
X5983334Y2765740D01*
X5983334Y2765740D02*
X5950001Y2699074D01*
X5950001Y2699074D02*
X5950001Y2632407D01*
X5950001Y2632407D02*
X5983334Y2532407D01*
X5983334Y2532407D02*
X6383334Y2132407D01*
X6383334Y2132407D02*
X5950001Y2132407D01*
X5350001Y2832407D02*
X5483334Y2832407D01*
X5483334Y2832407D02*
X5550001Y2799074D01*
X5550001Y2799074D02*
X5583334Y2765740D01*
X5583334Y2765740D02*
X5650001Y2665740D01*
X5650001Y2665740D02*
X5683334Y2532407D01*
X5683334Y2532407D02*
X5683334Y2265740D01*
X5683334Y2265740D02*
X5650001Y2199074D01*
X5650001Y2199074D02*
X5616667Y2165740D01*
X5616667Y2165740D02*
X5550001Y2132407D01*
X5550001Y2132407D02*
X5416667Y2132407D01*
X5416667Y2132407D02*
X5350001Y2165740D01*
X5350001Y2165740D02*
X5316667Y2199074D01*
X5316667Y2199074D02*
X5283334Y2265740D01*
X5283334Y2265740D02*
X5283334Y2432407D01*
X5283334Y2432407D02*
X5316667Y2499074D01*
X5316667Y2499074D02*
X5350001Y2532407D01*
X5350001Y2532407D02*
X5416667Y2565740D01*
X5416667Y2565740D02*
X5550001Y2565740D01*
X5550001Y2565740D02*
X5616667Y2532407D01*
X5616667Y2532407D02*
X5650001Y2499074D01*
X5650001Y2499074D02*
X5683334Y2432407D01*
X11385714Y3239883D02*
X11385714Y4139883D01*
X11385714Y3282740D02*
X11471428Y3239883D01*
X11471428Y3239883D02*
X11642856Y3239883D01*
X11642856Y3239883D02*
X11728571Y3282740D01*
X11728571Y3282740D02*
X11771428Y3325598D01*
X11771428Y3325598D02*
X11814285Y3411312D01*
X11814285Y3411312D02*
X11814285Y3668455D01*
X11814285Y3668455D02*
X11771428Y3754169D01*
X11771428Y3754169D02*
X11728571Y3797026D01*
X11728571Y3797026D02*
X11642856Y3839883D01*
X11642856Y3839883D02*
X11471428Y3839883D01*
X11471428Y3839883D02*
X11385714Y3797026D01*
X10957142Y3239883D02*
X10957142Y3839883D01*
X10957142Y3668455D02*
X10914285Y3754169D01*
X10914285Y3754169D02*
X10871428Y3797026D01*
X10871428Y3797026D02*
X10785713Y3839883D01*
X10785713Y3839883D02*
X10699999Y3839883D01*
X10399999Y3239883D02*
X10399999Y3839883D01*
X10399999Y4139883D02*
X10442856Y4097026D01*
X10442856Y4097026D02*
X10399999Y4054169D01*
X10399999Y4054169D02*
X10357142Y4097026D01*
X10357142Y4097026D02*
X10399999Y4139883D01*
X10399999Y4139883D02*
X10399999Y4054169D01*
X10057142Y3839883D02*
X9842856Y3239883D01*
X9842856Y3239883D02*
X9628572Y3839883D01*
X8942858Y3282740D02*
X9028572Y3239883D01*
X9028572Y3239883D02*
X9200000Y3239883D01*
X9200000Y3239883D02*
X9285715Y3282740D01*
X9285715Y3282740D02*
X9328572Y3368455D01*
X9328572Y3368455D02*
X9328572Y3711312D01*
X9328572Y3711312D02*
X9285715Y3797026D01*
X9285715Y3797026D02*
X9200000Y3839883D01*
X9200000Y3839883D02*
X9028572Y3839883D01*
X9028572Y3839883D02*
X8942858Y3797026D01*
X8942858Y3797026D02*
X8900000Y3711312D01*
X8900000Y3711312D02*
X8900000Y3625598D01*
X8900000Y3625598D02*
X9328572Y3539883D01*
X8514286Y3239883D02*
X8514286Y3839883D01*
X8514286Y3668455D02*
X8471429Y3754169D01*
X8471429Y3754169D02*
X8428571Y3797026D01*
X8428571Y3797026D02*
X8342857Y3839883D01*
X8342857Y3839883D02*
X8257143Y3839883D01*
X7785714Y4139883D02*
X7700000Y4139883D01*
X7700000Y4139883D02*
X7614286Y4097026D01*
X7614286Y4097026D02*
X7571428Y4054169D01*
X7571428Y4054169D02*
X7528571Y3968455D01*
X7528571Y3968455D02*
X7485714Y3797026D01*
X7485714Y3797026D02*
X7485714Y3582740D01*
X7485714Y3582740D02*
X7528571Y3411312D01*
X7528571Y3411312D02*
X7571428Y3325598D01*
X7571428Y3325598D02*
X7614286Y3282740D01*
X7614286Y3282740D02*
X7700000Y3239883D01*
X7700000Y3239883D02*
X7785714Y3239883D01*
X7785714Y3239883D02*
X7871428Y3282740D01*
X7871428Y3282740D02*
X7914286Y3325598D01*
X7914286Y3325598D02*
X7957143Y3411312D01*
X7957143Y3411312D02*
X8000000Y3582740D01*
X8000000Y3582740D02*
X8000000Y3797026D01*
X8000000Y3797026D02*
X7957143Y3968455D01*
X7957143Y3968455D02*
X7914286Y4054169D01*
X7914286Y4054169D02*
X7871428Y4097026D01*
X7871428Y4097026D02*
X7785714Y4139883D01*
M02*
