%TF.GenerationSoftware,KiCad,Pcbnew,10.0.5*%
%TF.CreationDate,2026-08-28T14:10:42-07:00*%
%TF.ProjectId,pcb-v3-handoff,7063622d-7633-42d6-9861-6e646f66662e,rev?*%
%TF.SameCoordinates,Original*%
%TF.FileFunction,Copper,L2,Inr*%
%TF.FilePolarity,Positive*%
%FSLAX46Y46*%
G04 Gerber Fmt 4.6, Leading zero omitted, Abs format (unit mm)*
G04 Created by KiCad (PCBNEW 10.0.5) date 2026-08-28 14:10:42*
%MOMM*%
%LPD*%
G01*
G04 APERTURE LIST*
%TA.AperFunction,ViaPad*%
%ADD10C,0.600000*%
%TD*%
%TA.AperFunction,Conductor*%
%ADD11C,0.200000*%
%TD*%
%TA.AperFunction,Conductor*%
%ADD12C,0.400000*%
%TD*%
%TA.AperFunction,Conductor*%
%ADD13C,0.127000*%
%TD*%
G04 APERTURE END LIST*
D10*
%TO.N,BL_FLAG*%
X100000Y8850000D03*
X-3350000Y6150000D03*
%TO.N,BL_RETURN*%
X400000Y6950000D03*
%TO.N,GND*%
X-5800000Y8300000D03*
X5600000Y8700000D03*
X5100000Y1900000D03*
X2800000Y8600000D03*
X3550000Y-4500000D03*
X7050000Y2250000D03*
X-4050000Y-450000D03*
X-6900000Y8900000D03*
X7650000Y-7250000D03*
X-6250000Y6000000D03*
X-5600000Y-4000000D03*
X1100000Y8600000D03*
X-600000Y-3700000D03*
X5850000Y-7000000D03*
%TO.N,HARV_1*%
X3350000Y-2200000D03*
X5000000Y-3500000D03*
X2400000Y7000000D03*
%TO.N,HARV_2*%
X6000000Y-4450000D03*
%TO.N,HARV_3*%
X2950000Y4050000D03*
X2200000Y-1600000D03*
X6100000Y-6150000D03*
%TO.N,OK_PROG*%
X9000000Y4550000D03*
X8400000Y1400000D03*
%TO.N,RESET*%
X-3550000Y-3700000D03*
X3150000Y-500000D03*
X-1850000Y9000000D03*
%TO.N,SENSOR_3V3*%
X-1600000Y4100000D03*
X325000Y5425000D03*
X-2800000Y6750000D03*
X4700000Y8100000D03*
X-6400000Y-4050000D03*
X-3200000Y1450000D03*
%TO.N,SENSOR_MCU_3V3*%
X-7100000Y-3600000D03*
X-7500000Y-5650000D03*
%TO.N,SENSOR_RX*%
X7650000Y-4650000D03*
X-1900000Y5300000D03*
%TO.N,SENSOR_TX*%
X7600000Y-3050000D03*
X-1500000Y6050000D03*
%TO.N,SENSOR_WAKEUP*%
X-3600000Y3350000D03*
X-8200000Y-4400000D03*
%TO.N,SWCLK*%
X-6000000Y-3000000D03*
%TO.N,SWDIO*%
X3850000Y-2850000D03*
%TO.N,VBAT*%
X1900000Y3450000D03*
X-8750000Y1900000D03*
X-1900000Y2250000D03*
X7950000Y550000D03*
%TO.N,VBAT_OK*%
X-500000Y6950000D03*
X-8650000Y1000000D03*
X8950000Y2975000D03*
%TO.N,VBAT_SENSE*%
X-8500000Y3150000D03*
X-6050000Y3350000D03*
%TO.N,VIN_DC*%
X7000000Y-8200000D03*
X6050000Y-5350000D03*
X3800000Y-1150000D03*
%TO.N,VSTOR*%
X-1850000Y7300000D03*
X-5750000Y450000D03*
X-4300000Y-4050000D03*
X6050000Y-7950000D03*
X150000Y2500000D03*
X-4950000Y-1100000D03*
X1600000Y6400000D03*
X4650000Y800000D03*
%TD*%
%TO.N,BL_FLAG*%
D11*
X-1800000Y8300000D02*
X-1750000Y8350000D01*
X-3300000Y6950000D02*
X-3300000Y7050000D01*
X-1750000Y8350000D02*
X-400000Y8350000D01*
X-400000Y8350000D02*
X100000Y8850000D01*
X-3350000Y6150000D02*
X-3350000Y6900000D01*
X-3350000Y6900000D02*
X-3300000Y6950000D01*
X-2050000Y8300000D02*
X-1800000Y8300000D01*
X-3300000Y7050000D02*
X-2050000Y8300000D01*
%TO.N,HARV_1*%
X3350000Y-2200000D02*
X3450000Y-2300000D01*
X3450000Y-2300000D02*
X4100000Y-2300000D01*
X4100000Y-2300000D02*
X5000000Y-3200000D01*
X5000000Y-3200000D02*
X5000000Y-3500000D01*
%TO.N,HARV_3*%
X6600000Y-5650000D02*
X6100000Y-6150000D01*
X3450000Y-1600000D02*
X3500000Y-1650000D01*
X4250000Y-1900000D02*
X6550000Y-4200000D01*
X3500000Y-1650000D02*
X3600000Y-1650000D01*
X6550000Y-4300000D02*
X6600000Y-4350000D01*
X6550000Y-4200000D02*
X6550000Y-4300000D01*
X2200000Y-1600000D02*
X3450000Y-1600000D01*
X3850000Y-1900000D02*
X4250000Y-1900000D01*
X3600000Y-1650000D02*
X3850000Y-1900000D01*
X6600000Y-4350000D02*
X6600000Y-5650000D01*
%TO.N,RESET*%
X-3950000Y6350000D02*
X-3700000Y6600000D01*
X-3700000Y7150000D02*
X-1850000Y9000000D01*
X-1950000Y3300000D02*
X-1950000Y3350000D01*
X-1950000Y3350000D02*
X-3950000Y5350000D01*
X-3700000Y6600000D02*
X-3700000Y7150000D01*
X-1650000Y500000D02*
X-1250000Y900000D01*
X-1600000Y2900000D02*
X-1800000Y3100000D01*
X-3550000Y-3700000D02*
X-1650000Y-1800000D01*
X-3950000Y5350000D02*
X-3950000Y6350000D01*
X-1650000Y500000D02*
X-650000Y-500000D01*
X-1800000Y3100000D02*
X-1800000Y3150000D01*
X-650000Y-500000D02*
X3150000Y-500000D01*
X-1600000Y2850000D02*
X-1600000Y2900000D01*
X-1250000Y900000D02*
X-1250000Y2450000D01*
X-1400000Y2600000D02*
X-1400000Y2650000D01*
X-1400000Y2650000D02*
X-1600000Y2850000D01*
X-1800000Y3150000D02*
X-1950000Y3300000D01*
X-1250000Y2450000D02*
X-1400000Y2600000D01*
X-1650000Y-1800000D02*
X-1650000Y500000D01*
%TO.N,SENSOR_3V3*%
X-6500000Y-3400000D02*
X-6500000Y-3950000D01*
D12*
X2025000Y5425000D02*
X4700000Y8100000D01*
D11*
X-6600000Y-1950000D02*
X-6600000Y-3300000D01*
X-2750000Y5250000D02*
X-2750000Y6700000D01*
X-6600000Y-3300000D02*
X-6500000Y-3400000D01*
X-1600000Y4100000D02*
X-2750000Y5250000D01*
X-3200000Y1450000D02*
X-6600000Y-1950000D01*
D12*
X325000Y5425000D02*
X2025000Y5425000D01*
%TO.N,SENSOR_MCU_3V3*%
X-7450000Y-5600000D02*
X-7450000Y-3950000D01*
X-7450000Y-3950000D02*
X-7100000Y-3600000D01*
%TO.N,SENSOR_RX*%
D11*
X-1900000Y5300000D02*
X7650000Y-4250000D01*
X7650000Y-4250000D02*
X7650000Y-4650000D01*
%TO.N,SENSOR_TX*%
X-1500000Y6050000D02*
X7600000Y-3050000D01*
%TO.N,SENSOR_WAKEUP*%
X-8200000Y-1250000D02*
X-8200000Y-4400000D01*
X-3600000Y3350000D02*
X-8200000Y-1250000D01*
%TO.N,VBAT*%
X-3850000Y3900000D02*
X-5850000Y1900000D01*
X-5850000Y1900000D02*
X-8750000Y1900000D01*
X-3350000Y3900000D02*
X-3850000Y3900000D01*
X-1900000Y2250000D02*
X-3000000Y3350000D01*
X-3000000Y3550000D02*
X-3350000Y3900000D01*
X-3000000Y3350000D02*
X-3000000Y3550000D01*
X1900000Y3450000D02*
X5050000Y3450000D01*
X5050000Y3450000D02*
X7950000Y550000D01*
%TO.N,VBAT_OK*%
D13*
X-175000Y5350000D02*
X-150000Y5325000D01*
X-150000Y5325000D02*
X-150000Y5275000D01*
X-175000Y6625000D02*
X-175000Y5350000D01*
X-125000Y5250000D02*
X-125000Y5200000D01*
X3125000Y4500000D02*
X3175000Y4500000D01*
X3175000Y4500000D02*
X3225000Y4450000D01*
X3250000Y4450000D02*
X3975000Y3725000D01*
X-125000Y5200000D02*
X550000Y4525000D01*
X5150000Y3700000D02*
X5175000Y3700000D01*
X550000Y4525000D02*
X3100000Y4525000D01*
X3100000Y4525000D02*
X3125000Y4500000D01*
X5900000Y2975000D02*
X8950000Y2975000D01*
X5125000Y3725000D02*
X5150000Y3700000D01*
X-500000Y6950000D02*
X-175000Y6625000D01*
X3975000Y3725000D02*
X5125000Y3725000D01*
X-150000Y5275000D02*
X-125000Y5250000D01*
X3225000Y4450000D02*
X3250000Y4450000D01*
X5175000Y3700000D02*
X5900000Y2975000D01*
%TO.N,VBAT_SENSE*%
D11*
X-8300000Y3350000D02*
X-6050000Y3350000D01*
X-8500000Y3150000D02*
X-8300000Y3350000D01*
%TO.N,VSTOR*%
D12*
X8400000Y-5600000D02*
X6050000Y-7950000D01*
X-1850000Y7300000D02*
X-1550000Y7600000D01*
X750000Y7600000D02*
X1600000Y6750000D01*
X4650000Y800000D02*
X8400000Y-2950000D01*
X-4300000Y-1750000D02*
X-4300000Y-4050000D01*
X-1550000Y7600000D02*
X750000Y7600000D01*
X8400000Y-2950000D02*
X8400000Y-5600000D01*
X-4950000Y-1100000D02*
X-4300000Y-1750000D01*
X1600000Y6750000D02*
X1600000Y6400000D01*
%TD*%
M02*
