M48
; DRILL file KiCad 10.0.5 date 2026-08-28T14:09:31
; FORMAT={-:-/ absolute / metric / decimal}
; #@! TF.CreationDate,2026-08-28T14:09:31-07:00
; #@! TF.GenerationSoftware,Kicad,Pcbnew,10.0.5
; #@! TF.FileFunction,Plated,1,4,PTH
FMAT,2
METRIC
; #@! TA.AperFunction,Plated,PTH,ViaDrill
T1C0.300
%
G90
G05
T1
X-8.75Y1.9
X-8.65Y1.0
X-8.5Y3.15
X-8.2Y-4.4
X-7.5Y-5.65
X-7.1Y-3.6
X-6.9Y8.9
X-6.4Y-4.05
X-6.25Y6.0
X-6.05Y3.35
X-6.0Y-3.0
X-5.8Y8.3
X-5.75Y0.45
X-5.6Y-4.0
X-4.95Y-1.1
X-4.3Y-4.05
X-4.05Y-0.45
X-3.6Y3.35
X-3.55Y-3.7
X-3.35Y6.15
X-3.2Y1.45
X-2.8Y6.75
X-1.9Y5.3
X-1.9Y2.25
X-1.85Y9.0
X-1.85Y7.3
X-1.6Y4.1
X-1.5Y6.05
X-0.6Y-3.7
X-0.5Y6.95
X0.1Y8.85
X0.15Y2.5
X0.325Y5.425
X0.4Y6.95
X1.1Y8.6
X1.6Y6.4
X1.9Y3.45
X2.2Y-1.6
X2.4Y7.0
X2.8Y8.6
X2.95Y4.05
X3.15Y-0.5
X3.35Y-2.2
X3.55Y-4.5
X3.8Y-1.15
X3.85Y-2.85
X4.65Y0.8
X4.7Y8.1
X5.0Y-3.5
X5.1Y1.9
X5.6Y8.7
X5.85Y-7.0
X6.0Y-4.45
X6.05Y-5.35
X6.05Y-7.95
X6.1Y-6.15
X7.0Y-8.2
X7.05Y2.25
X7.6Y-3.05
X7.65Y-4.65
X7.65Y-7.25
X7.95Y0.55
X8.4Y1.4
X8.95Y2.975
X9.0Y4.55
M30
