%TF.GenerationSoftware,KiCad,Pcbnew,10.0.5*%
%TF.CreationDate,2026-08-28T14:10:42-07:00*%
%TF.ProjectId,pcb-v3-handoff,7063622d-7633-42d6-9861-6e646f66662e,rev?*%
%TF.SameCoordinates,Original*%
%TF.FileFunction,Paste,Top*%
%TF.FilePolarity,Positive*%
%FSLAX46Y46*%
G04 Gerber Fmt 4.6, Leading zero omitted, Abs format (unit mm)*
G04 Created by KiCad (PCBNEW 10.0.5) date 2026-08-28 14:10:42*
%MOMM*%
%LPD*%
G01*
G04 APERTURE LIST*
G04 Aperture macros list*
%AMRoundRect*
0 Rectangle with rounded corners*
0 $1 Rounding radius*
0 $2 $3 $4 $5 $6 $7 $8 $9 X,Y pos of 4 corners*
0 Add a 4 corners polygon primitive as box body*
4,1,4,$2,$3,$4,$5,$6,$7,$8,$9,$2,$3,0*
0 Add four circle primitives for the rounded corners*
1,1,$1+$1,$2,$3*
1,1,$1+$1,$4,$5*
1,1,$1+$1,$6,$7*
1,1,$1+$1,$8,$9*
0 Add four rect primitives between the rounded corners*
20,1,$1+$1,$2,$3,$4,$5,0*
20,1,$1+$1,$4,$5,$6,$7,0*
20,1,$1+$1,$6,$7,$8,$9,0*
20,1,$1+$1,$8,$9,$2,$3,0*%
%AMFreePoly0*
4,1,6,0.180000,0.074999,0.000001,-0.105000,-0.180000,-0.105000,-0.180000,0.105000,0.180000,0.105000,0.180000,0.074999,0.180000,0.074999,$1*%
%AMFreePoly1*
4,1,6,0.180000,-0.074999,0.180000,-0.105000,-0.180000,-0.105000,-0.180000,0.105000,0.000001,0.105000,0.180000,-0.074999,0.180000,-0.074999,$1*%
%AMFreePoly2*
4,1,6,0.180000,-0.105000,-0.180000,-0.105000,-0.180000,-0.074999,-0.000001,0.105000,0.180000,0.105000,0.180000,-0.105000,0.180000,-0.105000,$1*%
%AMFreePoly3*
4,1,6,0.180000,-0.105000,-0.000001,-0.105000,-0.180000,0.074999,-0.180000,0.105000,0.180000,0.105000,0.180000,-0.105000,0.180000,-0.105000,$1*%
G04 Aperture macros list end*
%ADD10R,1.200000X2.200000*%
%ADD11FreePoly0,0.000000*%
%ADD12FreePoly1,0.000000*%
%ADD13FreePoly2,0.000000*%
%ADD14FreePoly3,0.000000*%
%ADD15RoundRect,0.007500X0.000000X-0.307591X0.307591X0.000000X0.000000X0.307591X-0.307591X0.000000X0*%
%ADD16RoundRect,0.125000X-0.125000X-0.145000X0.125000X-0.145000X0.125000X0.145000X-0.125000X0.145000X0*%
%ADD17R,0.600000X0.400000*%
%ADD18R,0.400000X0.600000*%
%ADD19RoundRect,0.200000X-0.200000X-0.250000X0.200000X-0.250000X0.200000X0.250000X-0.200000X0.250000X0*%
%ADD20R,0.600000X0.240000*%
%ADD21R,0.240000X0.600000*%
%ADD22R,2.050000X2.050000*%
G04 APERTURE END LIST*
D10*
%TO.C,L1*%
X5781800Y-1030000D03*
X7838200Y-1030000D03*
%TD*%
D11*
%TO.C,U4*%
X-8040000Y575000D03*
D12*
X-8040000Y-75000D03*
D13*
X-7180000Y-75000D03*
D14*
X-7180000Y575000D03*
D15*
X-7610000Y250000D03*
%TD*%
D16*
%TO.C,ROV2*%
X5900000Y5763000D03*
X5900000Y6603000D03*
%TD*%
%TO.C,R7*%
X-500000Y7480000D03*
X-500000Y8320000D03*
%TD*%
%TO.C,ROK3*%
X6800000Y5763000D03*
X6800000Y6603000D03*
%TD*%
%TO.C,C13*%
X-5000000Y7480000D03*
X-5000000Y8320000D03*
%TD*%
%TO.C,R2*%
X6000000Y-4539000D03*
X6000000Y-3699000D03*
%TD*%
%TO.C,R3*%
X6000000Y-6256000D03*
X6000000Y-5416000D03*
%TD*%
%TO.C,ROV1*%
X5000000Y5763000D03*
X5000000Y6603000D03*
%TD*%
%TO.C,R6*%
X400000Y7480000D03*
X400000Y8320000D03*
%TD*%
D17*
%TO.C,U1*%
X-5450000Y-4750000D03*
X-5450000Y-3650000D03*
X-4550000Y750000D03*
X-4550000Y1550000D03*
D18*
X-5600000Y6150000D03*
X-4800000Y6150000D03*
X-2800000Y5250000D03*
X-1600000Y6150000D03*
X-1200000Y5250000D03*
X-800000Y6150000D03*
X800000Y6150000D03*
X1600000Y6150000D03*
X3200000Y6150000D03*
X4000000Y6150000D03*
D17*
X2950000Y2350000D03*
X3850000Y-2850000D03*
X3850000Y-3650000D03*
X3850000Y-4750000D03*
%TD*%
D16*
%TO.C,R4*%
X-3200000Y7480000D03*
X-3200000Y8320000D03*
%TD*%
%TO.C,C12*%
X-8620000Y3050000D03*
X-7780000Y3050000D03*
%TD*%
%TO.C,R5*%
X-5900000Y7480000D03*
X-5900000Y8320000D03*
%TD*%
%TO.C,R1*%
X5000000Y-3570000D03*
X5000000Y-2730000D03*
%TD*%
%TO.C,C1*%
X6900000Y-8270000D03*
X6900000Y-7430000D03*
%TD*%
%TO.C,C6*%
X-4100000Y7480000D03*
X-4100000Y8320000D03*
%TD*%
%TO.C,C10*%
X6000000Y-8020000D03*
X6000000Y-7180000D03*
%TD*%
%TO.C,C2*%
X-2300000Y7480000D03*
X-2300000Y8320000D03*
%TD*%
%TO.C,C4*%
X3100000Y7480000D03*
X3100000Y8320000D03*
%TD*%
D19*
%TO.C,C5*%
X-8310000Y1920000D03*
X-6910000Y1920000D03*
%TD*%
D20*
%TO.C,U2*%
X5160000Y1980000D03*
X5160000Y2480000D03*
X5160000Y2980000D03*
X5160000Y3480000D03*
X5160000Y3980000D03*
D21*
X5810000Y4630000D03*
X6310000Y4630000D03*
X6810000Y4630000D03*
X7310000Y4630000D03*
X7810000Y4630000D03*
D20*
X8460000Y3980000D03*
X8460000Y3480000D03*
X8460000Y2980000D03*
X8460000Y2480000D03*
X8460000Y1980000D03*
D21*
X7810000Y1330000D03*
X7310000Y1330000D03*
X6810000Y1330000D03*
X6310000Y1330000D03*
X5810000Y1330000D03*
D22*
X6810000Y2980000D03*
%TD*%
D11*
%TO.C,U3*%
X-8040000Y-1225000D03*
D12*
X-8040000Y-1875000D03*
D13*
X-7180000Y-1875000D03*
D14*
X-7180000Y-1225000D03*
D15*
X-7610000Y-1550000D03*
%TD*%
D19*
%TO.C,C7*%
X4600000Y7900000D03*
X6000000Y7900000D03*
%TD*%
D16*
%TO.C,ROK1*%
X7800000Y-8270000D03*
X7800000Y-7430000D03*
%TD*%
%TO.C,C3*%
X-1400000Y7480000D03*
X-1400000Y8320000D03*
%TD*%
%TO.C,C9*%
X1300000Y7480000D03*
X1300000Y8320000D03*
%TD*%
%TO.C,ROK2*%
X7730000Y6350000D03*
X8570000Y6350000D03*
%TD*%
%TO.C,C8*%
X-7050000Y-3570000D03*
X-7050000Y-2730000D03*
%TD*%
M02*
