%TF.GenerationSoftware,KiCad,Pcbnew,10.0.5*%
%TF.CreationDate,2026-08-28T14:55:01-07:00*%
%TF.ProjectId,pcb-v3-handoff,7063622d-7633-42d6-9861-6e646f66662e,rev?*%
%TF.SameCoordinates,PXff6cc0b0PY933f50*%
%TF.FileFunction,Soldermask,Top*%
%TF.FilePolarity,Negative*%
%FSLAX46Y46*%
G04 Gerber Fmt 4.6, Leading zero omitted, Abs format (unit mm)*
G04 Created by KiCad (PCBNEW 10.0.5) date 2026-08-28 14:55:01*
%MOMM*%
%LPD*%
G01*
G04 APERTURE LIST*
G04 Aperture macros list*
%AMRoundRect*
0 Rectangle with rounded corners*
0 $1 Rounding radius*
0 $2 $3 $4 $5 $6 $7 $8 $9 X,Y pos of 4 corners*
0 Add a 4 corners polygon primitive as box body*
4,1,4,$2,$3,$4,$5,$6,$7,$8,$9,$2,$3,0*
0 Add four circle primitives for the rounded corners*
1,1,$1+$1,$2,$3*
1,1,$1+$1,$4,$5*
1,1,$1+$1,$6,$7*
1,1,$1+$1,$8,$9*
0 Add four rect primitives between the rounded corners*
20,1,$1+$1,$2,$3,$4,$5,0*
20,1,$1+$1,$4,$5,$6,$7,0*
20,1,$1+$1,$6,$7,$8,$9,0*
20,1,$1+$1,$8,$9,$2,$3,0*%
%AMFreePoly0*
4,1,6,0.180000,0.074999,0.000001,-0.105000,-0.180000,-0.105000,-0.180000,0.105000,0.180000,0.105000,0.180000,0.074999,0.180000,0.074999,$1*%
%AMFreePoly1*
4,1,6,0.180000,-0.074999,0.180000,-0.105000,-0.180000,-0.105000,-0.180000,0.105000,0.000001,0.105000,0.180000,-0.074999,0.180000,-0.074999,$1*%
%AMFreePoly2*
4,1,6,0.180000,-0.105000,-0.180000,-0.105000,-0.180000,-0.074999,-0.000001,0.105000,0.180000,0.105000,0.180000,-0.105000,0.180000,-0.105000,$1*%
%AMFreePoly3*
4,1,6,0.180000,-0.105000,-0.000001,-0.105000,-0.180000,0.074999,-0.180000,0.105000,0.180000,0.105000,0.180000,-0.105000,0.180000,-0.105000,$1*%
G04 Aperture macros list end*
%ADD10R,1.200000X2.200000*%
%ADD11FreePoly0,0.000000*%
%ADD12FreePoly1,0.000000*%
%ADD13FreePoly2,0.000000*%
%ADD14FreePoly3,0.000000*%
%ADD15RoundRect,0.022500X0.000000X-0.307591X0.307591X0.000000X0.000000X0.307591X-0.307591X0.000000X0*%
%ADD16RoundRect,0.125000X-0.125000X-0.145000X0.125000X-0.145000X0.125000X0.145000X-0.125000X0.145000X0*%
%ADD17C,1.300000*%
%ADD18C,1.200000*%
%ADD19R,0.600000X0.400000*%
%ADD20R,0.400000X0.600000*%
%ADD21RoundRect,0.200000X-0.200000X-0.250000X0.200000X-0.250000X0.200000X0.250000X-0.200000X0.250000X0*%
%ADD22R,0.600000X0.240000*%
%ADD23R,0.240000X0.600000*%
%ADD24R,2.050000X2.050000*%
G04 APERTURE END LIST*
D10*
%TO.C,L1*%
X15431800Y8620000D03*
X17488200Y8620000D03*
%TD*%
D11*
%TO.C,U4*%
X1610000Y10225000D03*
D12*
X1610000Y9575000D03*
D13*
X2470000Y9575000D03*
D14*
X2470000Y10225000D03*
D15*
X2040000Y9900000D03*
%TD*%
D16*
%TO.C,ROV2*%
X15550000Y15413000D03*
X15550000Y16253000D03*
%TD*%
%TO.C,R7*%
X9150000Y17130000D03*
X9150000Y17970000D03*
%TD*%
D17*
%TO.C,*%
X17750000Y17750000D03*
%TD*%
D16*
%TO.C,ROK3*%
X16450000Y15413000D03*
X16450000Y16253000D03*
%TD*%
%TO.C,C13*%
X4650000Y17130000D03*
X4650000Y17970000D03*
%TD*%
%TO.C,R2*%
X15650000Y5111000D03*
X15650000Y5951000D03*
%TD*%
%TO.C,R3*%
X15650000Y3394000D03*
X15650000Y4234000D03*
%TD*%
D18*
%TO.C,BT1*%
X2040000Y13950000D03*
X2040000Y15550000D03*
%TD*%
%TO.C,J2*%
X1450000Y6350000D03*
X1450000Y4850000D03*
X1450000Y3350000D03*
X17450000Y6350000D03*
X17450000Y4850000D03*
X17450000Y3350000D03*
%TD*%
D16*
%TO.C,ROV1*%
X14650000Y15413000D03*
X14650000Y16253000D03*
%TD*%
%TO.C,R6*%
X10050000Y17130000D03*
X10050000Y17970000D03*
%TD*%
D19*
%TO.C,U1*%
X4200000Y4900000D03*
X4200000Y6000000D03*
X5100000Y10400000D03*
X5100000Y11200000D03*
D20*
X4050000Y15800000D03*
X4850000Y15800000D03*
X6850000Y14900000D03*
X8050000Y15800000D03*
X8450000Y14900000D03*
X8850000Y15800000D03*
X10450000Y15800000D03*
X11250000Y15800000D03*
X12850000Y15800000D03*
X13650000Y15800000D03*
D19*
X12600000Y12000000D03*
X13500000Y6800000D03*
X13500000Y6000000D03*
X13500000Y4900000D03*
%TD*%
D16*
%TO.C,R4*%
X6450000Y17130000D03*
X6450000Y17970000D03*
%TD*%
%TO.C,C12*%
X1030000Y12700000D03*
X1870000Y12700000D03*
%TD*%
%TO.C,R5*%
X3750000Y17130000D03*
X3750000Y17970000D03*
%TD*%
%TO.C,R1*%
X14650000Y6080000D03*
X14650000Y6920000D03*
%TD*%
%TO.C,C1*%
X16550000Y1380000D03*
X16550000Y2220000D03*
%TD*%
%TO.C,C6*%
X5550000Y17130000D03*
X5550000Y17970000D03*
%TD*%
%TO.C,C10*%
X15650000Y1630000D03*
X15650000Y2470000D03*
%TD*%
%TO.C,C2*%
X7350000Y17130000D03*
X7350000Y17970000D03*
%TD*%
%TO.C,C4*%
X12750000Y17130000D03*
X12750000Y17970000D03*
%TD*%
D21*
%TO.C,C5*%
X1340000Y11570000D03*
X2740000Y11570000D03*
%TD*%
D22*
%TO.C,U2*%
X14810000Y11630000D03*
X14810000Y12130000D03*
X14810000Y12630000D03*
X14810000Y13130000D03*
X14810000Y13630000D03*
D23*
X15460000Y14280000D03*
X15960000Y14280000D03*
X16460000Y14280000D03*
X16960000Y14280000D03*
X17460000Y14280000D03*
D22*
X18110000Y13630000D03*
X18110000Y13130000D03*
X18110000Y12630000D03*
X18110000Y12130000D03*
X18110000Y11630000D03*
D23*
X17460000Y10980000D03*
X16960000Y10980000D03*
X16460000Y10980000D03*
X15960000Y10980000D03*
X15460000Y10980000D03*
D24*
X16460000Y12630000D03*
%TD*%
D11*
%TO.C,U3*%
X1610000Y8425000D03*
D12*
X1610000Y7775000D03*
D13*
X2470000Y7775000D03*
D14*
X2470000Y8425000D03*
D15*
X2040000Y8100000D03*
%TD*%
D21*
%TO.C,C7*%
X14250000Y17550000D03*
X15650000Y17550000D03*
%TD*%
D16*
%TO.C,ROK1*%
X17450000Y1380000D03*
X17450000Y2220000D03*
%TD*%
D17*
%TO.C,*%
X1550000Y1550000D03*
%TD*%
D16*
%TO.C,C3*%
X8250000Y17130000D03*
X8250000Y17970000D03*
%TD*%
%TO.C,C9*%
X10950000Y17130000D03*
X10950000Y17970000D03*
%TD*%
%TO.C,ROK2*%
X17380000Y16000000D03*
X18220000Y16000000D03*
%TD*%
%TO.C,C8*%
X2600000Y6080000D03*
X2600000Y6920000D03*
%TD*%
M02*
