M48
; DRILL file KiCad 10.0.5 date 2026-08-28T14:55:21
; FORMAT={-:-/ absolute / metric / decimal}
; #@! TF.CreationDate,2026-08-28T14:55:21-07:00
; #@! TF.GenerationSoftware,Kicad,Pcbnew,10.0.5
; #@! TF.FileFunction,Plated,1,4,PTH
FMAT,2
METRIC
; #@! TA.AperFunction,Plated,PTH,ViaDrill
T1C0.300
%
G90
G05
T1
X0.9Y11.55
X1.0Y10.65
X1.15Y12.8
X1.45Y5.25
X2.15Y4.0
X2.55Y6.05
X2.75Y18.55
X3.25Y5.6
X3.4Y15.65
X3.6Y13.0
X3.65Y6.65
X3.85Y17.95
X3.9Y10.1
X4.05Y5.65
X4.7Y8.55
X5.35Y5.6
X5.6Y9.2
X6.05Y13.0
X6.1Y5.95
X6.3Y15.8
X6.45Y11.1
X6.85Y16.4
X7.75Y14.95
X7.75Y11.9
X7.8Y18.65
X7.8Y16.95
X8.05Y13.75
X8.15Y15.7
X9.05Y5.95
X9.15Y16.6
X9.75Y18.5
X9.8Y12.15
X9.975Y15.075
X10.05Y16.6
X10.75Y18.25
X11.25Y16.05
X11.55Y13.1
X11.85Y8.05
X12.05Y16.65
X12.45Y18.25
X12.6Y13.7
X12.8Y9.15
X13.0Y7.45
X13.2Y5.15
X13.45Y8.5
X13.5Y6.8
X14.3Y10.45
X14.35Y17.75
X14.65Y6.15
X14.75Y11.55
X15.25Y18.35
X15.5Y2.65
X15.65Y5.2
X15.7Y4.3
X15.7Y1.7
X15.75Y3.5
X16.65Y1.45
X16.7Y11.9
X17.25Y6.6
X17.3Y5.0
X17.3Y2.4
X17.6Y10.2
X18.05Y11.05
X18.6Y12.625
X18.65Y14.2
M30
