G04*
G04 #@! TF.GenerationSoftware,Altium Limited,Altium Designer,26.9.1 (10)*
G04*
G04 Layer_Color=65535*
G04 Board_Origin=0|0*
%FSLAX44Y44*%
%MOMM*%
G71*
G04*
G04 #@! TF.SameCoordinates,3A2E2B53-79CD-4322-A7B0-E900F7DA23FE*
G04*
G04*
G04 #@! TF.FilePolarity,Positive*
G04*
G01*
G75*
%ADD10C,0.2540*%
G36*
X999066Y30394D02*
X999099Y30390D01*
X999136Y30385D01*
X999219Y30362D01*
X999311Y30330D01*
X999357Y30307D01*
X999408Y30274D01*
X999454Y30242D01*
X999505Y30205D01*
X999552Y30159D01*
X999593Y30108D01*
X999598Y30103D01*
X999602Y30094D01*
X999612Y30080D01*
X999630Y30057D01*
X999644Y30025D01*
X999662Y29992D01*
X999686Y29951D01*
X999704Y29900D01*
X999727Y29844D01*
X999746Y29789D01*
X999764Y29720D01*
X999783Y29650D01*
X999797Y29572D01*
X999806Y29488D01*
X999810Y29401D01*
X999815Y29308D01*
Y26664D01*
X999168D01*
Y29294D01*
Y29299D01*
Y29317D01*
Y29345D01*
X999163Y29378D01*
X999159Y29419D01*
X999149Y29461D01*
X999126Y29562D01*
X999108Y29609D01*
X999080Y29660D01*
X999052Y29701D01*
X999020Y29743D01*
X998978Y29775D01*
X998932Y29803D01*
X998877Y29821D01*
X998817Y29826D01*
X998807D01*
X998784Y29821D01*
X998747Y29817D01*
X998701Y29803D01*
X998645Y29775D01*
X998585Y29738D01*
X998525Y29692D01*
X998493Y29660D01*
X998465Y29622D01*
X998461Y29613D01*
X998442Y29590D01*
X998419Y29558D01*
X998391Y29521D01*
X998359Y29479D01*
X998336Y29438D01*
X998317Y29410D01*
X998313Y29387D01*
Y26664D01*
X997665D01*
Y30339D01*
X998313D01*
Y29937D01*
X998327D01*
X998331Y29941D01*
X998340Y29955D01*
X998354Y29978D01*
X998377Y30011D01*
X998400Y30043D01*
X998433Y30085D01*
X998470Y30126D01*
X998516Y30168D01*
X998562Y30210D01*
X998613Y30251D01*
X998669Y30293D01*
X998729Y30325D01*
X998793Y30357D01*
X998858Y30381D01*
X998932Y30394D01*
X999006Y30399D01*
X999043D01*
X999066Y30394D01*
D02*
G37*
G36*
X996131D02*
X996163Y30390D01*
X996200Y30385D01*
X996283Y30362D01*
X996376Y30330D01*
X996422Y30307D01*
X996473Y30274D01*
X996519Y30242D01*
X996570Y30205D01*
X996616Y30159D01*
X996658Y30108D01*
X996662Y30103D01*
X996667Y30094D01*
X996676Y30080D01*
X996695Y30057D01*
X996709Y30025D01*
X996727Y29992D01*
X996750Y29951D01*
X996769Y29900D01*
X996792Y29844D01*
X996810Y29789D01*
X996829Y29720D01*
X996847Y29650D01*
X996861Y29572D01*
X996870Y29488D01*
X996875Y29401D01*
X996880Y29308D01*
Y26664D01*
X996232D01*
Y29294D01*
Y29299D01*
Y29317D01*
Y29345D01*
X996228Y29378D01*
X996223Y29419D01*
X996214Y29461D01*
X996191Y29562D01*
X996172Y29609D01*
X996145Y29660D01*
X996117Y29701D01*
X996085Y29743D01*
X996043Y29775D01*
X995997Y29803D01*
X995941Y29821D01*
X995881Y29826D01*
X995872D01*
X995849Y29821D01*
X995812Y29817D01*
X995766Y29803D01*
X995710Y29775D01*
X995650Y29738D01*
X995590Y29692D01*
X995557Y29660D01*
X995530Y29622D01*
X995525Y29613D01*
X995507Y29590D01*
X995483Y29558D01*
X995456Y29521D01*
X995423Y29479D01*
X995400Y29438D01*
X995382Y29410D01*
X995377Y29387D01*
Y26664D01*
X994730D01*
Y30339D01*
X995377D01*
Y29937D01*
X995391D01*
X995396Y29941D01*
X995405Y29955D01*
X995419Y29978D01*
X995442Y30011D01*
X995465Y30043D01*
X995497Y30085D01*
X995534Y30126D01*
X995581Y30168D01*
X995627Y30210D01*
X995678Y30251D01*
X995733Y30293D01*
X995793Y30325D01*
X995858Y30357D01*
X995923Y30381D01*
X995997Y30394D01*
X996071Y30399D01*
X996108D01*
X996131Y30394D01*
D02*
G37*
G36*
X988697D02*
X988730Y30390D01*
X988767Y30385D01*
X988850Y30362D01*
X988942Y30330D01*
X988988Y30307D01*
X989039Y30274D01*
X989086Y30242D01*
X989136Y30205D01*
X989183Y30159D01*
X989224Y30108D01*
X989229Y30103D01*
X989233Y30094D01*
X989243Y30080D01*
X989261Y30057D01*
X989275Y30025D01*
X989294Y29992D01*
X989317Y29951D01*
X989335Y29900D01*
X989358Y29844D01*
X989377Y29789D01*
X989395Y29720D01*
X989414Y29650D01*
X989428Y29572D01*
X989437Y29488D01*
X989442Y29401D01*
X989446Y29308D01*
Y26664D01*
X988799D01*
Y29294D01*
Y29299D01*
Y29317D01*
Y29345D01*
X988794Y29378D01*
X988790Y29419D01*
X988781Y29461D01*
X988757Y29562D01*
X988739Y29609D01*
X988711Y29660D01*
X988683Y29701D01*
X988651Y29743D01*
X988609Y29775D01*
X988563Y29803D01*
X988508Y29821D01*
X988448Y29826D01*
X988438D01*
X988415Y29821D01*
X988378Y29817D01*
X988332Y29803D01*
X988277Y29775D01*
X988216Y29738D01*
X988156Y29692D01*
X988124Y29660D01*
X988096Y29622D01*
X988092Y29613D01*
X988073Y29590D01*
X988050Y29558D01*
X988022Y29521D01*
X987990Y29479D01*
X987967Y29438D01*
X987948Y29410D01*
X987944Y29387D01*
Y26664D01*
X987297D01*
Y30339D01*
X987944D01*
Y29937D01*
X987958D01*
X987962Y29941D01*
X987971Y29955D01*
X987985Y29978D01*
X988008Y30011D01*
X988032Y30043D01*
X988064Y30085D01*
X988101Y30126D01*
X988147Y30168D01*
X988193Y30210D01*
X988244Y30251D01*
X988300Y30293D01*
X988360Y30325D01*
X988425Y30357D01*
X988489Y30381D01*
X988563Y30394D01*
X988637Y30399D01*
X988674D01*
X988697Y30394D01*
D02*
G37*
G36*
X1010480D02*
X1010521Y30385D01*
X1010572Y30371D01*
X1010628Y30353D01*
X1010688Y30325D01*
X1010748Y30288D01*
X1010697Y29627D01*
X1010693Y29632D01*
X1010674Y29641D01*
X1010646Y29655D01*
X1010614Y29673D01*
X1010568Y29692D01*
X1010521Y29706D01*
X1010471Y29715D01*
X1010415Y29720D01*
X1010401D01*
X1010387Y29715D01*
X1010364Y29710D01*
X1010337Y29701D01*
X1010309Y29692D01*
X1010276Y29673D01*
X1010239Y29650D01*
X1010198Y29622D01*
X1010156Y29585D01*
X1010115Y29539D01*
X1010073Y29488D01*
X1010032Y29424D01*
X1009990Y29350D01*
X1009948Y29267D01*
X1009911Y29169D01*
Y29165D01*
X1009902Y29146D01*
X1009893Y29114D01*
X1009879Y29077D01*
X1009865Y29026D01*
X1009851Y28971D01*
X1009833Y28906D01*
X1009814Y28832D01*
X1009796Y28758D01*
X1009777Y28675D01*
X1009750Y28495D01*
X1009726Y28310D01*
X1009717Y28120D01*
Y26664D01*
X1009070D01*
Y30339D01*
X1009717D01*
Y29345D01*
X1009731D01*
X1009736Y29354D01*
X1009740Y29373D01*
X1009750Y29405D01*
X1009763Y29451D01*
X1009782Y29502D01*
X1009800Y29562D01*
X1009819Y29627D01*
X1009842Y29697D01*
X1009893Y29844D01*
X1009948Y29983D01*
X1009976Y30048D01*
X1009999Y30108D01*
X1010027Y30159D01*
X1010050Y30200D01*
Y30205D01*
X1010055Y30210D01*
X1010073Y30233D01*
X1010105Y30265D01*
X1010142Y30302D01*
X1010198Y30334D01*
X1010258Y30367D01*
X1010332Y30390D01*
X1010374Y30399D01*
X1010447D01*
X1010480Y30394D01*
D02*
G37*
G36*
X1008594Y26664D02*
X1007900D01*
X1007706Y27889D01*
X1006675D01*
X1006458Y26664D01*
X1005769D01*
X1006814Y32234D01*
X1007554D01*
X1008594Y26664D01*
D02*
G37*
G36*
X986834D02*
X986141D01*
X985947Y27889D01*
X984916D01*
X984698Y26664D01*
X984010D01*
X985054Y32234D01*
X985794D01*
X986834Y26664D01*
D02*
G37*
G36*
X1014724Y30436D02*
X1014756Y30431D01*
X1014798Y30427D01*
X1014844Y30418D01*
X1014895Y30408D01*
X1015001Y30376D01*
X1015061Y30353D01*
X1015117Y30330D01*
X1015177Y30297D01*
X1015237Y30260D01*
X1015292Y30219D01*
X1015348Y30173D01*
X1015352Y30168D01*
X1015362Y30159D01*
X1015375Y30145D01*
X1015394Y30122D01*
X1015412Y30099D01*
X1015440Y30062D01*
X1015463Y30025D01*
X1015491Y29983D01*
X1015519Y29932D01*
X1015542Y29877D01*
X1015570Y29817D01*
X1015588Y29752D01*
X1015607Y29683D01*
X1015620Y29609D01*
X1015630Y29530D01*
X1015634Y29447D01*
Y27371D01*
Y27362D01*
Y27339D01*
X1015639Y27302D01*
X1015648Y27265D01*
X1015657Y27228D01*
X1015676Y27191D01*
X1015699Y27168D01*
X1015713Y27163D01*
X1015731Y27159D01*
X1015736D01*
X1015745Y27163D01*
X1015764Y27168D01*
X1015787Y27182D01*
X1015824Y27205D01*
X1015870Y27232D01*
X1015926Y27279D01*
X1015990Y27339D01*
Y26849D01*
X1015986Y26844D01*
X1015976Y26840D01*
X1015963Y26826D01*
X1015939Y26807D01*
X1015912Y26789D01*
X1015884Y26766D01*
X1015815Y26715D01*
X1015731Y26664D01*
X1015648Y26622D01*
X1015607Y26604D01*
X1015565Y26595D01*
X1015523Y26585D01*
X1015486Y26581D01*
X1015472D01*
X1015454Y26585D01*
X1015426Y26590D01*
X1015399Y26595D01*
X1015366Y26604D01*
X1015329Y26618D01*
X1015292Y26641D01*
X1015251Y26664D01*
X1015209Y26692D01*
X1015172Y26733D01*
X1015130Y26775D01*
X1015093Y26830D01*
X1015061Y26890D01*
X1015033Y26960D01*
X1015010Y27043D01*
X1015006Y27038D01*
X1014996Y27025D01*
X1014973Y26997D01*
X1014950Y26969D01*
X1014918Y26932D01*
X1014881Y26890D01*
X1014835Y26849D01*
X1014788Y26803D01*
X1014682Y26715D01*
X1014626Y26673D01*
X1014562Y26636D01*
X1014502Y26608D01*
X1014437Y26585D01*
X1014372Y26567D01*
X1014308Y26562D01*
X1014280D01*
X1014261Y26567D01*
X1014234Y26571D01*
X1014206Y26576D01*
X1014137Y26599D01*
X1014058Y26632D01*
X1014016Y26655D01*
X1013975Y26678D01*
X1013933Y26710D01*
X1013887Y26747D01*
X1013845Y26789D01*
X1013804Y26840D01*
Y26844D01*
X1013794Y26853D01*
X1013785Y26867D01*
X1013771Y26890D01*
X1013753Y26913D01*
X1013734Y26946D01*
X1013716Y26983D01*
X1013697Y27025D01*
X1013660Y27122D01*
X1013623Y27232D01*
X1013600Y27357D01*
X1013596Y27422D01*
X1013591Y27491D01*
Y27496D01*
Y27510D01*
Y27533D01*
X1013596Y27565D01*
X1013600Y27602D01*
X1013605Y27644D01*
X1013614Y27695D01*
X1013628Y27746D01*
X1013665Y27861D01*
X1013688Y27921D01*
X1013716Y27986D01*
X1013753Y28046D01*
X1013794Y28111D01*
X1013841Y28171D01*
X1013892Y28226D01*
X1013896Y28231D01*
X1013905Y28240D01*
X1013924Y28259D01*
X1013952Y28282D01*
X1013984Y28310D01*
X1014030Y28347D01*
X1014081Y28388D01*
X1014141Y28439D01*
X1014211Y28490D01*
X1014289Y28550D01*
X1014381Y28610D01*
X1014479Y28679D01*
X1014590Y28753D01*
X1014710Y28827D01*
X1014844Y28911D01*
X1014987Y28994D01*
Y29345D01*
Y29350D01*
Y29368D01*
X1014983Y29391D01*
Y29419D01*
X1014973Y29456D01*
X1014969Y29498D01*
X1014941Y29585D01*
X1014918Y29632D01*
X1014895Y29673D01*
X1014862Y29715D01*
X1014825Y29752D01*
X1014784Y29780D01*
X1014728Y29807D01*
X1014673Y29821D01*
X1014603Y29826D01*
X1014585D01*
X1014562Y29821D01*
X1014534Y29817D01*
X1014497Y29807D01*
X1014451Y29794D01*
X1014400Y29775D01*
X1014340Y29752D01*
X1014275Y29720D01*
X1014206Y29678D01*
X1014127Y29627D01*
X1014049Y29572D01*
X1013961Y29502D01*
X1013873Y29419D01*
X1013776Y29327D01*
X1013679Y29220D01*
Y29965D01*
X1013683Y29969D01*
X1013702Y29983D01*
X1013730Y30011D01*
X1013762Y30038D01*
X1013808Y30076D01*
X1013859Y30117D01*
X1013919Y30159D01*
X1013984Y30205D01*
X1014058Y30247D01*
X1014132Y30288D01*
X1014215Y30330D01*
X1014298Y30367D01*
X1014386Y30399D01*
X1014474Y30422D01*
X1014562Y30436D01*
X1014654Y30441D01*
X1014696D01*
X1014724Y30436D01*
D02*
G37*
G36*
X1001595D02*
X1001627Y30431D01*
X1001669Y30427D01*
X1001715Y30418D01*
X1001766Y30408D01*
X1001872Y30376D01*
X1001932Y30353D01*
X1001988Y30330D01*
X1002048Y30297D01*
X1002108Y30260D01*
X1002163Y30219D01*
X1002219Y30173D01*
X1002224Y30168D01*
X1002233Y30159D01*
X1002247Y30145D01*
X1002265Y30122D01*
X1002284Y30099D01*
X1002311Y30062D01*
X1002335Y30025D01*
X1002362Y29983D01*
X1002390Y29932D01*
X1002413Y29877D01*
X1002441Y29817D01*
X1002459Y29752D01*
X1002478Y29683D01*
X1002492Y29609D01*
X1002501Y29530D01*
X1002506Y29447D01*
Y27371D01*
Y27362D01*
Y27339D01*
X1002510Y27302D01*
X1002519Y27265D01*
X1002529Y27228D01*
X1002547Y27191D01*
X1002570Y27168D01*
X1002584Y27163D01*
X1002603Y27159D01*
X1002607D01*
X1002617Y27163D01*
X1002635Y27168D01*
X1002658Y27182D01*
X1002695Y27205D01*
X1002741Y27232D01*
X1002797Y27279D01*
X1002861Y27339D01*
Y26849D01*
X1002857Y26844D01*
X1002848Y26840D01*
X1002834Y26826D01*
X1002811Y26807D01*
X1002783Y26789D01*
X1002755Y26766D01*
X1002686Y26715D01*
X1002603Y26664D01*
X1002519Y26622D01*
X1002478Y26604D01*
X1002436Y26595D01*
X1002395Y26585D01*
X1002358Y26581D01*
X1002344D01*
X1002325Y26585D01*
X1002298Y26590D01*
X1002270Y26595D01*
X1002237Y26604D01*
X1002200Y26618D01*
X1002163Y26641D01*
X1002122Y26664D01*
X1002080Y26692D01*
X1002043Y26733D01*
X1002002Y26775D01*
X1001965Y26830D01*
X1001932Y26890D01*
X1001905Y26960D01*
X1001881Y27043D01*
X1001877Y27038D01*
X1001868Y27025D01*
X1001844Y26997D01*
X1001821Y26969D01*
X1001789Y26932D01*
X1001752Y26890D01*
X1001706Y26849D01*
X1001660Y26803D01*
X1001553Y26715D01*
X1001498Y26673D01*
X1001433Y26636D01*
X1001373Y26608D01*
X1001308Y26585D01*
X1001244Y26567D01*
X1001179Y26562D01*
X1001151D01*
X1001133Y26567D01*
X1001105Y26571D01*
X1001077Y26576D01*
X1001008Y26599D01*
X1000929Y26632D01*
X1000888Y26655D01*
X1000846Y26678D01*
X1000804Y26710D01*
X1000758Y26747D01*
X1000716Y26789D01*
X1000675Y26840D01*
Y26844D01*
X1000666Y26853D01*
X1000656Y26867D01*
X1000643Y26890D01*
X1000624Y26913D01*
X1000606Y26946D01*
X1000587Y26983D01*
X1000569Y27025D01*
X1000532Y27122D01*
X1000495Y27232D01*
X1000471Y27357D01*
X1000467Y27422D01*
X1000462Y27491D01*
Y27496D01*
Y27510D01*
Y27533D01*
X1000467Y27565D01*
X1000471Y27602D01*
X1000476Y27644D01*
X1000485Y27695D01*
X1000499Y27746D01*
X1000536Y27861D01*
X1000559Y27921D01*
X1000587Y27986D01*
X1000624Y28046D01*
X1000666Y28111D01*
X1000712Y28171D01*
X1000763Y28226D01*
X1000767Y28231D01*
X1000777Y28240D01*
X1000795Y28259D01*
X1000823Y28282D01*
X1000855Y28310D01*
X1000901Y28347D01*
X1000952Y28388D01*
X1001012Y28439D01*
X1001082Y28490D01*
X1001160Y28550D01*
X1001253Y28610D01*
X1001350Y28679D01*
X1001461Y28753D01*
X1001581Y28827D01*
X1001715Y28911D01*
X1001858Y28994D01*
Y29345D01*
Y29350D01*
Y29368D01*
X1001854Y29391D01*
Y29419D01*
X1001844Y29456D01*
X1001840Y29498D01*
X1001812Y29585D01*
X1001789Y29632D01*
X1001766Y29673D01*
X1001734Y29715D01*
X1001697Y29752D01*
X1001655Y29780D01*
X1001600Y29807D01*
X1001544Y29821D01*
X1001475Y29826D01*
X1001456D01*
X1001433Y29821D01*
X1001405Y29817D01*
X1001368Y29807D01*
X1001322Y29794D01*
X1001271Y29775D01*
X1001211Y29752D01*
X1001146Y29720D01*
X1001077Y29678D01*
X1000999Y29627D01*
X1000920Y29572D01*
X1000832Y29502D01*
X1000744Y29419D01*
X1000647Y29327D01*
X1000550Y29220D01*
Y29965D01*
X1000555Y29969D01*
X1000573Y29983D01*
X1000601Y30011D01*
X1000633Y30038D01*
X1000680Y30076D01*
X1000730Y30117D01*
X1000790Y30159D01*
X1000855Y30205D01*
X1000929Y30247D01*
X1001003Y30288D01*
X1001086Y30330D01*
X1001170Y30367D01*
X1001257Y30399D01*
X1001345Y30422D01*
X1001433Y30436D01*
X1001525Y30441D01*
X1001567D01*
X1001595Y30436D01*
D02*
G37*
G36*
X1012066D02*
X1012116Y30427D01*
X1012181Y30408D01*
X1012255Y30376D01*
X1012343Y30330D01*
X1012384Y30302D01*
X1012431Y30265D01*
X1012477Y30228D01*
X1012528Y30182D01*
X1012574Y30126D01*
X1012620Y30071D01*
X1012662Y30006D01*
X1012708Y29932D01*
X1012750Y29854D01*
X1012791Y29761D01*
X1012833Y29669D01*
X1012865Y29562D01*
X1012898Y29447D01*
X1012930Y29322D01*
X1012953Y29188D01*
X1012976Y29045D01*
X1012995Y28888D01*
X1013004Y28721D01*
X1013013Y28545D01*
Y28356D01*
X1011654D01*
Y28351D01*
Y28342D01*
Y28328D01*
Y28305D01*
X1011659Y28277D01*
Y28245D01*
X1011663Y28171D01*
X1011673Y28078D01*
X1011686Y27977D01*
X1011710Y27871D01*
X1011737Y27759D01*
X1011770Y27649D01*
X1011811Y27542D01*
X1011867Y27441D01*
X1011932Y27348D01*
X1012005Y27274D01*
X1012047Y27242D01*
X1012089Y27214D01*
X1012140Y27191D01*
X1012190Y27177D01*
X1012246Y27168D01*
X1012306Y27163D01*
X1012320D01*
X1012343Y27168D01*
X1012366D01*
X1012398Y27172D01*
X1012435Y27182D01*
X1012518Y27209D01*
X1012565Y27228D01*
X1012616Y27251D01*
X1012671Y27279D01*
X1012722Y27316D01*
X1012777Y27357D01*
X1012833Y27404D01*
X1012888Y27459D01*
X1012939Y27524D01*
Y26881D01*
X1012935Y26877D01*
X1012925Y26867D01*
X1012907Y26853D01*
X1012879Y26830D01*
X1012847Y26807D01*
X1012810Y26779D01*
X1012764Y26752D01*
X1012713Y26724D01*
X1012662Y26692D01*
X1012602Y26664D01*
X1012472Y26613D01*
X1012403Y26590D01*
X1012334Y26576D01*
X1012260Y26567D01*
X1012181Y26562D01*
X1012158D01*
X1012126Y26567D01*
X1012089Y26571D01*
X1012042Y26576D01*
X1011987Y26590D01*
X1011927Y26604D01*
X1011862Y26627D01*
X1011793Y26650D01*
X1011723Y26682D01*
X1011649Y26724D01*
X1011580Y26775D01*
X1011506Y26830D01*
X1011437Y26895D01*
X1011372Y26974D01*
X1011312Y27062D01*
X1011307Y27066D01*
X1011298Y27085D01*
X1011284Y27112D01*
X1011266Y27154D01*
X1011243Y27209D01*
X1011215Y27269D01*
X1011187Y27343D01*
X1011159Y27431D01*
X1011132Y27528D01*
X1011104Y27635D01*
X1011076Y27755D01*
X1011053Y27884D01*
X1011035Y28023D01*
X1011021Y28171D01*
X1011012Y28333D01*
X1011007Y28504D01*
Y28508D01*
Y28513D01*
Y28527D01*
Y28545D01*
Y28592D01*
X1011012Y28656D01*
X1011016Y28730D01*
X1011021Y28818D01*
X1011030Y28920D01*
X1011039Y29026D01*
X1011053Y29137D01*
X1011072Y29253D01*
X1011095Y29373D01*
X1011123Y29493D01*
X1011150Y29609D01*
X1011187Y29720D01*
X1011229Y29826D01*
X1011275Y29928D01*
X1011280Y29932D01*
X1011289Y29951D01*
X1011303Y29974D01*
X1011326Y30006D01*
X1011354Y30048D01*
X1011386Y30089D01*
X1011423Y30136D01*
X1011469Y30187D01*
X1011520Y30233D01*
X1011575Y30279D01*
X1011636Y30320D01*
X1011705Y30362D01*
X1011774Y30394D01*
X1011853Y30418D01*
X1011936Y30436D01*
X1012024Y30441D01*
X1012047D01*
X1012066Y30436D01*
D02*
G37*
G36*
X993066D02*
X993117Y30427D01*
X993181Y30408D01*
X993255Y30376D01*
X993343Y30330D01*
X993385Y30302D01*
X993431Y30265D01*
X993477Y30228D01*
X993528Y30182D01*
X993574Y30126D01*
X993621Y30071D01*
X993662Y30006D01*
X993708Y29932D01*
X993750Y29854D01*
X993792Y29761D01*
X993833Y29669D01*
X993866Y29562D01*
X993898Y29447D01*
X993930Y29322D01*
X993953Y29188D01*
X993977Y29045D01*
X993995Y28888D01*
X994004Y28721D01*
X994014Y28545D01*
Y28356D01*
X992654D01*
Y28351D01*
Y28342D01*
Y28328D01*
Y28305D01*
X992659Y28277D01*
Y28245D01*
X992664Y28171D01*
X992673Y28078D01*
X992687Y27977D01*
X992710Y27871D01*
X992738Y27759D01*
X992770Y27649D01*
X992812Y27542D01*
X992867Y27441D01*
X992932Y27348D01*
X993006Y27274D01*
X993047Y27242D01*
X993089Y27214D01*
X993140Y27191D01*
X993191Y27177D01*
X993246Y27168D01*
X993306Y27163D01*
X993320D01*
X993343Y27168D01*
X993366D01*
X993399Y27172D01*
X993436Y27182D01*
X993519Y27209D01*
X993565Y27228D01*
X993616Y27251D01*
X993671Y27279D01*
X993722Y27316D01*
X993778Y27357D01*
X993833Y27404D01*
X993889Y27459D01*
X993940Y27524D01*
Y26881D01*
X993935Y26877D01*
X993926Y26867D01*
X993907Y26853D01*
X993879Y26830D01*
X993847Y26807D01*
X993810Y26779D01*
X993764Y26752D01*
X993713Y26724D01*
X993662Y26692D01*
X993602Y26664D01*
X993473Y26613D01*
X993403Y26590D01*
X993334Y26576D01*
X993260Y26567D01*
X993181Y26562D01*
X993158D01*
X993126Y26567D01*
X993089Y26571D01*
X993043Y26576D01*
X992987Y26590D01*
X992927Y26604D01*
X992862Y26627D01*
X992793Y26650D01*
X992724Y26682D01*
X992650Y26724D01*
X992580Y26775D01*
X992506Y26830D01*
X992437Y26895D01*
X992372Y26974D01*
X992312Y27062D01*
X992308Y27066D01*
X992298Y27085D01*
X992285Y27112D01*
X992266Y27154D01*
X992243Y27209D01*
X992215Y27269D01*
X992188Y27343D01*
X992160Y27431D01*
X992132Y27528D01*
X992104Y27635D01*
X992076Y27755D01*
X992053Y27884D01*
X992035Y28023D01*
X992021Y28171D01*
X992012Y28333D01*
X992007Y28504D01*
Y28508D01*
Y28513D01*
Y28527D01*
Y28545D01*
Y28592D01*
X992012Y28656D01*
X992016Y28730D01*
X992021Y28818D01*
X992030Y28920D01*
X992039Y29026D01*
X992053Y29137D01*
X992072Y29253D01*
X992095Y29373D01*
X992123Y29493D01*
X992150Y29609D01*
X992188Y29720D01*
X992229Y29826D01*
X992275Y29928D01*
X992280Y29932D01*
X992289Y29951D01*
X992303Y29974D01*
X992326Y30006D01*
X992354Y30048D01*
X992386Y30089D01*
X992423Y30136D01*
X992469Y30187D01*
X992520Y30233D01*
X992576Y30279D01*
X992636Y30320D01*
X992705Y30362D01*
X992775Y30394D01*
X992853Y30418D01*
X992936Y30436D01*
X993024Y30441D01*
X993047D01*
X993066Y30436D01*
D02*
G37*
G36*
X991027Y30339D02*
X991633D01*
Y29770D01*
X991027D01*
Y27672D01*
Y27667D01*
Y27658D01*
Y27644D01*
Y27625D01*
X991032Y27575D01*
Y27515D01*
X991041Y27450D01*
X991050Y27385D01*
X991059Y27325D01*
X991078Y27279D01*
X991083Y27274D01*
X991087Y27265D01*
X991106Y27246D01*
X991124Y27228D01*
X991152Y27209D01*
X991189Y27191D01*
X991231Y27182D01*
X991281Y27177D01*
X991304D01*
X991337Y27182D01*
X991374Y27191D01*
X991425Y27200D01*
X991485Y27219D01*
X991554Y27246D01*
X991633Y27279D01*
Y26701D01*
X991628D01*
X991619Y26696D01*
X991600Y26687D01*
X991577Y26678D01*
X991550Y26669D01*
X991517Y26659D01*
X991439Y26632D01*
X991346Y26608D01*
X991249Y26585D01*
X991152Y26567D01*
X991059Y26562D01*
X991032D01*
X990995Y26567D01*
X990953Y26576D01*
X990902Y26585D01*
X990847Y26604D01*
X990782Y26632D01*
X990722Y26664D01*
X990657Y26710D01*
X990597Y26761D01*
X990537Y26830D01*
X990486Y26909D01*
X990445Y27001D01*
X990408Y27112D01*
X990389Y27237D01*
X990380Y27306D01*
Y27380D01*
Y29770D01*
X989959D01*
Y29826D01*
X989964Y29831D01*
X989982Y29854D01*
X990005Y29886D01*
X990038Y29928D01*
X990084Y29983D01*
X990135Y30052D01*
X990190Y30131D01*
X990255Y30219D01*
X990329Y30320D01*
X990408Y30431D01*
X990491Y30552D01*
X990579Y30681D01*
X990671Y30820D01*
X990764Y30968D01*
X990865Y31125D01*
X990967Y31287D01*
X991027D01*
Y30339D01*
D02*
G37*
G36*
X1088582Y27844D02*
X1088387D01*
X1087978Y30095D01*
X1088277D01*
X1088486Y28599D01*
X1088691Y30095D01*
X1088991D01*
X1088582Y27844D01*
D02*
G37*
G36*
X1090022Y29828D02*
X1089682D01*
Y27875D01*
X1089398D01*
Y29828D01*
X1089057D01*
Y30095D01*
X1090022D01*
Y29828D01*
D02*
G37*
G36*
X1089232Y42890D02*
X1089001D01*
X1088506Y44274D01*
X1088501Y44272D01*
Y42890D01*
X1088239D01*
Y45110D01*
X1088468D01*
X1088963Y43733D01*
X1088971Y43738D01*
Y45110D01*
X1089232D01*
Y42890D01*
D02*
G37*
G36*
X1090429Y44843D02*
X1090088D01*
Y42890D01*
X1089804D01*
Y44843D01*
X1089464D01*
Y45110D01*
X1090429D01*
Y44843D01*
D02*
G37*
G36*
X1087856Y42890D02*
X1087571D01*
Y45110D01*
X1087856D01*
Y42890D01*
D02*
G37*
G36*
X1089691Y59071D02*
X1090085Y57890D01*
X1089777D01*
X1089521Y58716D01*
X1089513D01*
X1089264Y57890D01*
X1088959D01*
X1089348Y59071D01*
X1089015Y60110D01*
X1089320D01*
X1089516Y59373D01*
X1089521Y59376D01*
X1089721Y60110D01*
X1090029D01*
X1089691Y59071D01*
D02*
G37*
G36*
X1088200Y60107D02*
X1088225Y60105D01*
X1088253Y60100D01*
X1088284Y60095D01*
X1088314Y60090D01*
X1088385Y60069D01*
X1088421Y60054D01*
X1088456Y60039D01*
X1088492Y60019D01*
X1088528Y59996D01*
X1088558Y59970D01*
X1088588Y59940D01*
X1088591Y59937D01*
X1088596Y59932D01*
X1088604Y59922D01*
X1088611Y59909D01*
X1088624Y59892D01*
X1088637Y59871D01*
X1088650Y59848D01*
X1088665Y59820D01*
X1088680Y59790D01*
X1088693Y59757D01*
X1088705Y59721D01*
X1088718Y59681D01*
X1088726Y59637D01*
X1088733Y59592D01*
X1088738Y59544D01*
X1088741Y59493D01*
Y59490D01*
Y59480D01*
X1088738Y59462D01*
Y59442D01*
X1088733Y59414D01*
X1088728Y59384D01*
X1088721Y59351D01*
X1088713Y59315D01*
X1088700Y59277D01*
X1088685Y59239D01*
X1088665Y59198D01*
X1088642Y59160D01*
X1088616Y59122D01*
X1088583Y59084D01*
X1088548Y59051D01*
X1088507Y59018D01*
X1088510Y59015D01*
X1088515Y59010D01*
X1088525Y59002D01*
X1088538Y58990D01*
X1088553Y58972D01*
X1088571Y58949D01*
X1088591Y58921D01*
X1088614Y58886D01*
X1088637Y58845D01*
X1088662Y58797D01*
X1088685Y58744D01*
X1088713Y58680D01*
X1088738Y58609D01*
X1088764Y58530D01*
X1088789Y58441D01*
X1088812Y58345D01*
X1088916Y57890D01*
X1088616D01*
X1088530Y58271D01*
Y58276D01*
X1088525Y58289D01*
X1088520Y58309D01*
X1088515Y58337D01*
X1088507Y58368D01*
X1088497Y58406D01*
X1088487Y58444D01*
X1088474Y58487D01*
X1088449Y58573D01*
X1088436Y58616D01*
X1088421Y58657D01*
X1088408Y58695D01*
X1088395Y58731D01*
X1088380Y58761D01*
X1088367Y58784D01*
Y58787D01*
X1088365Y58789D01*
X1088355Y58802D01*
X1088340Y58817D01*
X1088322Y58837D01*
X1088296Y58855D01*
X1088269Y58873D01*
X1088235Y58883D01*
X1088200D01*
Y57890D01*
X1087915D01*
Y60110D01*
X1088182D01*
X1088200Y60107D01*
D02*
G37*
G36*
X911683Y29071D02*
X912077Y27890D01*
X911770D01*
X911513Y28716D01*
X911506D01*
X911256Y27890D01*
X910952D01*
X911340Y29071D01*
X911008Y30110D01*
X911312D01*
X911508Y29373D01*
X911513Y29376D01*
X911714Y30110D01*
X912021D01*
X911683Y29071D01*
D02*
G37*
G36*
X910888Y29843D02*
X910548D01*
Y27890D01*
X910263D01*
Y29843D01*
X909923D01*
Y30110D01*
X910888D01*
Y29843D01*
D02*
G37*
G36*
X909773Y45107D02*
X909791Y45105D01*
X909814Y45102D01*
X909837Y45097D01*
X909865Y45090D01*
X909895Y45082D01*
X909928Y45072D01*
X909964Y45059D01*
X909999Y45041D01*
X910037Y45024D01*
X910078Y45003D01*
X910121Y44978D01*
X910164Y44950D01*
Y44645D01*
X910162Y44648D01*
X910154Y44655D01*
X910142Y44665D01*
X910124Y44678D01*
X910103Y44696D01*
X910080Y44714D01*
X910053Y44734D01*
X910025Y44754D01*
X909959Y44795D01*
X909926Y44813D01*
X909890Y44831D01*
X909855Y44843D01*
X909821Y44854D01*
X909786Y44861D01*
X909753Y44864D01*
X909748D01*
X909735Y44861D01*
X909715Y44858D01*
X909687Y44851D01*
X909654Y44836D01*
X909618Y44815D01*
X909580Y44787D01*
X909560Y44772D01*
X909542Y44752D01*
X909522Y44729D01*
X909501Y44704D01*
X909481Y44676D01*
X909463Y44645D01*
X909445Y44610D01*
X909428Y44571D01*
X909410Y44531D01*
X909395Y44485D01*
X909382Y44437D01*
X909367Y44384D01*
X909357Y44325D01*
X909346Y44264D01*
X909339Y44196D01*
X909334Y44124D01*
X909331Y44048D01*
X909329Y43967D01*
Y43965D01*
Y43957D01*
Y43947D01*
Y43929D01*
X909331Y43911D01*
Y43886D01*
X909334Y43860D01*
X909336Y43830D01*
X909339Y43799D01*
X909341Y43764D01*
X909352Y43693D01*
X909367Y43614D01*
X909385Y43533D01*
X909410Y43451D01*
X909438Y43373D01*
X909476Y43299D01*
X909496Y43263D01*
X909519Y43233D01*
X909542Y43203D01*
X909570Y43177D01*
X909598Y43154D01*
X909631Y43134D01*
X909664Y43119D01*
X909699Y43106D01*
X909738Y43098D01*
X909778Y43096D01*
X909793D01*
X909806Y43098D01*
X909819D01*
X909837Y43101D01*
X909857Y43103D01*
X909880Y43106D01*
Y43787D01*
X909682D01*
Y44053D01*
X910164D01*
Y42959D01*
X910162Y42956D01*
X910154Y42954D01*
X910144Y42946D01*
X910129Y42938D01*
X910111Y42928D01*
X910091Y42918D01*
X910065Y42905D01*
X910040Y42895D01*
X909979Y42870D01*
X909913Y42849D01*
X909842Y42834D01*
X909806Y42832D01*
X909771Y42829D01*
X909755D01*
X909738Y42832D01*
X909715Y42834D01*
X909687Y42839D01*
X909654Y42844D01*
X909618Y42854D01*
X909578Y42867D01*
X909537Y42882D01*
X909494Y42903D01*
X909451Y42926D01*
X909405Y42956D01*
X909362Y42989D01*
X909318Y43030D01*
X909278Y43075D01*
X909240Y43129D01*
X909237Y43131D01*
X909232Y43144D01*
X909222Y43159D01*
X909209Y43185D01*
X909194Y43215D01*
X909179Y43251D01*
X909161Y43296D01*
X909143Y43345D01*
X909123Y43403D01*
X909105Y43464D01*
X909090Y43533D01*
X909075Y43609D01*
X909062Y43688D01*
X909052Y43774D01*
X909047Y43868D01*
X909044Y43965D01*
Y43967D01*
Y43969D01*
Y43977D01*
Y43987D01*
Y44000D01*
X909047Y44015D01*
Y44051D01*
X909049Y44096D01*
X909054Y44147D01*
X909059Y44206D01*
X909067Y44267D01*
X909077Y44333D01*
X909090Y44401D01*
X909105Y44470D01*
X909123Y44541D01*
X909146Y44610D01*
X909171Y44676D01*
X909199Y44739D01*
X909232Y44800D01*
X909235Y44803D01*
X909240Y44813D01*
X909252Y44828D01*
X909268Y44848D01*
X909286Y44871D01*
X909308Y44899D01*
X909336Y44927D01*
X909367Y44955D01*
X909402Y44983D01*
X909440Y45011D01*
X909481Y45039D01*
X909527Y45062D01*
X909575Y45082D01*
X909628Y45097D01*
X909682Y45107D01*
X909740Y45110D01*
X909761D01*
X909773Y45107D01*
D02*
G37*
G36*
X911503Y42860D02*
X911272D01*
X910777Y44244D01*
X910771Y44241D01*
Y42860D01*
X910510D01*
Y45079D01*
X910738D01*
X911234Y43703D01*
X911241Y43708D01*
Y45079D01*
X911503D01*
Y42860D01*
D02*
G37*
G36*
X912227Y45077D02*
X912245Y45074D01*
X912265Y45072D01*
X912288Y45067D01*
X912313Y45062D01*
X912372Y45047D01*
X912435Y45021D01*
X912468Y45006D01*
X912504Y44988D01*
X912539Y44965D01*
X912575Y44942D01*
X912610Y44914D01*
X912646Y44881D01*
X912682Y44848D01*
X912714Y44810D01*
X912747Y44767D01*
X912778Y44719D01*
X912809Y44668D01*
X912836Y44612D01*
X912862Y44551D01*
X912885Y44485D01*
X912905Y44414D01*
X912923Y44338D01*
X912938Y44257D01*
X912948Y44168D01*
X912953Y44074D01*
X912956Y43972D01*
Y43969D01*
Y43967D01*
Y43959D01*
Y43947D01*
Y43934D01*
Y43919D01*
X912953Y43881D01*
X912951Y43835D01*
X912946Y43782D01*
X912941Y43723D01*
X912933Y43660D01*
X912923Y43594D01*
X912910Y43525D01*
X912895Y43457D01*
X912875Y43388D01*
X912854Y43319D01*
X912829Y43256D01*
X912798Y43195D01*
X912765Y43139D01*
X912763Y43136D01*
X912758Y43126D01*
X912745Y43114D01*
X912730Y43096D01*
X912712Y43075D01*
X912687Y43050D01*
X912661Y43025D01*
X912628Y42999D01*
X912593Y42974D01*
X912552Y42948D01*
X912509Y42926D01*
X912463Y42903D01*
X912410Y42885D01*
X912356Y42872D01*
X912298Y42862D01*
X912234Y42860D01*
X911881D01*
Y45079D01*
X912212D01*
X912227Y45077D01*
D02*
G37*
G36*
X911137Y57828D02*
X910942D01*
X910533Y60078D01*
X910832D01*
X911041Y58582D01*
X911246Y60078D01*
X911546D01*
X911137Y57828D01*
D02*
G37*
G36*
X912069Y60099D02*
X912087Y60096D01*
X912110Y60093D01*
X912158Y60081D01*
X912214Y60063D01*
X912245Y60050D01*
X912275Y60033D01*
X912303Y60015D01*
X912334Y59994D01*
X912361Y59969D01*
X912389Y59941D01*
X912392Y59939D01*
X912394Y59934D01*
X912402Y59926D01*
X912412Y59913D01*
X912422Y59898D01*
X912435Y59880D01*
X912448Y59857D01*
X912463Y59832D01*
X912476Y59806D01*
X912488Y59776D01*
X912511Y59707D01*
X912522Y59672D01*
X912529Y59631D01*
X912532Y59591D01*
X912534Y59547D01*
Y59545D01*
Y59532D01*
X912532Y59514D01*
X912529Y59492D01*
X912524Y59464D01*
X912516Y59433D01*
X912506Y59398D01*
X912491Y59359D01*
X912473Y59319D01*
X912453Y59276D01*
X912425Y59235D01*
X912392Y59192D01*
X912354Y59151D01*
X912308Y59113D01*
X912255Y59075D01*
X912196Y59042D01*
X912201Y59039D01*
X912212Y59034D01*
X912229Y59027D01*
X912252Y59014D01*
X912280Y58999D01*
X912311Y58976D01*
X912344Y58951D01*
X912379Y58920D01*
X912412Y58884D01*
X912445Y58844D01*
X912476Y58798D01*
X912504Y58745D01*
X912526Y58686D01*
X912544Y58620D01*
X912554Y58549D01*
X912560Y58470D01*
Y58468D01*
Y58458D01*
Y58445D01*
X912557Y58425D01*
X912554Y58402D01*
X912552Y58374D01*
X912547Y58343D01*
X912539Y58310D01*
X912522Y58239D01*
X912509Y58199D01*
X912491Y58161D01*
X912473Y58122D01*
X912453Y58082D01*
X912428Y58044D01*
X912400Y58008D01*
X912397Y58006D01*
X912392Y58000D01*
X912384Y57990D01*
X912372Y57978D01*
X912356Y57965D01*
X912336Y57947D01*
X912316Y57932D01*
X912290Y57914D01*
X912265Y57896D01*
X912234Y57879D01*
X912168Y57848D01*
X912133Y57835D01*
X912095Y57825D01*
X912054Y57820D01*
X912013Y57818D01*
X911993D01*
X911968Y57820D01*
X911935Y57825D01*
X911891Y57833D01*
X911843Y57846D01*
X911790Y57861D01*
X911729Y57884D01*
Y58166D01*
X911731D01*
X911734Y58163D01*
X911742Y58161D01*
X911752Y58155D01*
X911777Y58143D01*
X911810Y58133D01*
X911848Y58120D01*
X911891Y58107D01*
X911935Y58100D01*
X911975Y58097D01*
X911980D01*
X911998Y58100D01*
X912021Y58102D01*
X912052Y58110D01*
X912085Y58125D01*
X912120Y58143D01*
X912153Y58171D01*
X912171Y58186D01*
X912186Y58206D01*
Y58209D01*
X912189Y58211D01*
X912199Y58227D01*
X912212Y58249D01*
X912227Y58285D01*
X912242Y58326D01*
X912255Y58376D01*
X912265Y58432D01*
X912268Y58498D01*
Y58503D01*
Y58514D01*
X912265Y58531D01*
X912262Y58554D01*
X912260Y58582D01*
X912252Y58613D01*
X912242Y58646D01*
X912232Y58679D01*
X912217Y58714D01*
X912196Y58750D01*
X912173Y58783D01*
X912145Y58813D01*
X912113Y58841D01*
X912074Y58864D01*
X912029Y58882D01*
X911978Y58895D01*
Y59177D01*
X911980D01*
X911991Y59179D01*
X912003Y59182D01*
X912019Y59187D01*
X912039Y59194D01*
X912062Y59205D01*
X912085Y59217D01*
X912110Y59232D01*
X912135Y59250D01*
X912158Y59273D01*
X912181Y59301D01*
X912201Y59331D01*
X912217Y59367D01*
X912232Y59405D01*
X912240Y59451D01*
X912242Y59502D01*
Y59504D01*
Y59509D01*
Y59517D01*
Y59527D01*
X912240Y59555D01*
X912232Y59588D01*
X912224Y59626D01*
X912212Y59667D01*
X912194Y59705D01*
X912168Y59740D01*
X912166Y59745D01*
X912156Y59756D01*
X912141Y59768D01*
X912118Y59786D01*
X912090Y59801D01*
X912057Y59817D01*
X912019Y59827D01*
X911975Y59829D01*
X911960D01*
X911940Y59827D01*
X911917Y59822D01*
X911887Y59814D01*
X911853Y59801D01*
X911818Y59786D01*
X911780Y59766D01*
Y60045D01*
X911782D01*
X911785Y60048D01*
X911800Y60053D01*
X911823Y60063D01*
X911853Y60073D01*
X911891Y60083D01*
X911935Y60093D01*
X911983Y60099D01*
X912034Y60101D01*
X912054D01*
X912069Y60099D01*
D02*
G37*
G36*
X909781D02*
X909799Y60096D01*
X909821Y60093D01*
X909870Y60081D01*
X909926Y60063D01*
X909956Y60050D01*
X909986Y60033D01*
X910014Y60015D01*
X910045Y59994D01*
X910073Y59969D01*
X910101Y59941D01*
X910103Y59939D01*
X910106Y59934D01*
X910114Y59926D01*
X910124Y59913D01*
X910134Y59898D01*
X910147Y59880D01*
X910159Y59857D01*
X910174Y59832D01*
X910187Y59806D01*
X910200Y59776D01*
X910223Y59707D01*
X910233Y59672D01*
X910240Y59631D01*
X910243Y59591D01*
X910246Y59547D01*
Y59545D01*
Y59532D01*
X910243Y59514D01*
X910240Y59492D01*
X910236Y59464D01*
X910228Y59433D01*
X910218Y59398D01*
X910202Y59359D01*
X910185Y59319D01*
X910164Y59276D01*
X910136Y59235D01*
X910103Y59192D01*
X910065Y59151D01*
X910020Y59113D01*
X909966Y59075D01*
X909908Y59042D01*
X909913Y59039D01*
X909923Y59034D01*
X909941Y59027D01*
X909964Y59014D01*
X909992Y58999D01*
X910022Y58976D01*
X910055Y58951D01*
X910091Y58920D01*
X910124Y58884D01*
X910157Y58844D01*
X910187Y58798D01*
X910215Y58745D01*
X910238Y58686D01*
X910256Y58620D01*
X910266Y58549D01*
X910271Y58470D01*
Y58468D01*
Y58458D01*
Y58445D01*
X910268Y58425D01*
X910266Y58402D01*
X910263Y58374D01*
X910258Y58343D01*
X910251Y58310D01*
X910233Y58239D01*
X910220Y58199D01*
X910202Y58161D01*
X910185Y58122D01*
X910164Y58082D01*
X910139Y58044D01*
X910111Y58008D01*
X910108Y58006D01*
X910103Y58000D01*
X910096Y57990D01*
X910083Y57978D01*
X910068Y57965D01*
X910048Y57947D01*
X910027Y57932D01*
X910002Y57914D01*
X909976Y57896D01*
X909946Y57879D01*
X909880Y57848D01*
X909844Y57835D01*
X909806Y57825D01*
X909766Y57820D01*
X909725Y57818D01*
X909705D01*
X909679Y57820D01*
X909646Y57825D01*
X909603Y57833D01*
X909555Y57846D01*
X909501Y57861D01*
X909440Y57884D01*
Y58166D01*
X909443D01*
X909445Y58163D01*
X909453Y58161D01*
X909463Y58155D01*
X909489Y58143D01*
X909522Y58133D01*
X909560Y58120D01*
X909603Y58107D01*
X909646Y58100D01*
X909687Y58097D01*
X909692D01*
X909710Y58100D01*
X909733Y58102D01*
X909763Y58110D01*
X909796Y58125D01*
X909832Y58143D01*
X909865Y58171D01*
X909882Y58186D01*
X909898Y58206D01*
Y58209D01*
X909900Y58211D01*
X909910Y58227D01*
X909923Y58249D01*
X909938Y58285D01*
X909954Y58326D01*
X909966Y58376D01*
X909976Y58432D01*
X909979Y58498D01*
Y58503D01*
Y58514D01*
X909976Y58531D01*
X909974Y58554D01*
X909971Y58582D01*
X909964Y58613D01*
X909954Y58646D01*
X909943Y58679D01*
X909928Y58714D01*
X909908Y58750D01*
X909885Y58783D01*
X909857Y58813D01*
X909824Y58841D01*
X909786Y58864D01*
X909740Y58882D01*
X909689Y58895D01*
Y59177D01*
X909692D01*
X909702Y59179D01*
X909715Y59182D01*
X909730Y59187D01*
X909750Y59194D01*
X909773Y59205D01*
X909796Y59217D01*
X909821Y59232D01*
X909847Y59250D01*
X909870Y59273D01*
X909893Y59301D01*
X909913Y59331D01*
X909928Y59367D01*
X909943Y59405D01*
X909951Y59451D01*
X909954Y59502D01*
Y59504D01*
Y59509D01*
Y59517D01*
Y59527D01*
X909951Y59555D01*
X909943Y59588D01*
X909936Y59626D01*
X909923Y59667D01*
X909905Y59705D01*
X909880Y59740D01*
X909877Y59745D01*
X909867Y59756D01*
X909852Y59768D01*
X909829Y59786D01*
X909801Y59801D01*
X909768Y59817D01*
X909730Y59827D01*
X909687Y59829D01*
X909672D01*
X909651Y59827D01*
X909628Y59822D01*
X909598Y59814D01*
X909565Y59801D01*
X909529Y59786D01*
X909491Y59766D01*
Y60045D01*
X909494D01*
X909496Y60048D01*
X909512Y60053D01*
X909534Y60063D01*
X909565Y60073D01*
X909603Y60083D01*
X909646Y60093D01*
X909694Y60099D01*
X909745Y60101D01*
X909766D01*
X909781Y60099D01*
D02*
G37*
G36*
X1000081Y-8382D02*
Y-8391D01*
Y-8415D01*
Y-8451D01*
X1000076Y-8502D01*
X1000072Y-8562D01*
X1000062Y-8632D01*
X1000049Y-8710D01*
X1000035Y-8794D01*
X1000016Y-8881D01*
X999993Y-8974D01*
X999961Y-9066D01*
X999924Y-9159D01*
X999882Y-9251D01*
X999831Y-9339D01*
X999776Y-9422D01*
X999711Y-9496D01*
X999706Y-9501D01*
X999693Y-9515D01*
X999674Y-9533D01*
X999646Y-9556D01*
X999609Y-9584D01*
X999568Y-9617D01*
X999517Y-9653D01*
X999466Y-9686D01*
X999401Y-9723D01*
X999337Y-9760D01*
X999263Y-9792D01*
X999189Y-9820D01*
X999106Y-9843D01*
X999022Y-9862D01*
X998934Y-9875D01*
X998842Y-9880D01*
X998819D01*
X998791Y-9875D01*
X998754D01*
X998708Y-9866D01*
X998657Y-9857D01*
X998597Y-9848D01*
X998532Y-9829D01*
X998463Y-9811D01*
X998394Y-9783D01*
X998320Y-9751D01*
X998246Y-9714D01*
X998172Y-9667D01*
X998098Y-9612D01*
X998028Y-9552D01*
X997959Y-9482D01*
X997954Y-9478D01*
X997945Y-9464D01*
X997927Y-9441D01*
X997904Y-9409D01*
X997876Y-9372D01*
X997848Y-9321D01*
X997816Y-9265D01*
X997783Y-9200D01*
X997751Y-9131D01*
X997719Y-9053D01*
X997691Y-8965D01*
X997663Y-8872D01*
X997640Y-8775D01*
X997622Y-8669D01*
X997612Y-8558D01*
X997608Y-8442D01*
Y-4268D01*
X998320D01*
Y-8428D01*
Y-8438D01*
Y-8461D01*
X998324Y-8502D01*
X998329Y-8553D01*
X998334Y-8609D01*
X998347Y-8678D01*
X998361Y-8747D01*
X998384Y-8821D01*
X998412Y-8895D01*
X998449Y-8965D01*
X998491Y-9034D01*
X998541Y-9089D01*
X998602Y-9140D01*
X998671Y-9182D01*
X998749Y-9205D01*
X998842Y-9214D01*
X998851D01*
X998879Y-9210D01*
X998925Y-9205D01*
X998976Y-9191D01*
X999036Y-9168D01*
X999101Y-9131D01*
X999161Y-9085D01*
X999221Y-9020D01*
Y-9015D01*
X999226Y-9011D01*
X999244Y-8983D01*
X999267Y-8937D01*
X999295Y-8877D01*
X999323Y-8798D01*
X999346Y-8701D01*
X999364Y-8590D01*
X999369Y-8461D01*
Y-4268D01*
X1000081D01*
Y-8382D01*
D02*
G37*
G36*
X1002392Y-9806D02*
X1001680D01*
Y-4268D01*
X1002392D01*
Y-9806D01*
D02*
G37*
%LPC*%
G36*
X1007188Y30871D02*
X1007170D01*
X1006782Y28555D01*
X1007577D01*
X1007188Y30871D01*
D02*
G37*
G36*
X985429D02*
X985410D01*
X985022Y28555D01*
X985817D01*
X985429Y30871D01*
D02*
G37*
G36*
X1014987Y28550D02*
X1014978Y28545D01*
X1014955Y28527D01*
X1014918Y28504D01*
X1014867Y28471D01*
X1014811Y28425D01*
X1014747Y28374D01*
X1014677Y28319D01*
X1014608Y28254D01*
X1014539Y28185D01*
X1014469Y28111D01*
X1014405Y28032D01*
X1014349Y27949D01*
X1014298Y27861D01*
X1014261Y27773D01*
X1014238Y27681D01*
X1014229Y27589D01*
Y27579D01*
Y27561D01*
X1014234Y27524D01*
X1014238Y27482D01*
X1014252Y27436D01*
X1014266Y27390D01*
X1014289Y27339D01*
X1014317Y27293D01*
X1014321Y27288D01*
X1014331Y27274D01*
X1014354Y27256D01*
X1014377Y27237D01*
X1014409Y27214D01*
X1014446Y27195D01*
X1014492Y27182D01*
X1014539Y27177D01*
X1014548D01*
X1014566Y27182D01*
X1014599Y27186D01*
X1014640Y27200D01*
X1014691Y27223D01*
X1014742Y27251D01*
X1014798Y27297D01*
X1014848Y27357D01*
X1014853Y27367D01*
X1014872Y27385D01*
X1014895Y27417D01*
X1014918Y27459D01*
X1014946Y27496D01*
X1014964Y27538D01*
X1014983Y27570D01*
X1014987Y27598D01*
Y28550D01*
D02*
G37*
G36*
X1001858D02*
X1001849Y28545D01*
X1001826Y28527D01*
X1001789Y28504D01*
X1001738Y28471D01*
X1001683Y28425D01*
X1001618Y28374D01*
X1001549Y28319D01*
X1001479Y28254D01*
X1001410Y28185D01*
X1001341Y28111D01*
X1001276Y28032D01*
X1001220Y27949D01*
X1001170Y27861D01*
X1001133Y27773D01*
X1001109Y27681D01*
X1001100Y27589D01*
Y27579D01*
Y27561D01*
X1001105Y27524D01*
X1001109Y27482D01*
X1001123Y27436D01*
X1001137Y27390D01*
X1001160Y27339D01*
X1001188Y27293D01*
X1001193Y27288D01*
X1001202Y27274D01*
X1001225Y27256D01*
X1001248Y27237D01*
X1001281Y27214D01*
X1001318Y27195D01*
X1001364Y27182D01*
X1001410Y27177D01*
X1001419D01*
X1001438Y27182D01*
X1001470Y27186D01*
X1001512Y27200D01*
X1001562Y27223D01*
X1001613Y27251D01*
X1001669Y27297D01*
X1001720Y27357D01*
X1001724Y27367D01*
X1001743Y27385D01*
X1001766Y27417D01*
X1001789Y27459D01*
X1001817Y27496D01*
X1001835Y27538D01*
X1001854Y27570D01*
X1001858Y27598D01*
Y28550D01*
D02*
G37*
G36*
X1011992Y29872D02*
X1011978D01*
X1011959Y29867D01*
X1011936Y29858D01*
X1011913Y29840D01*
X1011881Y29817D01*
X1011853Y29784D01*
X1011821Y29743D01*
X1011788Y29687D01*
X1011756Y29622D01*
X1011723Y29539D01*
X1011700Y29438D01*
X1011686Y29382D01*
X1011677Y29317D01*
X1011668Y29253D01*
X1011659Y29183D01*
X1011654Y29105D01*
X1011649Y29021D01*
X1011645Y28934D01*
Y28841D01*
X1012366D01*
Y28846D01*
Y28855D01*
Y28869D01*
Y28888D01*
X1012361Y28938D01*
Y29003D01*
X1012357Y29082D01*
X1012347Y29169D01*
X1012334Y29262D01*
X1012320Y29359D01*
X1012301Y29451D01*
X1012273Y29544D01*
X1012246Y29632D01*
X1012209Y29710D01*
X1012167Y29775D01*
X1012116Y29826D01*
X1012089Y29849D01*
X1012056Y29863D01*
X1012024Y29867D01*
X1011992Y29872D01*
D02*
G37*
G36*
X992992D02*
X992978D01*
X992960Y29867D01*
X992936Y29858D01*
X992913Y29840D01*
X992881Y29817D01*
X992853Y29784D01*
X992821Y29743D01*
X992788Y29687D01*
X992756Y29622D01*
X992724Y29539D01*
X992701Y29438D01*
X992687Y29382D01*
X992678Y29317D01*
X992668Y29253D01*
X992659Y29183D01*
X992654Y29105D01*
X992650Y29021D01*
X992645Y28934D01*
Y28841D01*
X993366D01*
Y28846D01*
Y28855D01*
Y28869D01*
Y28888D01*
X993362Y28938D01*
Y29003D01*
X993357Y29082D01*
X993348Y29169D01*
X993334Y29262D01*
X993320Y29359D01*
X993302Y29451D01*
X993274Y29544D01*
X993246Y29632D01*
X993209Y29710D01*
X993167Y29775D01*
X993117Y29826D01*
X993089Y29849D01*
X993057Y29863D01*
X993024Y29867D01*
X992992Y29872D01*
D02*
G37*
G36*
X1088200Y59843D02*
Y59150D01*
X1088223D01*
X1088235Y59152D01*
X1088251Y59155D01*
X1088269Y59160D01*
X1088289Y59168D01*
X1088312Y59178D01*
X1088335Y59193D01*
X1088357Y59211D01*
X1088380Y59231D01*
X1088401Y59259D01*
X1088418Y59292D01*
X1088434Y59330D01*
X1088446Y59373D01*
X1088454Y59427D01*
X1088456Y59485D01*
Y59490D01*
Y59500D01*
X1088454Y59518D01*
X1088451Y59541D01*
X1088449Y59569D01*
X1088444Y59597D01*
X1088436Y59630D01*
X1088423Y59663D01*
X1088411Y59696D01*
X1088393Y59729D01*
X1088373Y59759D01*
X1088347Y59787D01*
X1088319Y59810D01*
X1088284Y59828D01*
X1088246Y59838D01*
X1088200Y59843D01*
D02*
G37*
G36*
X912214Y44813D02*
X912166D01*
Y43126D01*
X912217D01*
X912232Y43129D01*
X912247D01*
X912268Y43131D01*
X912293Y43136D01*
X912346Y43152D01*
X912377Y43162D01*
X912405Y43175D01*
X912435Y43190D01*
X912466Y43208D01*
X912494Y43230D01*
X912519Y43256D01*
X912544Y43286D01*
X912565Y43319D01*
X912567Y43322D01*
X912570Y43330D01*
X912575Y43340D01*
X912582Y43357D01*
X912590Y43378D01*
X912598Y43403D01*
X912608Y43436D01*
X912618Y43472D01*
X912628Y43512D01*
X912638Y43561D01*
X912646Y43614D01*
X912654Y43670D01*
X912661Y43733D01*
X912666Y43804D01*
X912671Y43878D01*
Y43959D01*
Y43962D01*
Y43965D01*
Y43980D01*
Y44003D01*
X912669Y44036D01*
Y44074D01*
X912666Y44117D01*
X912664Y44165D01*
X912659Y44216D01*
X912646Y44325D01*
X912628Y44434D01*
X912618Y44485D01*
X912603Y44533D01*
X912588Y44579D01*
X912570Y44617D01*
Y44620D01*
X912565Y44625D01*
X912560Y44635D01*
X912549Y44648D01*
X912539Y44663D01*
X912524Y44678D01*
X912509Y44696D01*
X912488Y44716D01*
X912466Y44734D01*
X912440Y44752D01*
X912410Y44767D01*
X912379Y44782D01*
X912341Y44795D01*
X912303Y44805D01*
X912260Y44810D01*
X912214Y44813D01*
D02*
G37*
%LPD*%
D10*
X932000Y173000D02*
X940000D01*
X932000Y165000D02*
Y173000D01*
Y3000D02*
Y9000D01*
X934000Y171000D02*
X1066000D01*
X934000Y5000D02*
Y171000D01*
X932000Y3000D02*
X939500D01*
X1059250D02*
X1067750D01*
X1066000Y5000D02*
Y171000D01*
X934000Y59000D02*
X1066000D01*
X934000Y5000D02*
X1066000D01*
X1060000Y173000D02*
X1068000D01*
Y165000D02*
Y173000D01*
M02*
