G04*
G04 #@! TF.GenerationSoftware,Altium Limited,Altium Designer,26.9.1 (10)*
G04*
G04 Layer_Physical_Order=2*
G04 Layer_Color=16711680*
G04 Board_Origin=0|0*
%FSLAX44Y44*%
%MOMM*%
G71*
G04*
G04 #@! TF.SameCoordinates,3A2E2B53-79CD-4322-A7B0-E900F7DA23FE*
G04*
G04*
G04 #@! TF.FilePolarity,Positive*
G04*
G01*
G75*
%ADD10C,0.2540*%
%ADD21C,2.2000*%
%ADD22C,0.6000*%
%ADD23C,1.8000*%
D10*
X1051052Y61468D02*
X1064260D01*
X1051052Y81280D02*
Y91000D01*
Y61468D02*
Y81280D01*
X1061720Y70612D01*
X1042162Y90170D02*
X1051052Y81280D01*
X1072642Y16510D02*
Y55880D01*
X916638Y36362D02*
Y49784D01*
X941784Y74930D01*
X950976D01*
X914908Y63040D02*
X922322D01*
X942086Y82804D01*
X967232D01*
X974598Y90170D01*
X1042162D01*
X1061720Y64008D02*
Y70612D01*
Y64008D02*
X1064260Y61468D01*
X1067054D01*
X1072642Y55880D01*
X949706Y88900D02*
X960572D01*
X969615Y97944D01*
X1055216D01*
X1067562Y85598D01*
Y67438D02*
Y85598D01*
X1000886Y135000D02*
X1034500D01*
X960374Y94488D02*
X1000886Y135000D01*
X944880Y94488D02*
X960374D01*
X938784Y88392D02*
X944880Y94488D01*
X938784Y85246D02*
Y88392D01*
X922117Y68580D02*
X938784Y85246D01*
X919734Y68580D02*
X922117D01*
X913892Y124308D02*
Y146304D01*
Y124308D02*
X928000Y110200D01*
X908698Y72022D02*
X911098Y74422D01*
X922571D01*
X930656Y82507D01*
Y107544D01*
X928000Y110200D02*
X930656Y107544D01*
X1034500Y135000D02*
Y160000D01*
X1059500D01*
X1034500Y135000D02*
X1048088Y121412D01*
X1073150D01*
X1076000Y124262D01*
X1059500Y160000D02*
X1088918D01*
X1092200Y156718D01*
X961644Y75000D02*
X980000D01*
X1000000D02*
X1011754Y63246D01*
X1027684D01*
X1039011Y74573D01*
X1020000Y75000D02*
X1029328Y84328D01*
X1037844D01*
D21*
X1034500Y135000D02*
D03*
X1059500D02*
D03*
X1034500Y160000D02*
D03*
X1059500D02*
D03*
X928000Y110200D02*
D03*
X953000D02*
D03*
X928000Y135200D02*
D03*
X953000D02*
D03*
X928000Y160200D02*
D03*
X953000D02*
D03*
X917000Y88000D02*
D03*
X1083000D02*
D03*
D22*
X1051052Y91000D02*
D03*
X916638Y36362D02*
D03*
X950976Y74930D02*
D03*
X914908Y63040D02*
D03*
X1072642Y16510D02*
D03*
X949706Y88900D02*
D03*
X1067562Y67438D02*
D03*
X919734Y68580D02*
D03*
X913892Y146304D02*
D03*
X908698Y72022D02*
D03*
X1076000Y124262D02*
D03*
X1092200Y156718D02*
D03*
X961644Y75000D02*
D03*
X1039011Y74573D02*
D03*
X1037844Y84328D02*
D03*
D23*
X1020000Y75000D02*
D03*
X1000000D02*
D03*
X980000D02*
D03*
M02*
